<?xml version="1.0" encoding="utf-8"?>
<!-- Generator: Adobe Illustrator 27.5.0, SVG Export Plug-In . SVG Version: 6.00 Build 0)  -->
<svg version="1.1" id="Слой_2" xmlns="http://www.w3.org/2000/svg" xmlns:xlink="http://www.w3.org/1999/xlink" x="0px" y="0px"
	 viewBox="0 0 5000 2000" style="enable-background:new 0 0 5000 2000;" xml:space="preserve">
<rect style="fill:none;" width="5000" height="2000"/>
<g>
	<path style="fill:#EBF2F9;" d="M3686.189,1698.165c0,0,452.611,54.646,596.692-152.086
		c186.925-268.205-197.109-471.567-491.646-433.679c-641.803,82.561-633.769-1136.859-1503.562-443.323
		c-230.108,183.479-540.268-145.604-915.773,260.555c-87.752,94.915-624.094-88.542-891.015-13.421
		c-522.388,147.018-283.531,784.435,89.735,786.938C943.888,1705.65,3686.189,1698.165,3686.189,1698.165z"/>
	<g>
		<rect x="3174.552" y="475.008" style="fill:#A6C7F9;" width="508.296" height="1226.911"/>
		<rect x="3174.089" y="475.008" style="fill:#699DEE;" width="90.625" height="1226.912"/>
		<rect x="3286.882" y="475.008" style="fill:#D2E4FF;" width="508.296" height="1226.911"/>
		<rect x="3684.059" y="475.008" style="fill:#A6C7F9;" width="94.308" height="1226.912"/>
	</g>
	<g>
		<path style="fill:#B77446;" d="M2787.692,1689.13c-0.841,10.404-15.531,10.408-32.186,8.352
			c-16.654-2.058-66.925-5.274-68.029-8.618c-0.986-2.967,10.273-5.374,22.321-8.213c1.515-0.353,3.035-0.724,4.556-1.095
			c13.585-3.348,25.324-10.695,34.306-22.205c10.125-12.975,19.379-72.041,19.379-72.041l36.475,6.805
			c0,0-21.231,50.629-23.408,67.233c-0.978,7.451,4.32,12.422,5.563,18.943C2787.332,1681.838,2787.993,1685.465,2787.692,1689.13z"
			/>
		<path style="fill:#365DA4;" d="M2787.689,1689.13c-0.84,10.4-15.529,10.41-32.18,8.351c-11.41-1.41-12.939,0.14-20.279,1.31
			h-29.28c-12.74-2.2-17.63-7.36-18.47-9.931c-0.99-2.959,10.27-5.369,22.319-8.209l0.14,0.22c0,0,14.971,8.18,34.2,6.39
			c15.681-1.46,31.71-7.88,42.53-8.97C2787.33,1681.84,2787.99,1685.46,2787.689,1689.13z"/>
		<g>
			<path style="fill:#365DA4;" d="M2755.08,1627.846c0,0,9.555,6.32,18.537,7.953c13.474,2.45,19.729-0.27,19.729-0.27
				s64.805-162.713,61.105-217.694c-0.09-1.323-0.139-2.728-0.155-4.214c-0.106-9.537,1.266-22.252,3.634-36.886
				c0.874-5.364,1.878-10.982,2.997-16.797c2.597-13.556,5.814-28.181,9.35-43.092c1.552-6.565,3.177-13.188,4.826-19.802
				c16.291-65.058,36.199-129.169,36.199-129.169s-116.943-38.2-123.558-2.499c-2.54,13.703-10.992,68.528-7.187,152.36
				c3.07,67.482,1.086,120.12-4.744,181.21C2770.686,1552.597,2761.915,1598.742,2755.08,1627.846z"/>
		</g>
		<path style="fill:#285493;" d="M2854.296,1413.621c-0.106-9.537,1.266-22.252,3.634-36.886c0.874-5.364,1.878-10.982,2.997-16.797
			c2.597-13.556,5.814-28.181,9.35-43.092c1.552-6.565,3.177-13.188,4.826-19.802c-2.311-19.852-4.173-33.473-4.173-33.473
			S2822.375,1329.521,2854.296,1413.621z"/>
		<path style="fill:#B77446;" d="M2935.224,1689.13c-0.842,10.404-15.531,10.408-32.186,8.352
			c-16.654-2.058-66.925-5.274-68.03-8.618c-0.985-2.967,10.274-5.374,22.321-8.213c1.516-0.353,3.036-0.724,4.557-1.095
			c13.585-3.348,22.639-13.429,34.306-22.205c11.051-8.313,3.319-48.632,3.319-48.632l34.297-12.249c0,0-5.172,40.558-5.172,62.878
			c0,7.515,4.321,12.422,5.563,18.943C2934.862,1681.838,2935.524,1685.465,2935.224,1689.13z"/>
		<path style="fill:#365DA4;" d="M2935.22,1689.13c-0.84,10.4-15.53,10.41-32.18,8.351c-11.41-1.41-12.94,0.14-20.28,1.31h-29.279
			c-12.74-2.2-17.631-7.36-18.471-9.931c-0.99-2.959,10.271-5.369,22.32-8.209l0.14,0.22c0,0,14.97,8.18,34.2,6.39
			c15.68-1.46,31.71-7.88,42.53-8.97C2934.86,1681.84,2935.52,1685.46,2935.22,1689.13z"/>
		<path style="fill:#365DA4;" d="M2840.857,1155.145c0,0,38.048,189.621,44.475,292.826s14.451,188.648,14.451,188.648
			s8.302,2.994,17.828,2.449c10.059-0.574,18.033-3.675,18.033-3.675s37.71-155.276,25.22-217.431
			c-12.49-62.153-2.085-119.484,3.91-171.038c8.597-73.921-24.48-108.279-47.571-131.7
			C2893.829,1091.518,2840.857,1155.145,2840.857,1155.145z"/>
		<path style="fill:#AA443E;" d="M2813.893,807.834c-3.78-30.872,5.861-80.273,67.479-72.379
			c61.618,7.894,81.036,68.45,68.608,95.375c-12.427,26.926,17.89,33.418,27.407,62.373c8.176,24.875,11.025,55.759,24.256,69.62
			c42.656,44.687-40.952,113.407-91.355,98.916c-91.807-26.395-103.632-30.333-100.372-102.468
			c1.67-36.959,30.424-51.279,12.167-61.972C2777.98,871.468,2822.446,877.692,2813.893,807.834z"/>
		<path style="fill:#D9935C;" d="M2832.546,906.975l18.226,27.339l36.722-1.807l16.962-43.848c0,0-5.232-0.991-7.669-55.668
			l-45.835,13.983c0,0,2.437,14.256-0.812,29.775C2847.884,887.575,2842.922,899.127,2832.546,906.975z"/>
		<path style="fill:#D9935C;" d="M2827.437,887.686c2.357,0,45.535-14.444,107.188,10.666c0,0-29.27,167.453-16.696,199.412
			c12.572,31.958,17.351,60.322,17.351,60.322l-136.392,1.692c0,0,1.907-109.694-4.379-148.518
			C2788.222,972.437,2827.437,887.686,2827.437,887.686z"/>
		<path style="fill:#80BDCC;" d="M2934.534,1084.698c-0.809-3.226-1.355-6.092-1.567-8.468c-1.797-20.211,1.258-36.689,6.328-52.858
			c0.008-0.017,0.017-0.032,0.017-0.049c0.081-0.253,0.163-0.515,0.245-0.767c0.139-0.425,0.31-1.078,0.514-1.919
			c0.009-0.024,0.009-0.041,0.017-0.065c0.196-0.768,0.408-1.69,0.653-2.743c0.074-0.344,0.155-0.711,0.237-1.111
			c3.511-15.719,11.212-55.209,13.245-60.591c0.67-1.78,1.437-4.851,2.09-8.623c2.059-11.89,2.965-30.802-3.969-38.707
			c-9.652-11-42.785-18.898-42.785-18.898c-6.736,10.559-29.548,36.381-58.178,31.662c-16.553-2.735-19.108-34.942-19.108-34.942
			c-17.785,2.45-22.334,5.153-22.334,5.153s-42.634,26.604-102.874,111.31c-1.91,2.694-6.459,2.385-17.581,0.229
			c-14.159-2.76-43.062-2.401-86.667-8.803c0,0-1.5,1.086-1.908,5.854c-0.898,10.526-1.954,13.642-1.954,13.642
			s28.714,13.535,59.254,23.203c10.804,3.43,22.097,6.631,32.876,9.04c10.036,2.245,19.631,3.806,27.96,4.197
			c0,0,34.802-13.372,68.522-50.531c1.966,31.19,6.317,71.473,3.647,100.889c-1.526,16.749-12.983,73.102-10.108,82.477
			c5.993,19.532,52,20.545,93.091,18.504c0.898-0.041,1.788-0.09,2.687-0.147c6.369-0.367,12.625-0.923,18.463-1.575
			c11.008-1.233,20.554-2.834,26.76-4.264c8.02-1.837,18.088-4.475,26.278-8.427c6.279-3.029,11.44-6.826,13.719-11.628
			C2958.15,1154.484,2939.115,1108.184,2934.534,1084.698z"/>
		<path style="fill:#5F9AA8;" d="M2845.027,1138.813c7.782,26.4,12.307,48.13,31.855,62.82c6.369-0.367,12.625-0.923,18.463-1.575
			c11.008-1.233,20.554-2.834,26.76-4.263c8.02-1.838,18.088-4.476,26.278-8.428c6.279-3.029,11.44-6.826,13.719-11.628
			c-3.952-21.256-22.987-67.557-27.568-91.042c-0.449-2.286-0.76-4.353-0.906-6.157c-1.698-21.035,1.028-38.314,5.667-55.169
			c0.008-0.017,0.017-0.032,0.017-0.049c0.253-0.898,0.506-1.788,0.759-2.686c0.009-0.024,0.009-0.041,0.017-0.065
			c0.163-0.58,0.384-1.519,0.653-2.743c0.073-0.344,0.155-0.711,0.237-1.111c3.136-14.894,11.342-61.636,13.433-67.736
			c0.661-1.927,1.404-5.234,2.05-9.309l-16.422-15.801c0,0-94.218,40.233-114.976,95.729
			C2804.305,1075.095,2833.849,1100.94,2845.027,1138.813z"/>
		<path style="fill:#5F9AA8;" d="M2658.208,1037.205c20.855,6.614,43.549,12.412,60.836,13.237c0,0,35.269-13.539,69.198-51.266
			c1.429-6.41,2.809-17.165-4.957-14.062c-10.893,4.353-51.176,56.076-66.422,57.162
			C2705.954,1043.052,2674.939,1039.369,2658.208,1037.205z"/>
		<path style="fill:#80BDCC;" d="M2732.62,1022.475c0,0,46.443,23.329,86.71,32.981c11.587,2.776,22.75,4.744,32.271,5.193
			c0,0,44.218-12.679,76.351-59.611c59.423-86.788,14.552-99.061,14.552-99.061s-42.643,26.604-102.874,111.31
			c-2.106,2.965-7.398,2.295-21.101-0.474c-14.634-2.956-43.761-2.604-83.97-8.509c0,0-0.679,1.494-1.087,6.264
			C2732.566,1021.094,2732.62,1022.475,2732.62,1022.475z"/>
		<path style="fill:#A86337;" d="M2689.483,1003.309c-14.017-2.732-43.82-2.945-86.718-9.159c-3.337-1.058-7.124-2.458-10.644-4.217
			c-9.191-4.596-33.702-7.66-38.911-2.758c-5.208,4.902,5.516,24.817,27.881,25.43c7.838,0.215,13.712,0.806,18.045,1.483
			c2.361,1.104,29.872,13.873,59.071,23.117c10.804,3.43,22.097,6.631,32.876,9.04
			C2695.412,1026.998,2692.423,1011.997,2689.483,1003.309z"/>
		<path style="fill:#CC7C46;" d="M2850.14,876.749c18.947-1.533,46.646-43.758,46.646-43.758l-45.835,13.983
			C2850.951,846.974,2853.388,861.231,2850.14,876.749z"/>
		<path style="fill:#D9935C;" d="M2838.946,850.074c0,0,54.884,11.022,61.222-23.262c6.338-34.284,17.689-55.951-17.084-64.439
			c-34.773-8.487-44.02,3.333-48.919,14.262C2829.267,787.565,2824.833,846.323,2838.946,850.074z"/>
		<path style="fill:#AA443E;" d="M2865.768,753.815c0,0-0.962,11.628,17.089,31.36c18.051,19.732,13.747,54.91,13.747,54.91
			s30.42-57.182,14.191-75.439C2894.565,746.389,2865.768,753.815,2865.768,753.815z"/>
		<path style="fill:#AA443E;" d="M2887.836,738.683c0,0-27.286-9.13-54.361,17.551c-11.664,11.494-9.902,34.09-3.654,47.201
			c0,0,9.596-28.095,27.059-34.224C2874.343,763.083,2887.836,738.683,2887.836,738.683z"/>
		<path style="fill:#FFFFFF;" d="M2856.045,833.205c0,0-1.468,4.069-11.8,2.222c0,0-8.675-1.549-7.876-6.116
			C2836.369,829.312,2845.219,827.019,2856.045,833.205z"/>
		<polygon style="fill:#A6C7F9;" points="2671.562,925.321 2554.695,927.955 2581.518,1090.323 2699.82,1094.155 		"/>
		<path style="fill:#B77446;" d="M2819.33,1055.456c-8.836-17.483-5.382-32.762-0.801-42.643
			c-14.633-2.956-43.965-4.238-84.174-10.142c0,0-0.004,0.027-0.01,0.067c-4.334-1.146-10.737-3.118-16.475-5.986
			c-9.813-4.906-35.979-8.177-41.539-2.943c-5.561,5.233,5.888,26.493,29.765,27.147c13.226,0.362,21.226,1.728,25.738,2.874
			C2735.809,1025.662,2780.873,1046.238,2819.33,1055.456z"/>
	</g>
	<g>
		<rect x="1745.537" y="1121.361" style="fill:#4A75CB;" width="280.139" height="280.139"/>
		<rect x="1831.914" y="1121.361" style="fill:#699DEE;" width="280.139" height="280.139"/>
	</g>
	<g>
		<rect x="1984.223" y="1401.5" style="fill:#D86713;" width="300.672" height="300.673"/>
		<rect x="2076.932" y="1401.5" style="fill:#F1A34F;" width="300.672" height="300.673"/>
		<polygon style="fill:#C95C12;" points="2076.932,1401.5 1984.223,1457.704 1984.223,1401.5 		"/>
	</g>
	<g>
		<path style="fill:#B77446;" d="M4489.387,1690.573c-0.852,10.539-100.389,3.116-101.507-0.271
			c-0.999-3.004,10.406-5.443,22.608-8.318c1.535-0.357,3.075-0.732,4.615-1.109c13.761-3.39,25.651-10.832,34.748-22.49
			c10.255-13.142,19.629-72.971,19.629-72.971l36.945,6.893c0,0-21.506,51.282-23.711,68.1c-0.99,7.549,4.377,12.584,5.635,19.189
			C4489.021,1683.188,4489.692,1686.861,4489.387,1690.573z"/>
		<path style="fill:#365DA4;" d="M4489.39,1690.57c-0.35,4.31-3.03,6.85-7.239,8.22h-27.48c-4.84-0.49-7.71-0.37-10.23,0h-44.399
			c-8.09-2.57-11.47-6.39-12.16-8.49c-1-3,10.41-5.44,22.61-8.319l0.14,0.229c0,0,15.16,8.28,34.65,6.47
			c15.87-1.479,32.109-7.979,43.069-9.08C4489.02,1683.189,4489.689,1686.859,4489.39,1690.57z"/>
		<g>
			<path style="fill:#365DA4;" d="M4456.354,1628.499c0,0,9.678,6.402,18.776,8.057c13.647,2.481,19.983-0.273,19.983-0.273
				s65.641-164.812,61.894-220.502c-0.091-1.34-0.141-2.763-0.157-4.268c-0.107-9.661,1.282-22.54,3.681-37.361
				c0.885-5.435,1.902-11.125,3.035-17.014c2.63-13.73,5.89-28.544,9.471-43.647c1.571-6.65,3.218-13.358,4.888-20.058
				c16.502-65.896,36.667-130.834,36.667-130.834s-118.452-38.692-125.151-2.531c-2.572,13.879-11.133,69.412-7.279,154.324
				c3.11,68.354,1.1,121.67-4.806,183.547C4472.16,1552.28,4463.277,1599.021,4456.354,1628.499z"/>
		</g>
		<path style="fill:#285493;" d="M4556.85,1411.513c-0.107-9.661,1.282-22.54,3.681-37.361c0.885-5.435,1.902-11.125,3.035-17.014
			c2.63-13.73,5.89-28.544,9.471-43.647c1.571-6.65,3.218-13.358,4.888-20.058c-2.34-20.107-4.226-33.903-4.226-33.903
			S4524.518,1326.327,4556.85,1411.513z"/>
		<path style="fill:#B77446;" d="M4638.82,1690.573c-0.853,10.539-100.389,3.116-101.508-0.271
			c-0.998-3.004,10.407-5.443,22.609-8.318c1.535-0.357,3.075-0.732,4.615-1.109c13.76-3.39,22.931-13.602,34.748-22.49
			c11.193-8.42,3.362-49.26,3.362-49.26l34.739-12.406c0,0-5.239,41.08-5.239,63.688c0,7.613,4.377,12.584,5.635,19.189
			C4638.455,1683.188,4639.125,1686.861,4638.82,1690.573z"/>
		<path style="fill:#365DA4;" d="M4638.82,1690.57c-0.351,4.31-3.03,6.85-7.24,8.22h-27.48c-4.84-0.49-7.699-0.37-10.229,0h-44.39
			c-8.101-2.57-11.48-6.39-12.171-8.49c-1-3,10.41-5.44,22.61-8.319l0.15,0.229c0,0,15.16,8.28,34.64,6.47
			c15.88-1.479,32.12-7.979,43.07-9.08C4638.45,1683.189,4639.13,1686.859,4638.82,1690.57z"/>
		<path style="fill:#365DA4;" d="M4543.237,1149.703c0,0,38.538,192.066,45.048,296.602c6.51,104.536,14.638,191.08,14.638,191.08
			s8.409,3.033,18.059,2.482c10.188-0.583,18.266-3.723,18.266-3.723s38.196-157.279,25.545-220.234s-2.112-121.025,3.96-173.243
			c8.708-74.874-24.795-109.677-48.184-133.398C4596.893,1085.255,4543.237,1149.703,4543.237,1149.703z"/>
		<path style="fill:#163560;" d="M4515.925,797.914c-3.829-31.27,5.937-81.308,68.35-73.312
			c62.413,7.996,82.081,69.332,69.493,96.605c-12.587,27.273,18.12,33.849,27.76,63.178c8.282,25.195,11.168,56.477,24.57,70.517
			c43.205,45.263-41.48,114.869-92.533,100.191c-92.991-26.734-104.969-30.724-101.667-103.789
			c1.69-37.435,30.815-51.939,12.323-62.771C4479.55,862.368,4524.59,868.673,4515.925,797.914z"/>
		<path style="fill:#A86337;" d="M4553.426,837.547c0,0,7.104,41.29-18.6,60.776l18.496,27.714l37.152-1.821l17.162-44.414
			c0,0-5.268-1.035-7.776-56.396L4553.426,837.547z"/>
		<path style="fill:#B77446;" d="M4541.302,840.698c0,0,55.591,11.164,62.011-23.562c6.42-34.727,17.919-56.673-17.304-65.27
			c-35.222-8.596-44.588,3.376-49.55,14.446S4527.007,836.899,4541.302,840.698z"/>
		<path style="fill:#A86337;" d="M4529.644,878.795c2.388,0,46.122-14.63,108.569,10.803c0,0-29.646,169.612-16.912,201.983
			c12.735,32.37,17.575,61.101,17.575,61.101l-138.149,1.714c0,0,1.931-111.109-4.437-150.434S4529.644,878.795,4529.644,878.795z"
			/>
		<path style="fill:#80BDCC;" d="M4638.123,1078.348c-0.819-3.267-1.373-6.17-1.589-8.577c-1.819-20.472,1.273-37.162,6.41-53.539
			c0.009-0.017,0.017-0.033,0.017-0.05c0.083-0.257,0.165-0.521,0.248-0.777c0.141-0.431,0.314-1.092,0.521-1.944
			c0.008-0.025,0.008-0.041,0.017-0.066c0.198-0.778,0.413-1.713,0.661-2.779c0.074-0.348,0.157-0.72,0.24-1.125
			c3.557-15.922,11.356-55.922,13.416-61.372c0.678-1.803,1.455-4.913,2.117-8.734c2.084-12.043,3.002-31.199-4.02-39.206
			c-9.777-11.141-44.324-19.403-44.324-19.403c-6.824,10.694-28.942,37.112-57.941,32.331
			c-16.766-2.771-19.354-35.393-19.354-35.393c-18.015,2.481-22.622,5.22-22.622,5.22s-43.184,26.947-104.2,112.745
			c-1.936,2.729-6.542,2.415-17.808,0.232c-14.343-2.795-43.617-2.432-87.786-8.917c0,0-1.519,1.101-1.933,5.931
			c-0.909,10.661-1.979,13.817-1.979,13.817s29.084,13.709,60.018,23.502c10.943,3.475,22.383,6.717,33.301,9.156
			c10.165,2.275,19.884,3.854,28.32,4.252c0,0,35.251-13.545,69.406-51.183c1.99,31.593,6.398,72.396,3.694,102.19
			c-1.547,16.965-13.151,74.045-10.239,83.54c6.07,19.784,52.671,20.81,94.291,18.742c0.91-0.041,1.813-0.091,2.722-0.149
			c6.452-0.371,12.787-0.934,18.701-1.596c11.149-1.249,20.819-2.87,27.104-4.317c8.123-1.861,18.321-4.532,26.617-8.536
			c6.361-3.068,11.588-6.914,13.896-11.778C4662.043,1149.033,4642.763,1102.136,4638.123,1078.348z"/>
		<path style="fill:#163560;" d="M4568.47,743.197c0,0-0.976,11.778,17.309,31.765c18.283,19.987,13.925,55.619,13.925,55.619
			s30.812-57.919,14.373-76.412C4597.639,735.676,4568.47,743.197,4568.47,743.197z"/>
		<path style="fill:#163560;" d="M4590.821,727.871c0,0-27.638-9.249-55.062,17.777c-11.814,11.642-10.029,34.53-3.701,47.81
			c0,0,9.719-28.458,27.407-34.664C4577.155,752.585,4590.821,727.871,4590.821,727.871z"/>
		<path style="fill:#FFFFFF;" d="M4558.621,823.612c0,0-1.486,4.122-11.952,2.251c0,0-8.786-1.569-7.978-6.195
			C4538.691,819.668,4547.654,817.346,4558.621,823.612z"/>
		<path style="fill:#5F9AA8;" d="M4547.461,1133.161c7.883,26.741,12.465,48.751,32.267,63.631
			c6.452-0.372,12.788-0.935,18.701-1.597c11.149-1.249,20.819-2.87,27.104-4.317c8.123-1.861,18.321-4.533,26.617-8.536
			c6.361-3.068,11.588-6.914,13.896-11.778c-4.003-21.53-23.283-68.428-27.924-92.216c-0.454-2.315-0.769-4.408-0.918-6.236
			c-1.72-21.307,1.042-38.809,5.74-55.88c0.009-0.017,0.017-0.033,0.017-0.05c0.257-0.91,0.513-1.811,0.77-2.722
			c0.008-0.025,0.008-0.041,0.017-0.066c0.165-0.588,0.389-1.539,0.661-2.779c0.075-0.348,0.157-0.72,0.24-1.125
			c3.176-15.087,11.488-62.431,13.605-68.61c0.67-1.952-0.907-10.716-0.254-14.843l-14.303-10.591c0,0-95.434,40.752-116.459,96.964
			C4506.213,1068.621,4536.139,1094.799,4547.461,1133.161z"/>
		<path style="fill:#5F9AA8;" d="M4358.232,1030.242c21.125,6.7,44.111,12.572,61.621,13.408c0,0,35.723-13.714,70.09-51.927
			c1.447-6.493,2.846-17.386-5.021-14.243c-11.034,4.409-51.835,56.799-67.278,57.898
			C4406.595,1036.165,4375.181,1032.435,4358.232,1030.242z"/>
		<path style="fill:#80BDCC;" d="M4433.604,1015.321c0,0,47.042,23.631,87.827,33.407c11.737,2.813,23.044,4.806,32.688,5.261
			c0,0,45.95-12.068,77.336-60.38c56.245-86.577,14.739-100.338,14.739-100.338s-43.192,26.947-104.201,112.745
			c-2.134,3.002-7.494,2.324-21.373-0.481c-14.821-2.994-44.325-2.638-85.053-8.618c0,0-0.687,1.514-1.1,6.344
			C4433.551,1013.924,4433.604,1015.321,4433.604,1015.321z"/>
		<path style="fill:#A86337;" d="M4389.912,995.909c-14.197-2.767-44.387-2.983-87.837-9.277c-3.379-1.072-7.216-2.489-10.78-4.271
			c-9.311-4.655-34.137-7.758-39.412-2.793c-5.276,4.965,5.586,25.137,28.24,25.757c7.938,0.218,13.889,0.816,18.277,1.503
			c2.392,1.118,30.257,14.053,59.832,23.415c10.943,3.475,22.383,6.717,33.301,9.156
			C4395.916,1019.903,4392.889,1004.709,4389.912,995.909z"/>
		<path style="fill:#B77446;" d="M4521.432,1048.729c-8.949-17.709-5.45-33.184-0.811-43.192
			c-14.821-2.994-44.531-4.292-85.26-10.272c0,0-0.004,0.028-0.01,0.068c-4.389-1.16-10.875-3.158-16.686-6.063
			c-9.939-4.969-36.443-8.282-42.075-2.982s5.964,26.835,30.148,27.498c13.396,0.367,21.499,1.75,26.069,2.911
			C4436.835,1018.552,4482.48,1039.392,4521.432,1048.729z"/>
	</g>
	<g>
		<g>
			<g>
				<g>
					<g>
						<rect x="1130.784" y="1432.858" style="fill:#D86713;" width="191.083" height="191.083"/>
						<rect x="1189.702" y="1432.858" style="fill:#F1A34F;" width="191.083" height="191.083"/>
					</g>
				</g>
				<polygon style="fill:#C95C12;" points="1189.702,1432.858 1130.784,1468.577 1130.784,1432.858 				"/>
			</g>
			<g>
				<polygon style="fill:#FFD5AB;" points="1226.489,1544.455 1152.413,1544.455 1155.526,1535.802 1152.413,1526.455 
					1225.796,1526.455 1221.296,1536.148 				"/>
				<polygon style="fill:#C95C12;" points="1189.451,1526.455 1189.451,1544.455 1152.413,1544.455 1155.526,1535.802 
					1152.413,1526.455 				"/>
			</g>
		</g>
		<g>
			<g>
				<rect x="1142.264" y="1322.987" style="fill:#D86713;" width="109.883" height="109.883"/>
				<rect x="1176.145" y="1322.987" style="fill:#F1A34F;" width="109.883" height="109.883"/>
				<polygon style="fill:#C95C12;" points="1176.145,1322.987 1142.264,1343.527 1142.264,1322.987 				"/>
			</g>
			<g>
				<g>
					<rect x="1219.664" y="1346.323" style="fill:#4A75CB;" width="86.535" height="86.535"/>
					<rect x="1246.346" y="1346.323" style="fill:#699DEE;" width="86.536" height="86.535"/>
				</g>
				
					<rect x="1254.614" y="1408.727" transform="matrix(0.9806 -0.1958 0.1958 0.9806 -252.9046 276.3521)" style="fill:#EBF2F9;" width="32.746" height="16.642"/>
				<g>
					<polygon style="fill:#EBF2F9;" points="1261.918,1368.382 1230.651,1368.382 1231.966,1364.729 1230.651,1360.784 
						1261.626,1360.784 1259.727,1364.875 					"/>
					<polygon style="fill:#A6C7F9;" points="1246.285,1360.784 1246.285,1368.382 1230.651,1368.382 1231.966,1364.729 
						1230.651,1360.784 					"/>
				</g>
			</g>
			<g>
				<polygon style="fill:#FFD5AB;" points="1194.636,1346.76 1157.685,1346.76 1159.238,1342.443 1157.685,1337.781 
					1194.29,1337.781 1192.045,1342.616 				"/>
				<polygon style="fill:#C95C12;" points="1176.16,1337.781 1176.16,1346.76 1157.685,1346.76 1159.238,1342.443 
					1157.685,1337.781 				"/>
			</g>
			<g>
				<polygon style="fill:#FFD5AB;" points="1194.636,1413.117 1157.685,1413.117 1159.238,1408.801 1157.685,1404.139 
					1194.29,1404.139 1192.045,1408.974 				"/>
				<polygon style="fill:#C95C12;" points="1176.16,1404.139 1176.16,1413.117 1157.685,1413.117 1159.238,1408.801 
					1157.685,1404.139 				"/>
			</g>
		</g>
		<g>
			<g>
				<rect x="1293.23" y="1471.926" style="fill:#4A75CB;" width="152.015" height="152.016"/>
				<rect x="1340.102" y="1471.926" style="fill:#699DEE;" width="152.016" height="152.016"/>
			</g>
			
				<rect x="1444.601" y="1484.526" transform="matrix(0.9806 -0.1958 0.1958 0.9806 -264.2434 315.4746)" style="fill:#EBF2F9;" width="37.135" height="18.872"/>
			<g>
				<polygon style="fill:#EBF2F9;" points="1360.285,1496 1319.083,1496 1320.815,1491.187 1319.083,1485.988 1359.899,1485.988 
					1357.396,1491.379 				"/>
				<polygon style="fill:#A6C7F9;" points="1339.684,1485.988 1339.684,1496 1319.083,1496 1320.815,1491.187 1319.083,1485.988 
									"/>
			</g>
			<g>
				<polygon style="fill:#EBF2F9;" points="1360.285,1609.232 1319.083,1609.232 1320.815,1604.42 1319.083,1599.221 
					1359.899,1599.221 1357.396,1604.612 				"/>
				<polygon style="fill:#A6C7F9;" points="1339.684,1599.221 1339.684,1609.232 1319.083,1609.232 1320.815,1604.42 
					1319.083,1599.221 				"/>
			</g>
		</g>
		<g>
			<path style="fill:#1C468A;" d="M1078.587,1657.138c-11.526,0-20.87,9.344-20.87,20.869c0,11.526,9.344,20.87,20.87,20.87
				s20.87-9.344,20.87-20.87C1099.457,1666.481,1090.113,1657.138,1078.587,1657.138z"/>
			<path style="fill:#699DEE;" d="M1078.587,1664.436c-7.396,0-13.391,5.996-13.391,13.391c0,7.396,5.996,13.392,13.391,13.392
				c7.396,0,13.391-5.995,13.391-13.392C1091.978,1670.432,1085.983,1664.436,1078.587,1664.436z"/>
		</g>
		<g>
			<path style="fill:#1C468A;" d="M1498.621,1657.138c-11.526,0-20.87,9.344-20.87,20.869c0,11.526,9.344,20.87,20.87,20.87
				c11.526,0,20.87-9.344,20.87-20.87C1519.491,1666.481,1510.147,1657.138,1498.621,1657.138z"/>
			<path style="fill:#699DEE;" d="M1498.621,1664.436c-7.396,0-13.392,5.996-13.392,13.391c0,7.396,5.996,13.392,13.392,13.392
				c7.396,0,13.391-5.995,13.391-13.392C1512.012,1670.432,1506.017,1664.436,1498.621,1664.436z"/>
		</g>
		<path style="fill:#1C468A;" d="M1542.112,1623.936h-426.905L944.81,1158.55c-1.539-4.202-5.458-7.063-9.929-7.247l-56.814-2.34
			c-6.097-0.245-11.253,4.491-11.504,10.594c-0.251,6.102,4.492,11.252,10.594,11.504l49.427,2.035l165.071,450.84h-37.116
			c-5.881,0-10.693,4.813-10.693,10.693v12.764c0,5.881,4.812,10.693,10.693,10.693h487.573c5.881,0,10.693-4.813,10.693-10.693
			v-12.764C1552.806,1628.748,1547.994,1623.936,1542.112,1623.936z"/>
	</g>
	<g id="man_5_">
		<path style="fill:#9E6138;" d="M870.534,1115.095c0,0,21.265,14.007,37.627,14.637c16.362,0.63,26.116,17.004,28.367,23.823
			c2.252,6.818-4.254,17.298-9.298,11.087c-7.621-9.386-23.193-2.065-38.063-14.347c-14.87-12.282-37.059-20.17-37.059-20.17
			L870.534,1115.095z"/>
		<path style="fill:#D88029;" d="M680.919,884.996c0,0,45.668,163.358,82.103,196.347c18.902,17.114,123.572,86.932,132.193,64.659
			c0,0,12.932-15.805,5.748-25.145c0,0-87.983-63.279-94.834-67.534c-11.928-7.408,2.76-155.736-28.488-181.279
			C746.393,846.502,698.353,839.887,680.919,884.996z"/>
		<path style="fill:#233862;" d="M865.29,1698.51c0,0-3.41,0.12-8.98,0.28h-86.24c-1.99-0.229-3.4-0.51-4.11-0.851
			c-7.75-3.689-4.17-37.859-4.17-37.859s33.55-27.95,38.65-7.17c5.11,20.79,32.99,29.609,48.81,31.85
			C865.06,1687.01,865.29,1698.51,865.29,1698.51z"/>
		<path style="fill:#2B478B;" d="M592.856,1275.736c16.596,33.867,55.95,81.037,70.462,117.584
			c3.435,8.644,5.479,16.684,5.511,23.824c0.342,82.023,89.379,243.765,89.379,243.765c8.493,5.495,44.73-5.503,44.73-5.503
			s-4.199-35.942-25.001-160.135c-11.467-68.506-30.813-170.504-45.85-248.21c-3.872-20.015-7.467-38.416-10.552-54.216
			c-6.68-34.082-11.062-56.068-11.062-56.068l-34.527,0.572l-93.251,1.543C582.693,1138.893,543.991,1176.004,592.856,1275.736z"/>
		<path style="fill:#233862;" d="M592.856,1275.736c16.596,33.867,55.95,81.037,70.462,117.584
			c20.571-43.528,51.783-109.696,68.768-146.259c-3.872-20.015-7.467-38.416-10.552-54.216
			c-13.415-16.421-30.67-37.478-45.588-55.496l-93.251,1.543C582.693,1138.893,543.991,1176.004,592.856,1275.736z"/>
		<path style="fill:#233862;" d="M480.02,1698.79h-46.75c-4.36-3.399-8.09-9.32-9.68-17.55c-2.71-13.971-18.78-20.98-22.66-32.34
			c-3.88-11.36,12.91-28.26,12.91-28.26l5.64-7.91l29.24,5.619c0,0,2.98,20.351,2.76,35.711c-0.22,15.369,5.6,31.67,19.35,34.09
			C480.83,1689.91,480.79,1695.74,480.02,1698.79z"/>
		<path style="fill:#2B478B;" d="M609.193,1477.916c-17.522,31.818-146.78,179.552-146.78,179.552s-40.745-13.759-47.997-38.505
			c0,0,76.457-125.618,111.221-179.155c9.94-15.308,15.466-249.303,50.897-291.948c44.415-53.456,124.826,47.964,124.826,47.964
			s-25.162,81.832-32.984,107.608C651.04,1360.598,621.268,1455.988,609.193,1477.916z"/>
		<path style="fill:#AB7041;" d="M858.32,1127.309c0,0,21.265,14.007,37.626,14.636c16.362,0.63,26.116,17.005,28.367,23.823
			c2.251,6.819-4.254,17.299-9.298,11.087c-7.621-9.385-23.193-2.064-38.063-14.347c-14.87-12.282-37.059-20.17-37.059-20.17
			L858.32,1127.309z"/>
		<path style="fill:#9C5F33;" d="M781.042,855.191c12.822-21.289,18.25-34.761,18.25-34.761l-30.124-52.838
			c-17.55,49.489-58.076,60.682-58.076,60.682s47.381,51.986,85.539,54.614C796.631,882.889,792.469,868.921,781.042,855.191z"/>
		<path style="fill:#AB7041;" d="M809.992,823.703c0,0-59.734-12.711-51.246-49.789c8.489-37.078,6.496-63.69,44.993-57.142
			c38.498,6.548,42.643,22.387,42.82,35.452C846.735,765.29,825.748,826.054,809.992,823.703z"/>
		<path style="fill:#233862;" d="M758.167,776.475c0,0,19.553-46.453,73.602-33.909c37.022,8.592,27.316-28.977,25.134-35.18
			c0,0-28.758-5.404-58.5-10.15C735.978,687.275,754.832,767.115,758.167,776.475z"/>
		<path style="fill:#E2923D;" d="M808.265,937.877c-1.177,18.543-6.767,46.638-14.361,77.801c-2.95,12.07-6.195,24.603-9.598,37.223
			c-5.526,20.476-11.284,41.071-17.224,60.458l-0.223,0.692c-0.43,1.972-1.098,4.063-1.702,5.979
			c-5.153,17.12-10.091,32.969-14.393,46.423c-8.238,25.732-8.294,40.065-14.87,42.972c-13.212,5.84-65.234-0.429-96.406-13.939
			c-26.336-11.212-66.466-45.027-66.261-62.049c0.238-19.729,26.714-79.129,44.264-148.485
			c21.653-84.72,69.682-152.374,109.736-166.322c2.99-0.97,6.186,5.312,17.796,16.46c10.727,10.29,24.237,16.715,37.024,18.083
			l7.626,12.723C800.003,884.106,810.181,907.635,808.265,937.877z"/>
		<path style="fill:#D88029;" d="M784.306,1052.9C781.356,1064.972,787.709,1040.28,784.306,1052.9
			c-5.526,20.476-11.284,41.071-17.224,60.458l-0.223,0.692c-0.43,1.972-1.098,4.063-1.702,5.979
			c-5.153,17.12-10.091,32.969-14.393,46.423c-83.304-105.815-36.062-232.537-36.062-232.537L784.306,1052.9z"/>
		<path style="fill:#E2923D;" d="M667.628,898.287c0,0,45.667,163.359,82.103,196.347c18.902,17.114,123.572,86.932,132.193,64.66
			c0,0,12.932-15.806,5.748-25.146c0,0-87.983-63.279-94.834-67.533c-11.928-7.408,2.76-155.737-28.488-181.279
			C733.102,859.793,685.062,853.178,667.628,898.287z"/>
		<path style="fill:#233862;" d="M791.155,753.361c0,0,6.717-11.115,24.63-12.913c0,0-52.655,1.107-54.847,17.287
			c-2.192,16.18-2.771,18.741-2.771,18.741S785.986,777.614,791.155,753.361z"/>
	</g>
	<g>
		<path style="fill:#F4BE61;" d="M4177.685,1022.641c0,0-28.967,13.473-60.004,23.289c-11.035,3.423-22.3,6.617-33.336,9.131
			c-10.116,2.286-19.771,3.886-28.277,4.109c0,0-0.688-0.224-2.068-0.915c-7.817-3.423-38.395-17.805-68.052-50.459
			c-2.298-2.737-4.828-5.48-7.127-8.446c-1.839-2.057-3.679-22.375-5.059-43.609c-0.229-0.234-0.229-0.234-0.229-0.234
			c-1.609-24.884-2.76-51.374-2.76-51.374s40.004,10.736,97.479,107.547c1.609,2.737,6.437,2.28,17.701,0.228
			c14.484-2.742,43.683-2.514,87.822-8.907c0,0,1.609,1.142,2.07,5.936C4176.535,1019.44,4177.685,1022.641,4177.685,1022.641z"/>
		<path style="fill:#F2A83D;" d="M4053.999,1058.255c-7.817-3.423-38.395-17.805-68.052-50.459c-2.298-2.737-4.828-5.48-7.127-8.446
			c-1.839-2.057-3.679-22.375-5.059-43.609C3979.281,961.216,4043.653,1023.326,4053.999,1058.255z"/>
		<path style="fill:#163560;" d="M3909.431,735.349c0,0-3.661-7.447-21.964-5.406c-18.303,2.041-49.954,5.405-50.225,105.063
			c-0.029,10.917-65.854,110.442,8.385,204.152l52.992-134.039L3909.431,735.349z"/>
		<path style="fill:#C65447;" d="M3914.716,736.654c0,0-19.522-6.541-29.797,3.153c-10.274,9.694-4.453,22.519-4.453,22.519
			L3914.716,736.654z"/>
		<path style="fill:#163560;" d="M3976.365,774.843c0,0-0.362-42.747-69.636-37.825c-11.774,0.836-22.454,7.53-27.831,17.966
			c-7.793,15.124-11.19,41.748,13.986,84.438L3976.365,774.843z"/>
		<path style="fill:#E49963;" d="M3888.668,900.359l15.608,60.596l45.1,2.188l22.445-33.409
			c-20.986-15.795-23.952-43.494-23.646-59.924c0-0.161,0.01-0.322,0.01-0.483c0.181-7.737,1.067-12.86,1.067-12.86l-31.998-9.678
			l-24.371-7.367c2.24,18.466,2.088,31.789,1.076,41.183C3892.367,895.294,3888.668,900.359,3888.668,900.359z"/>
		<path style="fill:#E49963;" d="M3843.142,1213.746l163.649-0.215c0,0-20.361-108.969-9.059-144.685
			c11.302-35.716-0.552-87.896-0.552-87.896c-16.44-38.777-20.628-75.08-27.944-76.977c-4.017-1.051-7.256-3.199-11.191-3.985
			c-64.289-12.756-116.546,10.47-116.546,10.47c-14.43,35.991,16.467,63.024,17.966,144.287
			C3860.938,1134.627,3843.142,1213.746,3843.142,1213.746z"/>
		<path style="fill:#F4BE61;" d="M4016.524,1221.285c0,0-124.607,25.575-195.876-0.914c-3.908-1.595,11.035-55.025,21.381-91.561
			c5.059-18.039,8.967-31.964,8.736-33.792c-2.529-49.774-12.414-92.245-17.013-125.124c-1.38-8.679-2.3-16.439-2.528-23.747v-3.651
			c-0.23-11.874,1.379-21.461,5.518-29.455c7.815-14.382,49.888-14.616,49.888-14.616c4.138,4.799,26.897,20.553,54.026,20.324
			c27.358-0.229,13.832-19.434,13.832-19.434c1.149,0.228,2.951,0.48,3.871,0.709c13.564,2.971,22.76,9.359,22.76,9.359
			c21.841,23.747,28.968,142.025,28.508,145.904C4008.707,1069.672,4016.524,1221.285,4016.524,1221.285z"/>
		<path style="fill:#D68D5D;" d="M3893.959,880.606c19.375-10.294,49.372-10.786,54.216-10.796c0.438,0,0.667,0,0.667,0
			s-0.229-0.17-0.657-0.483c-3.204-2.348-17.593-12.869-30.931-22.538l-24.371-7.367
			C3895.123,857.889,3894.971,871.212,3893.959,880.606z"/>
		<path style="fill:#E49963;" d="M3960.216,870.702c0,0-68.754,3.12-70.052-39.433c-1.297-42.553-11.045-70.81,32.798-74.601
			s52.87,12.19,56.782,26.289C3983.655,797.055,3978.066,868.793,3960.216,870.702z"/>
		<path style="fill:#163560;" d="M3953.257,773.467c0,0,29.444,20.116,24.727,43.438c0,0,14.585-7.617,13.212-29.853
			c-1.375-22.236-22.736-37.526-41.537-38.686c-18.802-1.159-32.964,0.354-32.964,0.354L3953.257,773.467z"/>
		<path style="fill:#163560;" d="M3958.425,766.084c12.201,6.418-38.229,11.82-41.312,32.229
			c-3.082,20.409-27.129,28.22-27.129,28.22S3859.489,714.041,3958.425,766.084z"/>
		<path style="fill:#F2A83D;" d="M3998.361,1045.244c0,0-54.945,73.293-156.332,83.566c5.059-18.039,8.967-31.964,8.736-33.792
			c-2.529-49.774-12.414-92.245-17.013-125.124c-1.38-8.679-2.3-16.439-2.528-23.747v-3.651
			c11.724,2.286,29.887,14.382,37.703,16.21C3929.392,972.866,3998.361,1045.244,3998.361,1045.244z"/>
		<path style="fill:#FFFFFF;" d="M3968.456,847.544c0,0-0.497,4.324-11.112,4.911c0,0-8.911,0.495-9.19-4.16
			C3948.153,848.295,3956.341,843.999,3968.456,847.544z"/>
		<path style="fill:#F4BE61;" d="M4059.694,1028.047c0,0-47.042,23.47-87.828,33.18c-11.736,2.793-23.043,4.772-32.688,5.225
			c0,0-43.862-13.398-77.336-59.967c-64.656-89.951-14.739-99.652-14.739-99.652s43.192,26.764,104.201,111.974
			c2.134,2.982,7.493,2.309,21.373-0.477c14.821-2.974,44.324-2.62,85.053-8.56c0,0,0.686,1.504,1.1,6.301
			C4059.748,1026.659,4059.694,1028.047,4059.694,1028.047z"/>
		<path style="fill:#A86337;" d="M4177.714,1022.606c0,0-29.083,13.615-60.018,23.342c-10.942,3.45-22.382,6.67-33.3,9.094
			c-4.384-19.362-1.356-34.453,1.621-43.193c14.342-2.776,44.995-2.963,89.164-9.402L4177.714,1022.606z"/>
		<path style="fill:#A86337;" d="M4164.152,1005.173c0,0,11.172-2.157,20.482-6.781c9.31-4.623,34.137-7.705,39.412-2.774
			c5.275,4.932-5.586,24.965-28.24,25.581c-22.654,0.617-29.171,4.315-29.171,4.315L4164.152,1005.173z"/>
		<path style="fill:#B77446;" d="M4060.78,1029.279c0,0-48.128,22.237-88.914,31.947c8.95-17.588,5.451-32.957,0.812-42.897
			c14.821-2.974,44.531-4.263,85.259-10.202c0,0,0.479,3.146,0.894,7.943C4059.748,1026.659,4060.78,1029.279,4060.78,1029.279z"/>
		<path style="fill:#AA443E;" d="M3555.963,1215.341v-1.593h-170.816c-21.15,0-38.164,16.668-38.164,36.992
			c0,18.506,13.804,33.673,31.999,36.505v414.472h642.316v-486.376H3555.963z"/>
		<g>
			<g>
				<rect x="4076.063" y="959.842" style="fill:#D86713;" width="102.606" height="101.905"/>
				<rect x="4107.699" y="959.842" style="fill:#F1A34F;" width="102.607" height="101.905"/>
				<polygon style="fill:#C95C12;" points="4107.699,959.842 4076.063,978.891 4076.063,959.842 				"/>
			</g>
			<g>
				<polygon style="fill:#FFD5AB;" points="4124.966,981.889 4090.462,981.889 4091.912,977.886 4090.462,973.563 4124.643,973.563 
					4122.547,978.046 				"/>
				<polygon style="fill:#C95C12;" points="4107.714,973.563 4107.714,981.889 4090.462,981.889 4091.912,977.886 4090.462,973.563 
									"/>
			</g>
			<g>
				<polygon style="fill:#FFD5AB;" points="4124.966,1043.428 4090.462,1043.428 4091.912,1039.425 4090.462,1035.102 
					4124.643,1035.102 4122.547,1039.585 				"/>
				<polygon style="fill:#C95C12;" points="4107.714,1035.102 4107.714,1043.428 4090.462,1043.428 4091.912,1039.425 
					4090.462,1035.102 				"/>
			</g>
		</g>
		<path style="fill:#B77446;" d="M4052.768,1009.412c0,0,11.927-2.304,21.865-7.239c9.939-4.936,36.443-8.226,42.075-2.961
			c5.632,5.265-5.964,26.652-30.148,27.31s-31.142,4.606-31.142,4.606L4052.768,1009.412z"/>
		<rect x="3557.154" y="1215.341" style="fill:#C65447;" width="642.316" height="486.376"/>
		<path style="fill:#E57970;" d="M4294.176,1213.748h-909.029c-21.15,0-38.164,16.668-38.164,36.992
			c0,20.547,17.014,36.986,38.164,36.986h909.029c23.451,0,42.533-16.668,42.533-36.986
			C4336.709,1230.416,4317.627,1213.748,4294.176,1213.748z"/>
	</g>
	<g>
		<rect x="3303.696" y="997.238" style="fill:#8CB3ED;" width="115.292" height="102.446"/>
		<rect x="3324.764" y="997.238" style="fill:#A6C7F9;" width="115.291" height="102.446"/>
	</g>
	<g>
		<rect x="3451.695" y="981.839" style="fill:#8CB3ED;" width="145.26" height="117.846"/>
		<rect x="3478.238" y="981.839" style="fill:#A6C7F9;" width="145.259" height="117.846"/>
	</g>
	<g>
		<path style="fill:#82B378;" d="M3497.931,1421.032c0,0-47.825,35.563-57.15,33.407c-9.325-2.157,34.952-38.391,34.952-38.391
			c-16.662-8.011-68.455-2.988-68.455-2.988s-17.252,55.634-25.759,51.248c-8.508-4.387,17.789-48.481,17.789-48.481
			c-18.559-1.119-41.318,12.659-41.318,12.659c-31.158,24.607,2.048,63.348,2.048,63.348s-6.395,19.151-26.071,36.591
			c0,0-28.103,20.783-30.055,57.918l5.101,0.456c0,0,8.174-34.934,23.013-51.186c0.556-0.572,1.301-1.335,2.194-2.236
			c2.383-2.205,4.045-3.857,5.171-5.092c7.315-7.031,17.44-16.002,22.315-16.871c0,0-0.244-0.895-0.209-2.448
			c0.067,0.784,0.136,1.591,0.209,2.448c1.667,19.581,39.652,36.68,63.021,40.196c23.368,3.517,16.145-6.089,8.093-20.332
			s-33.534-20.617-39.347-27.176c-5.813-6.56,6.206-6.575,20.285-0.144c14.08,6.43,16.009,23.577,38.596,34.394
			c22.587,10.817,56.572-26.663,56.572-26.663c-18.001-0.914-43.707-20.463-42.776-26.444s43.635,10.32,50.935,11.102
			c7.301,0.782,23.91-8.298,26.48-37.704C3546.135,1429.235,3497.931,1421.032,3497.931,1421.032z"/>
		<g>
			<path style="fill:#A8D29F;" d="M3243.936,1443.114c0,0,52.823-29.581,28.173-69.727c0,0-19.721-24.65-40.851-30.989
				c0,0,11.27,59.866,0,61.274c-11.269,1.409-7.747-67.613-7.747-67.613s-55.64-26.764-77.474-24.65
				c0,0,34.512,58.457,23.242,57.049c-11.269-1.409-50.006-60.57-50.006-60.57s-57.048-10.564-66.204,23.242
				s5.634,50.71,14.086,52.823c8.452,2.112,62.684,1.408,61.274,8.451c-1.408,7.043-38.032,18.312-58.457,11.973
				c0,0,22.537,55.641,52.118,52.823s38.737-21.129,57.049-22.538c18.313-1.408,31.694,3.521,22.538,8.452
				s-40.146,1.615-54.936,14.189c-14.791,12.574-26.764,20.321,0.704,25.956s76.77,2.113,86.629-19.017
				C3243.936,1443.114,3243.936,1443.114,3243.936,1443.114z"/>
			<path style="fill:#82B378;" d="M3258.021,1494.528c-14.79-27.468-14.086-51.414-14.086-51.414
				c-16.902-53.527-164.807-101.42-164.807-101.42c188.049,76.065,154.946,122.549,154.946,122.549
				c5.069,2.957,12.669,17.058,17.943,27.874c0.75,1.838,1.937,4.379,3.697,7.826c0.72,1.57,1.297,2.857,1.692,3.751
				c9.681,24.227,4.552,66.058,4.552,66.058l5.868,1.576C3280.831,1529.166,3258.021,1494.528,3258.021,1494.528z"/>
		</g>
		<g>
			<path style="fill:#A8D29F;" d="M3327.973,1402.318c0,0-69.63-38.993-37.136-91.912c0,0,25.995-32.494,53.848-40.85
				c0,0-14.854,78.914,0,80.771c14.854,1.856,10.212-89.128,10.212-89.128s73.344-35.279,102.125-32.494
				c0,0-45.492,77.058-30.638,75.201s65.917-79.843,65.917-79.843s75.201-13.926,87.271,30.638s-7.428,66.845-18.568,69.63
				s-82.628,1.857-80.771,11.141c1.856,9.284,50.134,24.139,77.058,15.783c0,0-29.709,73.344-68.702,69.631
				c-38.993-3.714-51.062-27.853-75.2-29.709c-24.139-1.857-41.779,4.642-29.709,11.141c12.069,6.499,52.919,2.13,72.415,18.704
				c19.497,16.575,35.279,26.788-0.928,34.215c-36.208,7.428-101.196,2.785-114.194-25.066
				C3327.973,1402.318,3327.973,1402.318,3327.973,1402.318z"/>
			<path style="fill:#82B378;" d="M3545.22,1268.628c0,0-194.965,63.132-217.247,133.69c0,0,0.929,31.565-18.567,67.773
				c0,0-30.067,45.658-12.926,101.236l7.735-2.077c0,0-6.762-55.146,6.001-87.081c0.521-1.177,1.277-2.863,2.221-4.924l0,0
				c2.329-4.559,3.896-7.916,4.887-10.342c6.951-14.256,16.968-32.837,23.647-36.734
				C3340.971,1430.17,3297.336,1368.896,3545.22,1268.628z"/>
		</g>
		<path style="fill:#F1A34F;" d="M3189.232,1555.458c0,75.329,61.065,136.395,136.395,136.395s136.395-61.065,136.395-136.395
			H3189.232z"/>
		<path style="fill:#FFB973;" d="M3359.189,1690.809c-5.547,0.694-11.204,1.045-16.946,1.045
			c-75.327,0-136.388-61.069-136.388-136.396h33.885C3239.74,1625.05,3291.856,1682.465,3359.189,1690.809z"/>
		<path style="fill:#F1A34F;" d="M3447.078,1681.966h-242.902c-9.293,0-16.827,7.534-16.827,16.828h276.557
			C3463.905,1689.5,3456.371,1681.966,3447.078,1681.966z"/>
		<rect x="3184.747" y="1555.457" style="fill:#D86713;" width="280.377" height="4.185"/>
	</g>
	<g>
		<path style="fill:#F1A34F;" d="M2073.39,1295.987l-27.115-101.375c-1.028-3.844-4.987-6.133-8.83-5.104l-168.64,45.106
			c-3.843,1.028-6.131,4.987-5.103,8.831l27.115,101.375c1.015,3.796,4.986,6.131,8.83,5.104l168.64-45.106
			C2072.13,1303.789,2074.405,1299.783,2073.39,1295.987z"/>
		<path style="fill:#D86713;" d="M2046.275,1194.612c-1.028-3.844-4.987-6.133-8.83-5.104l-168.64,45.106
			c-3.843,1.028-6.131,4.987-5.103,8.831l104.844,26.271l78.513-72.174L2046.275,1194.612z"/>
		<path style="fill:#D86713;" d="M2060.984,1291.309c-0.412-1.541-2.011-2.465-3.552-2.053l-31.63,8.46
			c-1.542,0.412-2.465,2.011-2.053,3.552c0.412,1.542,2.011,2.466,3.552,2.054l31.63-8.46
			C2060.473,1294.449,2061.396,1292.851,2060.984,1291.309z"/>
	</g>
	<g>
		<g>
			<rect x="1635.13" y="1401.5" style="fill:#D86713;" width="300.672" height="300.673"/>
			<rect x="1727.838" y="1401.5" style="fill:#F1A34F;" width="300.672" height="300.673"/>
			<polygon style="fill:#C95C12;" points="1727.838,1401.5 1635.13,1457.704 1635.13,1401.5 			"/>
		</g>
		<g>
			<polygon style="fill:#FFD5AB;" points="1785.723,1577.1 1669.163,1577.1 1674.063,1563.482 1669.163,1548.775 1784.633,1548.775 
				1777.552,1564.028 			"/>
			<polygon style="fill:#C95C12;" points="1727.443,1548.775 1727.443,1577.1 1669.163,1577.1 1674.063,1563.482 1669.163,1548.775 
							"/>
		</g>
	</g>
	<g>
		<g>
			<rect x="2282.091" y="1525.887" style="fill:#D86713;" width="172.903" height="172.902"/>
			<rect x="2335.403" y="1525.887" style="fill:#F1A34F;" width="172.903" height="172.902"/>
			<polygon style="fill:#C95C12;" points="2335.403,1525.887 2282.091,1558.207 2282.091,1525.887 			"/>
		</g>
		<rect x="2403.882" y="1562.615" style="fill:#4A75CB;" width="136.165" height="136.164"/>
		<rect x="2445.866" y="1562.615" style="fill:#699DEE;" width="136.165" height="136.164"/>
		
			<rect x="2458.877" y="1660.808" transform="matrix(0.9806 -0.1958 0.1958 0.9806 -279.7024 519.002)" style="fill:#EBF2F9;" width="51.526" height="26.186"/>
		<g>
			<polygon style="fill:#EBF2F9;" points="2470.37,1597.324 2421.171,1597.324 2423.239,1591.577 2421.171,1585.369 
				2469.91,1585.369 2466.921,1591.808 			"/>
			<polygon style="fill:#A6C7F9;" points="2445.771,1585.369 2445.771,1597.324 2421.171,1597.324 2423.239,1591.577 
				2421.171,1585.369 			"/>
		</g>
		<g>
			<polygon style="fill:#FFD5AB;" points="2364.499,1563.295 2306.356,1563.295 2308.801,1556.502 2306.356,1549.166 
				2363.955,1549.166 2360.423,1556.774 			"/>
			<polygon style="fill:#C95C12;" points="2335.428,1549.166 2335.428,1563.295 2306.356,1563.295 2308.801,1556.502 
				2306.356,1549.166 			"/>
		</g>
		<g>
			<polygon style="fill:#FFD5AB;" points="2364.499,1667.708 2306.356,1667.708 2308.801,1660.916 2306.356,1653.58 
				2363.955,1653.58 2360.423,1661.188 			"/>
			<polygon style="fill:#C95C12;" points="2335.428,1653.58 2335.428,1667.708 2306.356,1667.708 2308.801,1660.916 
				2306.356,1653.58 			"/>
		</g>
	</g>
	<g>
		<rect x="1891.433" y="1463.964" style="fill:#4A75CB;" width="239.199" height="239.198"/>
		<rect x="1965.186" y="1463.964" style="fill:#699DEE;" width="239.199" height="239.198"/>
		
			<rect x="2129.617" y="1483.79" transform="matrix(0.9806 -0.1958 0.1958 0.9806 -251.6843 451.7945)" style="fill:#EBF2F9;" width="58.433" height="29.696"/>
		<g>
			<polygon style="fill:#EBF2F9;" points="1996.945,1501.845 1932.113,1501.845 1934.838,1494.271 1932.113,1486.09 
				1996.338,1486.09 1992.4,1494.574 			"/>
			<polygon style="fill:#A6C7F9;" points="1964.529,1486.09 1964.529,1501.845 1932.113,1501.845 1934.838,1494.271 
				1932.113,1486.09 			"/>
		</g>
		<g>
			<polygon style="fill:#EBF2F9;" points="1996.945,1680.018 1932.113,1680.018 1934.838,1672.444 1932.113,1664.264 
				1996.338,1664.264 1992.4,1672.747 			"/>
			<polygon style="fill:#A6C7F9;" points="1964.529,1664.264 1964.529,1680.018 1932.113,1680.018 1934.838,1672.444 
				1932.113,1664.264 			"/>
		</g>
	</g>
	<g>
		<polygon style="fill:#EBF2F9;" points="1877.684,1200.331 1785.55,1200.331 1789.424,1189.567 1785.55,1177.942 
			1876.822,1177.942 1871.225,1189.999 		"/>
		<polygon style="fill:#A6C7F9;" points="1831.617,1177.942 1831.617,1200.331 1785.55,1200.331 1789.424,1189.567 
			1785.55,1177.942 		"/>
	</g>
	<rect x="3286.663" y="600.525" style="fill:#91B6ED;" width="478.333" height="16.824"/>
	<rect x="3173.827" y="459.176" style="fill:#699DEE;" width="621.44" height="16.823"/>
	<rect x="3286.663" y="766.923" style="fill:#91B6ED;" width="478.333" height="16.824"/>
	<rect x="3286.663" y="933.32" style="fill:#91B6ED;" width="478.333" height="16.824"/>
	<rect x="3286.663" y="1099.718" style="fill:#91B6ED;" width="478.333" height="16.823"/>
	<g>
		<g>
			<rect x="3303.174" y="631.141" style="fill:#D86713;" width="135.783" height="135.782"/>
			<rect x="3345.041" y="631.141" style="fill:#F1A34F;" width="135.783" height="135.782"/>
			<polygon style="fill:#C95C12;" points="3345.041,631.141 3303.174,656.522 3303.174,631.141 			"/>
		</g>
		<g>
			<rect x="3398.818" y="659.991" style="fill:#4A75CB;" width="106.932" height="106.932"/>
			<rect x="3431.789" y="659.991" style="fill:#699DEE;" width="106.932" height="106.932"/>
		</g>
		
			<rect x="3442.007" y="737.628" transform="matrix(0.9806 -0.1958 0.1958 0.9806 -79.4278 692.5515)" style="fill:#EBF2F9;" width="40.464" height="20.564"/>
		<g>
			<polygon style="fill:#EBF2F9;" points="3451.032,687.773 3412.396,687.773 3414.02,683.26 3412.396,678.385 3450.671,678.385 
				3448.323,683.44 			"/>
			<polygon style="fill:#A6C7F9;" points="3431.714,678.385 3431.714,687.773 3412.396,687.773 3414.02,683.26 3412.396,678.385 			
				"/>
		</g>
		<g>
			<polygon style="fill:#FFD5AB;" points="3367.891,660.264 3322.23,660.264 3324.149,654.93 3322.23,649.169 3367.463,649.169 
				3364.689,655.143 			"/>
			<polygon style="fill:#C95C12;" points="3345.061,649.169 3345.061,660.264 3322.23,660.264 3324.149,654.93 3322.23,649.169 			
				"/>
		</g>
		<g>
			<polygon style="fill:#FFD5AB;" points="3367.891,742.261 3322.23,742.261 3324.149,736.927 3322.23,731.166 3367.463,731.166 
				3364.689,737.141 			"/>
			<polygon style="fill:#C95C12;" points="3345.061,731.166 3345.061,742.261 3322.23,742.261 3324.149,736.927 3322.23,731.166 			
				"/>
		</g>
	</g>
	<g>
		<rect x="3369.122" y="493.837" style="fill:#4A75CB;" width="106.933" height="106.932"/>
		<rect x="3402.093" y="493.837" style="fill:#699DEE;" width="106.933" height="106.932"/>
		
			<rect x="3412.311" y="570.95" transform="matrix(0.9806 -0.1958 0.1958 0.9806 -47.3594 683.5096)" style="fill:#EBF2F9;" width="40.465" height="20.563"/>
		<g>
			<polygon style="fill:#EBF2F9;" points="3421.336,521.095 3382.699,521.095 3384.324,516.581 3382.699,511.706 3420.975,511.706 
				3418.628,516.762 			"/>
			<polygon style="fill:#A6C7F9;" points="3402.018,511.706 3402.018,521.095 3382.699,521.095 3384.324,516.581 3382.699,511.706 
							"/>
		</g>
		<g>
			<rect x="3523.224" y="524.945" style="fill:#D86713;" width="75.561" height="75.561"/>
			<rect x="3546.521" y="524.945" style="fill:#F1A34F;" width="75.561" height="75.561"/>
			<polygon style="fill:#C95C12;" points="3546.521,524.945 3523.224,539.069 3523.224,524.945 			"/>
			<g>
				<polygon style="fill:#FFD5AB;" points="3559.236,541.292 3533.827,541.292 3534.896,538.324 3533.827,535.118 3558.999,535.118 
					3557.455,538.443 				"/>
				<polygon style="fill:#C95C12;" points="3546.532,535.118 3546.532,541.292 3533.827,541.292 3534.896,538.324 3533.827,535.118 
									"/>
			</g>
			<g>
				<polygon style="fill:#FFD5AB;" points="3559.236,586.922 3533.827,586.922 3534.896,583.954 3533.827,580.748 3558.999,580.748 
					3557.455,584.073 				"/>
				<polygon style="fill:#C95C12;" points="3546.532,580.748 3546.532,586.922 3533.827,586.922 3534.896,583.954 3533.827,580.748 
									"/>
			</g>
		</g>
	</g>
	<g>
		<rect x="3304.454" y="844.544" style="fill:#4A75CB;" width="88.837" height="88.838"/>
		<rect x="3331.846" y="844.544" style="fill:#699DEE;" width="88.838" height="88.838"/>
		
			<rect x="3340.335" y="908.609" transform="matrix(0.9806 -0.1959 0.1959 0.9806 -114.6094 675.2626)" style="fill:#EBF2F9;" width="33.617" height="17.084"/>
		<g>
			<polygon style="fill:#EBF2F9;" points="3347.833,867.19 3315.734,867.19 3317.083,863.44 3315.734,859.39 3347.532,859.39 
				3345.582,863.59 			"/>
			<polygon style="fill:#A6C7F9;" points="3331.783,859.39 3331.783,867.19 3315.734,867.19 3317.083,863.44 3315.734,859.39 			"/>
		</g>
	</g>
	<g>
		<rect x="3431.454" y="844.544" style="fill:#4A75CB;" width="88.837" height="88.838"/>
		<rect x="3458.846" y="844.544" style="fill:#699DEE;" width="88.838" height="88.838"/>
		
			<rect x="3467.335" y="908.609" transform="matrix(0.9806 -0.1959 0.1959 0.9806 -112.1498 700.1357)" style="fill:#EBF2F9;" width="33.617" height="17.084"/>
		<g>
			<polygon style="fill:#EBF2F9;" points="3474.833,867.19 3442.734,867.19 3444.083,863.44 3442.734,859.39 3474.532,859.39 
				3472.582,863.59 			"/>
			<polygon style="fill:#A6C7F9;" points="3458.783,859.39 3458.783,867.19 3442.734,867.19 3444.083,863.44 3442.734,859.39 			"/>
		</g>
	</g>
	<g>
		<g>
			<rect x="3551.816" y="702.134" style="fill:#D86713;" width="64.789" height="64.789"/>
			<rect x="3571.793" y="702.134" style="fill:#F1A34F;" width="64.79" height="64.789"/>
			<polygon style="fill:#C95C12;" points="3571.793,702.134 3551.816,714.245 3551.816,702.134 			"/>
		</g>
		<g>
			<g>
				<rect x="3597.453" y="715.9" style="fill:#4A75CB;" width="51.023" height="51.023"/>
				<rect x="3613.186" y="715.9" style="fill:#699DEE;" width="51.022" height="51.023"/>
			</g>
		</g>
		
			<rect x="3618.061" y="753.219" transform="matrix(0.9806 -0.1958 0.1958 0.9806 -78.2235 725.1179)" style="fill:#EBF2F9;" width="19.308" height="9.812"/>
		<g>
			<polygon style="fill:#EBF2F9;" points="3622.367,729.431 3603.932,729.431 3604.707,727.277 3603.932,724.95 3622.195,724.95 
				3621.075,727.363 			"/>
			<polygon style="fill:#A6C7F9;" points="3613.149,724.95 3613.149,729.431 3603.932,729.431 3604.707,727.277 3603.932,724.95 			
				"/>
		</g>
		<g>
			<polygon style="fill:#FFD5AB;" points="3582.695,716.304 3560.908,716.304 3561.824,713.759 3560.908,711.01 3582.492,711.01 
				3581.168,713.86 			"/>
			<polygon style="fill:#C95C12;" points="3571.803,711.01 3571.803,716.304 3560.908,716.304 3561.824,713.759 3560.908,711.01 			
				"/>
		</g>
		<g>
			<polygon style="fill:#FFD5AB;" points="3582.695,755.43 3560.908,755.43 3561.824,752.884 3560.908,750.135 3582.492,750.135 
				3581.168,752.986 			"/>
			<polygon style="fill:#C95C12;" points="3571.803,750.135 3571.803,755.43 3560.908,755.43 3561.824,752.884 3560.908,750.135 			
				"/>
		</g>
	</g>
	<polygon style="fill:#699DEE;" points="3696.777,815.16 3669.477,933.703 3744.914,933.703 3772.215,815.16 	"/>
	<polygon style="fill:#FFFFFF;" points="3647.924,815.16 3620.623,933.703 3696.06,933.703 3723.36,815.16 	"/>
	<g>
		<path style="fill:#F1A34F;" d="M3668.746,878.6l0.035,51.502c0.002,1.928-1.584,3.54-3.537,3.542l-85.674,0.06
			c-1.953,0.001-3.54-1.608-3.542-3.537l-0.036-51.501c-0.001-1.953,1.585-3.541,3.537-3.543l85.675-0.06
			C3667.156,875.062,3668.744,876.648,3668.746,878.6z"/>
		<path style="fill:#D86713;" d="M3668.746,878.6l0.001,1.489l-46.36,24.294l-46.395-25.718c-0.001-1.953,1.585-3.541,3.537-3.543
			l85.675-0.06C3667.156,875.062,3668.744,876.648,3668.746,878.6z"/>
		<path style="fill:#D86713;" d="M3662.065,924.892l-16.069,0.011c-0.783,0.001-1.423,0.642-1.423,1.425
			c0.001,0.783,0.642,1.423,1.425,1.423l16.069-0.011c0.783-0.001,1.423-0.642,1.423-1.425
			C3663.489,925.531,3662.849,924.891,3662.065,924.892z"/>
	</g>
	<g>
		<path style="fill:#F1A34F;" d="M3652.939,878.218c-0.001-1.953-1.589-3.539-3.541-3.537l-85.675,0.059
			c-1.952,0.002-3.538,1.589-3.536,3.543l0.035,51.502c0.001,1.928,1.59,3.538,3.542,3.536l85.675-0.059
			c1.952-0.001,3.537-1.613,3.536-3.542L3652.939,878.218z"/>
		<path style="fill:#D86713;" d="M3652.939,878.218l0.002,1.489L3606.581,904l-46.394-25.718c-0.002-1.953,1.584-3.541,3.537-3.543
			l85.674-0.059C3651.351,874.679,3652.938,876.265,3652.939,878.218z"/>
		<path style="fill:#D86713;" d="M3646.26,924.509l-16.069,0.011c-0.783,0-1.423,0.642-1.423,1.425
			c0.001,0.783,0.643,1.423,1.425,1.422l16.069-0.011c0.783,0,1.424-0.642,1.423-1.425
			C3647.684,925.149,3647.043,924.509,3646.26,924.509z"/>
	</g>
	<path style="fill:#283250;" d="M4756.703,1704.078H250.002c-1.396,0-2.537-1.143-2.537-2.538v-0.209
		c0-1.396,1.142-2.537,2.537-2.537h4506.701c1.396,0,2.538,1.142,2.538,2.537v0.209
		C4759.241,1702.936,4758.1,1704.078,4756.703,1704.078z"/>
</g>
</svg>
