<?xml version="1.0" encoding="utf-8"?>
<!-- Generator: Adobe Illustrator 27.5.0, SVG Export Plug-In . SVG Version: 6.00 Build 0)  -->
<svg version="1.1" id="_x3C_Layer_x3E_" xmlns="http://www.w3.org/2000/svg" xmlns:xlink="http://www.w3.org/1999/xlink" x="0px"
	 y="0px" viewBox="0 0 3200 1600" style="enable-background:new 0 0 3200 1600;" xml:space="preserve">
<rect style="fill:none;" width="3200" height="1600"/>
<g>
	<path style="fill:#EBF3FA;" d="M2947.178,1468.065c-0.008,0.092-0.027,0.175-0.045,0.266l-15.717-0.055l-743.409-2.427
		l-1146.258-3.746l-145.427-0.477l-413.327-1.355c0,0-156.262-275.018-63.114-551.803c9.186-27.321,20.8-54.643,35.225-81.726
		c9.607-18.024,20.461-35.941,32.67-53.671c1.255-1.815,2.528-3.628,3.81-5.441c17.513-24.803,37.744-49.229,60.99-73.062
		c177.355-181.814,340.906-206.489,475.096-194.125c107.068,9.847,195.443,43.285,257.203,39.256
		c139.153-9.086,183.775-295.387,595.427-381.747c82.138-17.228,174.332-27.239,266.407-27.34
		c257.387-0.302,513.949,76.725,547.736,289.396c4.873,30.691,5.102,64.178,0.037,100.676c-3.563,25.793-9.792,53.067-18.905,81.919
		c-16.889,53.543-43.716,112.454-81.973,177.125c-122.145,206.454,37.689,242.421,182.108,324.293
		c32.111,18.209,63.463,38.688,90.774,63.812c9.452,8.7,18.438,17.951,26.8,27.871c11.66,13.839,22.119,28.96,31.004,45.629
		C2953.755,1296.619,2965.881,1368.92,2947.178,1468.065z"/>
	<path style="fill:#C1E0E4;" d="M2694.483,520.688c-3.204,25.799-8.795,53.068-16.971,81.873c-0.642,0.031-1.293,0.042-1.934,0.042
		c-5.465-0.042-10.846-1.324-16.12-3.983c-28.742-14.512-49.57-35.361-66.353-57.061c-2.206-31.222,3.899-70.598,3.899-70.598
		c-3.857,9.941-18.958,23.635-29.981,32.671c-23.371-36.475-41.194-65.73-74.076-58.313
		c-60.971,13.746-136.822-4.991-158.197-67.328c13.641-24.097,38.114-39.723,38.114-39.723
		c-17.896,1.744-34.741,8.806-47.299,15.595c-27.007-51.24-92.854-65.89-92.854-65.89c-3.026-0.841-5.959-1.786-8.796-2.837
		c0.179-37.022,9.521-71.953,9.521-71.953c-25.798,13.472-37.884,35.256-43.517,51.944c-42.717-37.537-46.742-103.09-43.211-134.511
		c257.389-0.305,513.947,76.724,547.733,289.398C2698.813,450.741,2699.023,484.244,2694.483,520.688z"/>
	<polygon style="fill:#DDEAF4;" points="2328.343,1068.299 2328.343,954.354 2319.797,954.354 2319.797,717.487 2188.384,717.487 
		2188.384,954.354 2032.66,954.354 2032.66,801.709 1795.553,801.709 1795.553,516.342 1646.213,516.342 1646.213,887.447 
		1599.61,887.447 1599.61,571.485 1479.739,571.485 1479.739,887.447 1203.575,887.447 1203.575,1176.484 1063.392,1176.484 
		1063.392,981.068 932.697,981.068 932.697,1176.484 894.865,1176.484 894.865,769.574 750.932,769.574 750.932,1176.484 
		699.24,1176.484 699.24,1465.229 750.932,1465.229 894.865,1465.229 1203.575,1465.229 1222.492,1465.229 1479.739,1465.229 
		1599.61,1465.229 1802.668,1465.229 1802.668,1463.711 1914.416,1463.711 2032.66,1463.711 2188.384,1463.711 2254.09,1463.711 
		2319.797,1463.711 2328.343,1463.711 2600.356,1463.711 2600.356,1068.299 	"/>
	<path style="fill:#C7DFE2;" d="M933.818,1387.779c-0.746,11.79-3.404,22.394-7.261,31.83
		c-7.409,18.212-19.231,32.115-30.234,42.014l-413.326-1.355c0,0-156.265-275.012-63.116-551.8
		c23.393,11.917,51.504,29.057,78.227,52.491c-26.219,24.17-45.975,58.617-45.975,58.617c31.652-22.1,57.43-28.437,75.432-29.183
		c22.951,26.219,42.738,58.207,54.551,96.774c46.5,151.85,139.46,136.14,222.342,161.192c4.509,1.366,8.922,2.816,13.241,4.319
		c-25.6,20.912-52.596,55.044-52.596,55.044c51.556-24.958,89.134-27.711,111.622-25.62c14.702,10.299,26.893,21.942,36.192,34.753
		c-29.151-5.56-75.115,0.746-86.476,1.828c35.225-2.628,84.732,18.821,102.123,28.194
		C932.884,1359.721,934.713,1373.403,933.818,1387.779z"/>
	<path style="fill:#C7DFE2;" d="M2931.416,1468.276v0.055H1039.67c0.605-2.088,1.301-4.167,2.079-6.228
		c18.603-48.891,85.976-87.35,85.976-87.35c212.215-87.973,413.456,77.137,561.832-30.252
		c148.385-107.38,350.688-104.349,430.747-72.384s284.003,31.085,405.14-44.064c87.156-54.056,254.18-60.733,341.044-60.22
		c22.669,20.846,42.563,44.888,57.804,73.5L2931.416,1468.276z"/>
	<path style="fill:#A8D29F;" d="M1176.939,1465.743H471.826c-1.641-3.899-3.468-8.323-5.443-13.241
		c-16.506-41.215-43.227-117.393-59.032-211.939c35.038,2.575,146.987,16.436,217.854,89.724
		c84.883,87.8,193.345,95.324,275.867,82.776c9.75-1.481,20.823-2.438,32.785-2.911
		C1023.156,1406.663,1162.38,1430.35,1176.939,1465.743z"/>
	<g>
		<path style="fill:#A8D29F;" d="M1027.672,500.447c-20.355,10.845-36.286,26.818-48.067,42.066
			c-14.922,19.315-23.181,37.464-25.357,42.56c-0.389,0.925-0.589,1.419-0.589,1.419c-0.179,1.388-0.368,2.764-0.578,4.131
			c-1.219,8.091-2.974,15.773-5.223,23.055c-47.362-9.258-82.157,6.569-82.157,6.569c30.108-1.976,56.043,14.134,68.738,23.822
			c-40.164,67.519-133.198,90.438-229.92,91.488c-0.431-10.477-3.331-26.565-16.057-35.613c0.178,0.631,5.938,20.334-5.769,35.604
			c-38.252,0.441-75.358,9.962-108.376,22.866c-0.011,0.011-0.021,0.011-0.021,0.011c-17.676,6.905-34.174,14.786-49.033,22.783
			c-0.515,0.273-1.03,0.557-1.545,0.83c-10.688,5.801-20.513,11.633-29.298,17.182c-17.907,11.317-31.505,21.417-39.313,27.522
			c9.604-18.022,20.46-35.94,32.671-53.668c1.251-1.818,2.521-3.626,3.805-5.443c17.517-24.801,37.747-49.233,60.992-73.057
			C729.93,512.753,893.486,488.079,1027.672,500.447z"/>
	</g>
	<g>
		<path style="fill:#A2C5F9;" d="M1433.455,311.475h-10.91l0.096-0.856l3.292-29.099c0.111-0.938,0.901-1.646,1.847-1.646
			c0.117,0,0.229,0.007,0.347,0.022c0.612,0.074,1.173,0.34,1.616,0.738c0.518,0.473,0.864,1.129,0.938,1.875L1433.455,311.475z"/>
		<path style="fill:#AFCDFB;" d="M1423.599,304.873l-0.39,0.01l2.724-23.363c0.111-0.938,0.901-1.646,1.847-1.646
			c0.117,0,0.229,0.007,0.347,0.022c0.103,0.089,0.199,0.178,0.288,0.273c0.479,0.517,0.768,1.196,0.775,1.949l0.158,16.796
			C1429.378,302.137,1426.819,304.788,1423.599,304.873z"/>
		<rect x="1419.371" y="440.957" style="fill:#A2C5F9;" width="21.038" height="928.893"/>
		<rect x="1419.371" y="440.957" style="fill:#AFCDFB;" width="9.714" height="928.893"/>
		<rect x="1396.385" y="1221.617" style="fill:#A2C5F9;" width="67.004" height="245.773"/>
		<rect x="1396.385" y="1221.617" style="fill:#AFCDFB;" width="39.935" height="245.773"/>
		<path style="fill:#A2C5F9;" d="M1466.503,325.492c0,11.479-17.235,20.779-38.503,20.779c-1.623,0-3.219-0.051-4.791-0.162
			c-19-1.27-33.712-10.017-33.712-20.617c0-10.6,14.712-19.34,33.712-20.609c1.572-0.11,3.168-0.162,4.791-0.162
			C1449.268,304.721,1466.503,314.022,1466.503,325.492z"/>
		<path style="fill:#AFCDFB;" d="M1446.572,325.492c0,9.25-9.625,17.192-23.363,20.617c-19-1.27-33.712-10.017-33.712-20.617
			c0-10.6,14.712-19.34,33.712-20.609C1436.947,308.301,1446.572,316.243,1446.572,325.492z"/>
		<polygon style="fill:#AFCDFB;" points="1463.309,459.278 1396.308,459.278 1372.686,345.533 1483.314,345.533 		"/>
		<rect x="1366.709" y="336.964" style="fill:#A2C5F9;" width="122.582" height="10.91"/>
		<rect x="1366.709" y="336.964" style="fill:#AFCDFB;" width="77.059" height="10.91"/>
		<path style="fill:#A2C5F9;" d="M1407.361,1221.617h42.813l-6.267-19.005c-0.555-1.685-2.129-2.823-3.903-2.823h-20.058
			c-2.176,0-4.137,1.313-4.965,3.325L1407.361,1221.617z"/>
		<polygon style="fill:#C7DCF9;" points="1380.603,351.078 1475.088,351.078 1456.635,453.315 1402.378,453.315 		"/>
		<path style="fill:#C7DCF9;" d="M1392.044,326.718c0,0,7.196-15.723,21.407-15.243c0,0-9.043,8.046-8.212,15.243
			C1406.068,333.915,1392.044,326.718,1392.044,326.718z"/>
		<polygon style="fill:#A2C5F9;" points="1481.459,336.964 1374.542,336.964 1383.297,324.496 1473.146,324.496 		"/>
		<polygon style="fill:#AFCDFB;" points="1455.128,336.964 1374.542,336.964 1383.297,324.496 1446.815,324.496 		"/>
		<polygon style="fill:#D2E4F9;" points="1386.877,354.646 1408.529,354.646 1414.834,450.115 1408.529,450.115 		"/>
	</g>
	<path style="fill:#B6D5D8;" d="M2363.678,1212.313l4.885-27.773h1.592v-2.721h-1.952l-2.071-3.108h-1.668
		c-0.223-2.526-3.801-4.578-8.386-4.888l-0.534-5.579c-0.019-0.187-0.104-0.351-0.233-0.468c-0.111-0.1-0.25-0.165-0.403-0.185
		c-0.029-0.003-0.057-0.005-0.087-0.005c-0.235,0-0.432,0.177-0.46,0.41l-0.679,5.825c-4.588,0.306-8.172,2.359-8.394,4.889h-1.557
		l-2.183,3.108h-1.952v2.721h1.61l5.769,27.773h5.749v184.623c-0.483,0.053-0.906,0.362-1.094,0.818l-1.9,4.613h-2.736v61.272h9.956
		h6.748v-61.272h-3.294l-1.563-4.738c-0.128-0.388-0.472-0.656-0.872-0.695v-184.621H2363.678z"/>
	<path style="fill:#A8D29F;" d="M2924.291,1241.334c-8.885-16.669-19.344-31.79-31.004-45.629
		c-216.18,8.728-244.426,180.615-335.567,179.91c-3.6-0.027-7.107,0.063-10.515,0.273c-0.001,0.001-0.003,0.001-0.003,0.001
		c-0.028-19.759-2.212-47.185-14.402-43.64c-11.797,3.43-3.38,27.266,4.542,44.573h-0.001c-2.784,0.366-5.505,0.807-8.151,1.319
		c0,0-0.007,0.001-0.01,0.002c-19.242-21.333-45.65-44.706-65.982-40.308c-20.733,4.485,12.357,27.572,44.413,46.479
		c-51.226,19.766-72.53,67.456-78.016,82.156l517.583,1.594C2965.881,1368.92,2953.755,1296.619,2924.291,1241.334z"/>
	<g>
		<path style="fill:#82B378;" d="M1566.692,1463.641c4.438-7.318,4.966-14.71-1.081-21.514
			c-14.453-16.26-55.202,3.852-84.125,21.514H1566.692z"/>
		<path style="fill:#82B378;" d="M1470.088,1463.641c27.487-30.787,71.026-87.229,43.026-109.008
			c-28.515-22.178-86.09,60.424-115.68,107.672c2.024-36.907-0.847-85.986-32.288-74.808c-32.628,11.602-5.651,46.755,13.689,76.144
			H1470.088z"/>
	</g>
	<path style="fill:#82B378;" d="M2954.217,1343.128c-0.012-0.126-0.031-0.263-0.043-0.389c-17.306-1.054-37.462-2.839-69.395,10.174
		c5.983-13.532,10.855-29.762,7.754-42.571c-5.598-23.131-20.055,9.984-22.37,49.191c-3.06,1.517-6.217,3.162-9.478,4.942
		c1.851-40.676-2.864-89.41-33.473-102.683c-37.355-16.199-11.915,64.378,8.313,117.888c-3.599,2.366-7.305,4.884-11.118,7.549
		c-11.497-24.686-33.035-62.751-60.655-74.18c-37.433-15.488-3.464,40.511,49.807,81.96c-12.317,9.054-25.702,19.608-40.313,31.936
		c-11.286,9.531-25.557,14.911-40.321,14.869c-14.376-0.053-32.818-3.331-51.755-15.354c-71.092-45.146-123.226,37.18-123.226,37.18
		h389.535c0.096-0.504,0.189-1.009,0.284-1.513C2956.286,1417.182,2957.967,1377.827,2954.217,1343.128z"/>
	<g>
		<path style="fill:#F49540;" d="M2606.24,997.096c0,0-15.193,4.922-19.545,10.418c-4.352,5.495,2.975,26.281,2.975,26.281
			L2606.24,997.096z"/>
		<path style="fill:#EFA26F;" d="M2614.313,1004.023c0,0-15.764,25.488-7.016,35.63c13.398,15.532,54.031,27.906,49.651,35.274
			c-2.146,3.61-28.869,47.958-28.869,47.958s-9.384,6.974-10.354,8.271c-0.97,1.297-0.632,7.025,5.527,9.61
			c6.159,2.584,6.854,0.502,10.252-2.592s2.469-10.841,2.563-11.257c0,0,40.14-38.975,46.011-51.755
			C2688.497,1061.192,2614.313,1004.023,2614.313,1004.023z"/>
		<path style="fill:#FFB27D;" d="M2673.068,1149.771c-11.466-25.728-16.962-33-17.154-41.097c-0.045-2.208,0.11-5.523,0.596-9.607
			c0.595-5.074,1.694-11.339,3.498-18.172c0.019-0.055,0.037-0.128,0.056-0.21c0.146-0.597,0.458-1.906,0.843-3.793
			c3.123-15.516,11.485-69.755-18.52-81.111c-0.093-0.012-0.178-0.014-0.268-0.021c-3.288-1.32-8.578-13.015-8.512-31.594
			l-1.47,0.29l-24.711,4.893c0,0,0.562,7.777,0.578,15.102c0.017,6.151-0.356,11.985-1.765,12.644c0,0-7.414,6.653-12.461,16.225
			c-5.613,10.651-11.76,25.225-12.676,39.246c-0.916,14.06,3.737,23.915,5.89,37.937c0.036,0.248,0.073,0.504,0.11,0.761
			c1.008,6.934,1.363,14.893,0.146,24.857c-0.952,7.858-2.895,16.972-6.282,27.807
			C2563.977,1198.25,2679.407,1163.995,2673.068,1149.771z"/>
		<path style="fill:#FFB27D;" d="M2645.373,1199.916c0,0-0.01,0.027-0.02,0.083c-0.018,0.046-0.027,0.101-0.046,0.175
			c-1.969,7.619-4.359,15.506-7.006,23.418c-4.487,13.383-9.709,26.828-14.838,39.129c-0.622,1.501-1.245,2.984-1.868,4.441
			c-10.038,23.611-19.316,42.223-21.588,46.692c0,0.01,0,0.01-0.01,0.019c-0.329,0.65-0.32,1.383-0.191,2.098
			c12.475,67.126-43.029,131.074-43.029,131.074l-11.389,3.46c0,0,22.992-109.118,18.45-130.936
			c-4.644-22.293,2.775-71.788,10.799-113.489c0.833-4.322,1.667-8.563,2.5-12.676c4.103-20.287,8.052-37.598,10.313-47.251
			c1.236-5.239,1.969-8.226,1.969-8.226l25.188,6.019l34.749,8.298C2652.379,1163.967,2650.189,1181.104,2645.373,1199.916z"/>
		<g>
			<path style="fill:#485CA6;" d="M2562.128,1463.57h-6.888c-2.308-0.364-4.011-1.031-6.377-1.341
				c-3.594-0.472-5.248,1.002-5.577,1.341c-0.044,0.044-0.064,0.068-0.064,0.068h-29.259c-0.737-1.051-0.03-3.485,0.662-5.277
				c0.467-1.218,1.482-2.141,2.739-2.504c3.103-0.898,9.22-1.699,14.821-6.77c3.152-2.848,15.219-10.473,15.219-10.473l0.064-0.015
				c0.266,0.005,1.526,0.394,7.016,5.027c2.838,2.391,7.674-3.378,7.674-3.378s0.907,0.752,1.586,2.15
				c0.544,1.104,0.941,2.621,0.628,4.492c-0.437,2.637,0.972,7.535,2.097,10.85c0.682,2.008,1.256,3.432,1.256,3.432
				S2568.054,1462.828,2562.128,1463.57z"/>
			<path style="fill:#A9453D;" d="M2563.744,1442.4c-1.646,1.159-5.116,3.441-7.419,3.741c-3.107,0.407-8.921-7.526-8.921-7.526
				l0.064-0.015c0.266,0.005,1.526,0.394,7.016,5.027c2.838,2.391,7.674-3.378,7.674-3.378S2563.065,1441.002,2563.744,1442.4z"/>
			<path style="fill:#A9453D;" d="M2562.128,1463.57h-6.888c-2.308-0.364-4.011-1.031-6.377-1.341
				c-3.594-0.472-5.248,1.002-5.577,1.341c-0.044,0.044-0.064,0.068-0.064,0.068h-29.259c-0.737-1.051-0.03-3.485,0.662-5.277
				c0.889-0.791,1.139,3.431,1.63,4.104c0.491,0.672,23.869,0.245,25.22-0.737c1.351-0.981,5.4-2.699,11.046-1.35
				c4.915,1.174,12.156-1.837,13.948-2.637c0.682,2.008,1.256,3.432,1.256,3.432S2568.054,1462.828,2562.128,1463.57z"/>
		</g>
		<path style="fill:#EFA26F;" d="M2645.373,1199.916c0,0-0.01,0.027-0.02,0.083c-0.018,0.046-0.027,0.101-0.046,0.175
			c-1.969,7.619-4.359,15.506-7.006,23.418c-4.487,13.383-9.709,26.828-14.838,39.129c-0.622,1.501-1.245,2.984-1.868,4.441
			c0,0-34.609-35.253-33.567-63.17c0.771-20.683-2.839-48.186-0.577-57.839c8.023-1.347,17.402-2.052,27.156-2.207l34.749,8.298
			C2652.379,1163.967,2650.189,1181.104,2645.373,1199.916z"/>
		<path style="fill:#FFB27D;" d="M2618.535,1218.836c0,0,30.062,107.652,43.399,114.279c55.13,27.396,108.474,68.142,108.474,68.142
			l4.709-13.075c0,0-38.292-64.072-78.291-80.253c-14.44-5.842-2.135-106.506-23.502-134.696
			C2651.956,1145.041,2618.535,1218.836,2618.535,1218.836z"/>
		<g>
			<path style="fill:#485CA6;" d="M2792.323,1398.357l-3.899,5.677c-1.606,1.696-3.121,2.722-4.716,4.497
				c-2.424,2.695-2.146,4.893-2.054,5.356c0.012,0.061,0.021,0.091,0.021,0.091l-16.567,24.117
				c-1.284,0.012-2.891-1.949-3.976-3.534c-0.739-1.074-0.925-2.435-0.513-3.676c1.017-3.066,3.82-8.562,2.813-16.05
				c-0.563-4.21-0.013-18.475-0.013-18.475l0.023-0.061c0.154-0.216,1.188-1.036,8.116-2.936c3.577-0.985,1.561-8.237,1.561-8.237
				s1.134-0.323,2.671-0.09c1.22,0.177,2.694,0.708,4.059,2.026c1.925,1.853,6.762,3.465,10.13,4.415
				c2.041,0.575,3.54,0.908,3.54,0.908S2795.068,1393.053,2792.323,1398.357z"/>
			<path style="fill:#A9453D;" d="M2775.79,1385.038c0.024,2.012-0.061,6.166-1.117,8.233c-1.424,2.792-11.254,3.09-11.254,3.09
				l0.023-0.061c0.154-0.216,1.188-1.036,8.116-2.936c3.577-0.985,1.561-8.237,1.561-8.237S2774.253,1384.805,2775.79,1385.038z"/>
			<path style="fill:#A9453D;" d="M2792.323,1398.357l-3.899,5.677c-1.606,1.696-3.121,2.722-4.716,4.497
				c-2.424,2.695-2.146,4.893-2.054,5.356c0.012,0.061,0.021,0.091,0.021,0.091l-16.567,24.117
				c-1.284,0.012-2.891-1.949-3.976-3.534c-0.148-1.181,3.474,1.004,4.306,0.98c0.833-0.024,13.719-19.535,13.674-21.204
				c-0.045-1.668,0.832-5.98,5.142-9.869c3.75-3.386,5.37-11.059,5.726-12.989c2.041,0.575,3.54,0.908,3.54,0.908
				S2795.068,1393.053,2792.323,1398.357z"/>
		</g>
		<path style="fill:#A9453D;" d="M2674.574,1011.271c-0.344-5.852,0.501-11.394,0.501-11.394
			c4.419,11.262,10.496,16.977,14.812,19.785c1.419,0.344,2.538,0.48,3.107,0.344c2.391-0.575,4.669-1.336,6.844-2.239
			c-6.387-4.925-12.582-12.721-12.961-13.206c5.739,5.287,12.715,8.91,17.536,11.012c11.876-6.451,20.016-17.001,24.429-23.948
			c-30.477-9.622-39.446-28.73-39.446-28.73c27.091,21.627,39.084,22.672,43.286,21.926c0.055-0.107,0.078-0.161,0.078-0.161
			c-40.747-10.801-52.039-58.422-65.785-75.114c-13.746-16.692-30.438-3.928-30.438-3.928S2638.303,964.677,2674.574,1011.271z"/>
		<path style="fill:#A9453D;" d="M2597.06,920.1c0,0,29.211-35.103,44.676-12.643c0,0,11.536,4.787,15.71,24.424
			c4.258,20.037-9.066,35.266-15.955,31.503c-4.419-2.414-7.764,5.317-7.764,5.317L2597.06,920.1z"/>
		<path style="fill:#EFA26F;" d="M2607.427,969.35c0,0,0.562,7.777,0.578,15.102c13.828-0.39,21.138-13.005,24.133-19.996
			L2607.427,969.35z"/>
		<path style="fill:#A9453D;" d="M2634.689,961.766c0,0,7.247-11.45,8.987-21.241c1.241-6.99-2.319-32.9-28.356-29.168
			c0,0-7.562,0.744-14.67,5.546c-5.653,3.818-13.812,12.061-4.689,34.67l2.369,7.638L2634.689,961.766z"/>
		<path style="fill:#FFB27D;" d="M2602.808,976.287c0,0,32.718,0.539,32.741-19.841c0.021-20.38,4.26-34.036-16.629-35.242
			c-20.888-1.206-24.955,6.566-26.617,13.366C2590.641,941.371,2594.298,975.621,2602.808,976.287z"/>
		<path style="fill:#A9453D;" d="M2604.019,920.705c0,0,8.958,23.909,22.706,27.445c13.747,3.535,19.711-0.148,19.711-0.148
			s-10.545-8.378-12.734-23C2633.701,925.002,2610.776,909.325,2604.019,920.705z"/>
		<path style="fill:#A9453D;" d="M2606.239,922.646c0,0-6.69,5.337-8.321,10.527c-1.631,5.189-2.364,15.873-5.479,15.51
			c0,0-6.749-16.252,0.836-25.444C2601.318,913.49,2606.239,922.646,2606.239,922.646z"/>
		<path style="fill:#A9453D;" d="M2604.997,923.454c0,0,6.381,25.037,23.728,33.056c0,0-17.347-15.383-18.818-31.91
			C2608.433,908.071,2604.997,923.454,2604.997,923.454z"/>
		<path style="fill:#2B478B;" d="M2630.645,1210.248c-0.338,1.301-2.115,1.969-4.882,2.144c-2.317,0.137-5.321-0.083-8.737-0.577
			c-8.536-1.246-19.646-4.241-28.997-7.822c-0.339-0.128-0.679-0.256-1.008-0.385l-0.101-0.046
			c-8.243-3.242-14.938-6.905-17.009-10.157c6.329-31.277,11.056-49.477,11.056-49.477l61.172,8.316
			C2645.162,1163.967,2635.463,1191.436,2630.645,1210.248z"/>
		<path style="fill:#233862;" d="M2625.763,1212.392c-2.317,0.137-5.321-0.083-8.737-0.577c-8.536-1.246-19.646-4.241-28.997-7.822
			c2.216-19.783,18.281-27.037,18.281-27.037S2622.622,1206.053,2625.763,1212.392z"/>
		<path style="fill:#2B478B;" d="M2668.693,1138.076c0,0,13.466,17.046,16.756,69.522c0,0-20.603,4.2-25.021,2.892
			c-4.418-1.309-12.109-20.129-12.109-20.129s4.255,18.492,0.164,21.93c-4.091,3.436-33.399,8.121-33.399,8.121l-27.314-69.98
			C2587.769,1150.432,2632.407,1146.913,2668.693,1138.076z"/>
		<path style="fill:#233862;" d="M2668.693,1138.076c0,0-37.558,18.901-63.332,13.256c-25.774-5.646-24.395-7.404-24.395-7.404
			l4.127-15.347c0,0,13.64,7.776,31.56,7.041c17.919-0.737,44.044-12.273,44.044-12.273L2668.693,1138.076z"/>
		<path style="fill:#EFA26F;" d="M2587.249,1116.121c1.218-9.965,0.861-17.924-0.146-24.857c-0.037-0.257-0.074-0.513-0.11-0.761
			c9.955-4.57,18.51-7.886,18.51-7.886l38.011,3.407C2643.514,1086.024,2625.25,1110.553,2587.249,1116.121z"/>
		<path style="fill:#F49540;" d="M2660.063,1080.686c-0.019,0.082-0.037,0.155-0.055,0.21c-3.38,1.228-9.178,3.188-16.495,5.129
			c-7.392,1.97-16.35,3.911-25.938,5.056c-9.819,1.182-20.306,1.521-30.472,0.184c-1.558-10.771-4.653-19.051-5.734-28.512
			c-0.366-3.215-0.504-6.559-0.266-10.186c0.284-4.295,1.054-8.646,2.152-12.914c2.482-9.662,10.688-33.21,22.98-42.562
			c-12.594,21.11,13.144,16.916,22.687,7.208c4.451-4.524,9.122-7.107,13.464-8.518
			C2676.037,1008.521,2661.438,1075.189,2660.063,1080.686z"/>
		<path style="fill:#EF8220;" d="M2643.514,1086.024c-7.392,1.97-16.35,3.911-25.938,5.056c-3.124-2.527-2.867-6.503-2.867-6.549
			c0-0.082,36.031-50.74,36.031-50.74S2657.48,1071.407,2643.514,1086.024z"/>
		<path style="fill:#FFB27D;" d="M2641.736,1014.346c-6.549-0.055-12.896,1.219-15.891,5.624c-3.783,5.551-6.494,13.83-8.701,22.385
			c-4.562,17.558-7.062,36.242-12.604,34.676c-4.039-1.146-53.772-15.552-53.772-15.552v0.003c-0.001-0.002-0.002-0.006-0.002-0.006
			s-9.154-7.271-10.657-7.875c-1.504-0.604-6.952,1.198-7.864,7.815c-0.911,6.617,1.279,6.751,5.144,9.238s11.11-0.404,11.538-0.42
			h0.001c0.011,0.006,47.995,28.75,61.852,31.131c8.435,1.457,23.373-24.664,34.96-48.121c3.297-6.658,6.31-13.098,8.838-18.629
			C2658.864,1025.2,2652.076,1014.428,2641.736,1014.346z"/>
		<path style="fill:#F49540;" d="M2654.577,1034.615c-2.528,5.531-5.541,11.971-8.838,18.629
			c-16.944-1.246-24.886-6.402-28.595-10.89c2.207-8.555,4.918-16.834,8.701-22.385c2.995-4.405,9.342-5.679,15.891-5.624
			C2652.076,1014.428,2658.864,1025.2,2654.577,1034.615z"/>
	</g>
	<g>
		<polygon style="fill:#CC6E21;" points="570.584,1188.474 684.287,1185.89 622.908,1120.443 563.206,1119.545 		"/>
		<path style="fill:#EE9849;" d="M1255.411,1463.643c-0.522,0.018-1.045,0.026-1.576,0.026c-6.723,0-13.583-0.009-20.462-0.026
			c-56.089-0.147-114.038-0.807-114.038-0.807s-1.31,0.485-3.554,0.807c-2.061,0.301-4.9,0.466-8.225,0
			c-2.198-0.303-4.606-0.89-7.145-1.896c-13.243-5.248-29.848-22.018-37.25-70.982c-2.673-17.668-5.422-38.285-8.104-59.964
			c-0.642-5.147-1.282-10.359-1.905-15.606c-0.514-4.214-1.008-8.454-1.512-12.704c-0.641-5.486-1.282-11-1.904-16.486
			c-1.182-10.304-2.327-20.553-3.426-30.563c-1.337-12.219-2.61-24.079-3.782-35.234c-4.708-44.742-7.877-78.209-7.877-78.209
			s2.564-26.771,23.786-37.553c3.947-2.005,8.526-3.461,13.857-4.084c27.705-3.252,40.849,10.835,42.424,37.378
			c0.752,12.795,2.556,50.163,10.9,85.307c2.691,11.329,6.071,22.431,10.313,32.396c5.34,12.575,12.071,23.364,20.543,30.563
			c7.227,6.128,15.718,9.653,25.71,9.452c6.164-0.129,12.218-0.339,18.144-0.586c39.686-1.668,73.557-4.854,93.577,7.62
			c2.043,1.264,3.938,2.702,5.679,4.313c3.426,3.169,6.266,7.035,8.453,11.742
			C1318.223,1340.453,1315.319,1461.553,1255.411,1463.643z"/>
		<path style="fill:#F1A34F;" d="M1100.412,1461.746c-1.172,1.42-1.813,2.189-1.813,2.189H750.227l-13.866-23.43
			c7.711,0.027,15.23,0.046,22.237,0.046c45.529,0,48.177-92.451,40.566-108.836c-11.76-25.27-62.592-16.733-106.95-15.846
			c-44.365,0.897-63.123-69.049-71.009-115.742c-3.618-21.376-9.004-68.49-25.124-75.672l-5.596-24.097h468.538
			c0,0-0.221,1.438-0.586,4.084c-3.774,27.276-22.797,182.677,29.346,205.969c1.794,0.806,3.681,1.456,5.659,1.933
			c64.672,15.671,89.071,12.383,93.999,25.663C1191.966,1350.198,1113.419,1446.002,1100.412,1461.746z"/>
		<path style="fill:#F1A34F;" d="M1021.375,1141.993c0,0,3.609-37.639,37.646-41.635c27.709-3.252,40.853,10.838,42.427,37.382
			c1.574,26.543,7.606,158.923,67.461,157.715c59.854-1.208,110.007-11.01,125.859,23.093
			c10.271,22.095,7.225,145.121-54.21,145.121s-141.96,0.268-141.96,0.268s-35.918-2.63-48.709-73.173
			C1034.041,1303.354,1021.375,1141.993,1021.375,1141.993z"/>
		<path style="fill:#EE9849;" d="M1299.291,1330.8l-468.679,15.136c0,0-12.727-13.094-30.203-10.501
			c-0.375-1.484-0.787-2.739-1.245-3.719c-11.76-25.27-62.592-16.733-106.95-15.846c-16.998,0.349-30.242-9.717-40.556-24.884
			c1.199-0.935,2.454-1.888,3.746-2.849c4.066-3.032,8.325-5.944,12.758-8.729c95.95-60.211,274.953-63.014,374.366-59.203
			c43.037,1.648,71.156,4.533,71.156,4.533s4.46-0.705,11.935-1.694c8.993,37.8,25.553,73.034,56.565,72.411
			c51.602-1.044,95.985-8.473,117.399,11.348C1300.097,1320.771,1299.291,1330.8,1299.291,1330.8z"/>
		<path style="fill:#EE9849;" d="M1253.835,1463.669c-61.438,0-134.5-0.833-134.5-0.833s-8.399,3.086-18.923-1.09
			c-1.172,1.42-1.813,2.189-1.813,2.189H897.963c15.305-9.837,31.185-24.895,40.82-47.572c23.255-54.78,1.338-85.563,1.338-85.563
			l113.031-15.606l34.631-4.781l112.545-15.543c43.725-1.841,80.397-5.523,99.256,11.934c3.426,3.169,6.266,7.035,8.453,11.742
			C1318.314,1340.646,1315.264,1463.669,1253.835,1463.669z"/>
		<path style="fill:#E2843D;" d="M1255.411,1463.643H721.422v-23.191c5.002,0.019,10.011,0.036,14.939,0.055
			c7.711,0.027,15.23,0.046,22.237,0.046c41.564,0,47.389-77.063,42.297-102.938h511.017
			C1315.521,1378.692,1304.988,1461.911,1255.411,1463.643z"/>
		<path style="fill:#DB8137;" d="M829.315,1330.8c-0.77-5.321-1.832-9.535-3.087-12.246c-3.307-7.098-8.096-12.3-14.15-16.064
			c-19.526-12.172-52.233-9.443-90.656-7.749c-6.85,0.303-13.885,0.568-21.057,0.715c-9.992,0.201-18.482-3.324-25.699-9.452
			c-2.29-1.95-4.461-4.157-6.504-6.595c-30.078-35.856-34.024-120.963-35.253-141.662c-1.272-21.478-10.11-34.795-28.108-37.387
			c-4.249-0.614-9.021-0.623-14.315,0c-34.044,3.993-37.652,41.637-37.652,41.637s15.231,160.933,28.52,248.768
			c13.281,87.835,56.182,72.072,56.182,72.072s38.953,0.448,83.887,0.678c9.873,0.055,20.041,0.101,30.143,0.129
			c6.879,0.018,13.738,0.026,20.461,0.026c0.55,0,1.1-0.009,1.641-0.026c3.801-0.138,7.363-0.752,10.706-1.796
			C827.3,1448.538,834.427,1365.806,829.315,1330.8z M758.599,1440.552c-7.007,0-14.526-0.019-22.237-0.046
			c-4.929-0.019-9.938-0.036-14.939-0.055c-38.064-0.174-75.791-0.513-75.791-0.513s-31.342-2.244-41.636-53.425
			c-12.961-64.553-24.72-186.386-24.72-186.386s-14.023-73.556,11.21-76.523c1.997-0.229,3.856,0.073,5.596,0.852
			c16.12,7.182,21.506,54.296,25.124,75.672c4.863,28.796,13.866,66.439,30.453,90.858c10.313,15.167,23.558,25.232,40.556,24.884
			c9.59-0.192,19.472-0.741,29.208-1.227c35.299-1.768,68.528-2.739,77.742,17.072c0.458,0.979,0.87,2.234,1.245,3.719
			C806.308,1358.817,801.408,1440.552,758.599,1440.552z"/>
		<path style="fill:#E2843D;" d="M1293.905,1302.489H665.479v-16.486h490.995c7.227,6.128,15.718,9.653,25.71,9.452
			c6.164-0.129,12.218-0.339,18.144-0.586C1240.014,1293.201,1273.885,1290.015,1293.905,1302.489z"/>
	</g>
	<g>
		<path style="fill:#E49963;" d="M921.652,1163.154c0,0,11.085-6.902,15.897-5.857c4.811,1.046,17.988,4.811,18.406,10.249
			c0.418,5.438-18.824,14.015-33.048,9.203C908.685,1171.938,921.652,1163.154,921.652,1163.154z"/>
		<path style="fill:#D38957;" d="M862.869,1452.504c0.006,2.436,1.204,4.11,3.243,5.233c0.007,0.007,0.019,0.013,0.031,0.013
			c3.772,2.076,9.792,0.482,16.996,0.169c0.923-0.038,2.35,1.739,3.09,1.739c0.195,0,0.39,0,0.578,0.006
			c0.15,0,0.301,0.006,0.445,0.006c7.128,0.176,6.375,2.31,19.923,3.471c15.443,1.317,21.134-3.408,22.045-5.561
			c0.765-1.825-5.861-3.896-13.266-6.262c-0.358-0.113-0.716-0.232-1.08-0.345c-0.985-0.314-1.977-0.641-2.962-0.961
			c-8.816-2.93-17.494-6.406-19.659-15.33c-2.296-9.462,4.605-35.873,4.605-35.873l-24.472-2.642c0,0-2.359,27.609-3.898,36.213
			c-0.828,4.593-2.91,8.245-4.128,12.18c-0.088,0.275-0.17,0.552-0.245,0.828C863.49,1447.697,862.862,1450.063,862.869,1452.504z"
			/>
		<g>
			<path style="fill:#2F5791;" d="M862.869,1452.504c0.006,2.436,1.204,4.11,3.243,5.233c0.007,0.007,0.019,0.013,0.031,0.013
				c5.466,3.516,15.177-1.375,30.984,5.921c0.68,0.313,5.986-0.053,9.674-0.104c4.795-0.067,11.713,0.366,13.334,0.104
				c7.464-1.204,8.573-4.882,9.085-6.091c0.765-1.825-5.861-3.896-13.266-6.262c-2.078,0.803-11.979,4.242-23.695,2.021
				c-10.304-1.938-20.538-7.065-27.898-8.778c-0.088,0.275-0.17,0.552-0.245,0.828
				C863.49,1447.697,862.862,1450.063,862.869,1452.504z"/>
			<polygon style="fill:#2F5791;" points="865.334,1456.742 868.942,1463.487 876.786,1463.487 876.786,1458.547 			"/>
		</g>
		<path style="fill:#B74B42;" d="M736.425,1217.139l79.224-7.551c0,0,121.252,0.548,132.545,16.555c0,0,21.648,15.006-2.823,77.031
			c-24.47,62.024-53.21,124.013-53.21,124.013s-7.321,2.001-17.361,1.223c-3.965-0.307-9.308-1.667-9.308-1.667
			s5.525-92.557,17.761-128.571c12.235-36.014,16-29.012-5.648-27.011s-91.295,18.008-123.297,14.006
			C722.308,1281.164,736.425,1217.139,736.425,1217.139z"/>
		<path style="fill:#E49963;" d="M847.6,1452.504c0.007,2.436,1.205,4.11,3.244,5.233c0.006,0.007,0.018,0.013,0.031,0.013
			c3.771,2.076,9.792,0.482,16.995,0.169c0.923-0.038,2.351,1.739,3.091,1.739c0.194,0,0.389,0,0.577,0.006
			c0.151,0,0.301,0.006,0.446,0.006c7.128,0.176,6.375,2.31,19.922,3.471c15.443,1.317,21.135-3.408,22.045-5.561
			c0.766-1.825-5.861-3.896-13.266-6.262c-0.357-0.113-0.715-0.232-1.079-0.345c-0.985-0.314-1.977-0.641-2.962-0.961
			c-8.816-2.93-17.494-6.406-19.659-15.33c-2.297-9.462,4.605-35.873,4.605-35.873l-24.472-2.642c0,0-2.359,27.609-3.897,36.213
			c-0.828,4.593-2.911,8.245-4.129,12.18c-0.088,0.275-0.169,0.552-0.244,0.828C848.221,1447.697,847.594,1450.063,847.6,1452.504z"
			/>
		<g>
			<path style="fill:#E49963;" d="M1153.079,1453.08c-0.006,2.306-1.142,3.893-3.072,4.956c-0.006,0.006-0.018,0.012-0.029,0.012
				c-3.571,1.967-9.84,2.163-16.662,1.866c-0.873-0.036-1.657-0.06-2.359-0.06c-0.185,0-0.368,0-0.547,0.006
				c-0.142,0-0.284,0.006-0.422,0.006c-6.75,0.167-6.036,2.187-18.865,3.286c-14.624,1.248-20.014-3.227-20.875-5.265
				c-0.726-1.729,5.55-3.69,12.563-5.931c0.337-0.107,0.677-0.22,1.021-0.326c0.933-0.297,1.871-0.606,2.805-0.91
				c8.349-2.773,16.565-6.066,18.616-14.516c2.175-8.961-4.361-33.972-4.361-33.972l23.174-2.501c0,0,2.234,26.145,3.69,34.292
				c0.784,4.349,2.758,7.808,3.91,11.533c0.083,0.261,0.16,0.522,0.231,0.784C1152.49,1448.529,1153.084,1450.769,1153.079,1453.08z
				"/>
			<path style="fill:#2B478B;" d="M1147.994,1404.318c0,0-6.695,4.425-12.539,6.109c-6.348,1.823-12.969,1.182-12.969,1.182
				l-22.843-61.447l-20.278-54.578c0,0,18.721-49.02,38.33-25.848c5.203,6.155,9.782,18.529,13.702,33.395v0.008
				C1142.232,1344.236,1147.994,1404.318,1147.994,1404.318z"/>
			<path style="fill:#233862;" d="M1131.397,1303.131v0.008c-4.277,13.611-13.674,35.703-31.754,47.023l-20.278-54.578
				c0,0,18.721-49.02,38.33-25.848C1122.898,1275.892,1127.478,1288.266,1131.397,1303.131z"/>
			<path style="fill:#C65447;" d="M1153.079,1453.08c-0.006,2.306-1.142,3.893-3.072,4.956c-0.006,0.006-0.018,0.012-0.029,0.012
				c-3.804,1.759-9.972,2.015-16.65,1.824c-0.873-0.023-1.657-0.03-2.371-0.018c-0.185,0-0.368,0-0.547,0.006
				c-0.142,0-0.284,0.006-0.422,0.006c-6.75,0.167-6.036,2.187-18.865,3.286c-14.624,1.248-20.014-3.227-20.875-5.265
				c-0.726-1.729,5.55-3.69,12.563-5.931c1.966,0.761,11.343,4.018,22.437,1.913c9.757-1.836,19.448-6.69,26.419-8.313
				c0.083,0.261,0.16,0.522,0.231,0.784C1152.49,1448.529,1153.084,1450.769,1153.079,1453.08z"/>
			<path style="fill:#E49963;" d="M1002.703,1423.5c-1.287,6.436-10.461,5.362-20.71,2.857c-10.249-2.504-7.814,0.473-22.401-1.142
				c-14.587-1.615-19.006-7.054-19.451-9.223c-0.397-1.925,6.811-2.604,14.541-3.494c0.973-0.109,1.949-0.229,2.926-0.35
				c8.728-1.096,15.121-6.728,23.049-11.354c7.511-4.381,18.718-22.232,18.718-22.232l20.006,1.584c0,0-10.498,15.945-14.558,22.878
				c-2.39,4.077-2.263,9.469-1.965,13.633C1003.013,1418.92,1003.16,1421.232,1002.703,1423.5z"/>
			<path style="fill:#C65447;" d="M981.993,1426.357c-10.249-2.504-7.814,0.473-22.401-1.142
				c-14.587-1.615-19.006-7.054-19.451-9.223c-0.397-1.925,6.811-2.604,14.541-3.494l0.072,0.148c0,0,8.748,6.202,20.891,6.494
				c9.897,0.239,20.379-2.596,27.213-2.484c0.155,2.263,0.303,4.575-0.154,6.843
				C1001.416,1429.936,992.242,1428.862,981.993,1426.357z"/>
			<path style="fill:#E49963;" d="M1047.217,1129.674c0,0-4.767-11.678-10.009-12.154c-5.244-0.477-21.926-3.098-23.117-0.715
				c-1.192,2.383,0,10.963,3.575,14.061c3.574,3.098,25.737,8.103,25.737,8.103L1047.217,1129.674z"/>
			<path style="fill:#2B478B;" d="M1249.898,1248.642c0,0-123.888-41.89-151.517-32.977
				c-27.629,8.912-110.587,173.962-110.587,173.962s1.871,2.489,6.982,4.406c4.754,1.782,16.26,1.668,16.26,1.668
				s74.867-64.172,83.78-82.888c8.912-18.717,12.478-36.542,21.391-34.76c8.912,1.782,114.974,43.672,139.038,18.717
				c24.064-24.956,17.771-57.38,17.771-57.38L1249.898,1248.642z"/>
			<path style="fill:#B74B42;" d="M1174.19,1053.766c-1.978-4.084-4.19-11.34-5.272-24.272c0.166,1.283,2.396,17.595,8.668,26.829
				c25.765,16.915,75.148,73.397,74.172,84.101c0,0,17.395-29.503,17.693-29.68c0,0,32.088-40.803-5.941-64.175
				c-19.328-11.879-19.23-27.124-18.422-40.367c0.813-13.245-5.272-70.254-43.991-55.336c0,0-6.212-2.76-8.995-2.347
				c0,0,2.272,0.435,3.429,1.628c-4.488-0.266-10.906,0.066-16.262,3.11C1165.075,961.322,1152.373,1033.686,1174.19,1053.766z"/>
			<path style="fill:#E49963;" d="M1179.111,1057.164c-0.129,0.058,12.44,6.584,21.895,3.998
				c8.893-2.425,14.703-13.956,14.58-13.981c-3.766-0.748-4.852-5.924-4.771-28.163l-1.703,0.336l-28.627,5.668
				c0,0,0.651,9.01,0.671,17.496C1181.175,1049.644,1180.743,1056.403,1179.111,1057.164z"/>
			<path style="fill:#D68D5D;" d="M1180.484,1025.021c0,0,0.651,9.01,0.671,17.496c16.02-0.451,24.487-15.064,27.956-23.164
				L1180.484,1025.021z"/>
			<path style="fill:#B74B42;" d="M1212.068,1016.236c0,0,8.395-13.264,10.41-24.605c1.438-8.098-2.687-38.113-32.849-33.79
				c0,0-8.76,0.863-16.995,6.425c-6.548,4.423-15.999,13.971-5.432,40.163l2.744,8.848L1212.068,1016.236z"/>
			<path style="fill:#E49963;" d="M1175.135,1033.059c0,0,37.901,0.625,37.928-22.983c0.025-23.609,4.936-39.429-19.263-40.827
				c-24.197-1.396-28.909,7.607-30.834,15.484C1161.04,992.611,1165.276,1032.287,1175.135,1033.059z"/>
			<path style="fill:#B74B42;" d="M1176.537,968.67c0,0,10.379,27.699,26.304,31.794c15.927,4.096,22.834-0.172,22.834-0.172
				s-12.216-9.704-14.751-26.644C1210.924,973.648,1184.365,955.487,1176.537,968.67z"/>
			<path style="fill:#B74B42;" d="M1179.109,970.919c0,0-7.749,6.185-9.639,12.196c-1.89,6.012-2.739,18.388-6.347,17.967
				c0,0-7.817-18.826,0.968-29.476C1173.409,960.313,1179.109,970.919,1179.109,970.919z"/>
			<path style="fill:#699DEE;" d="M1278.959,1249.295c-2.044,5.676-8.313,7.137-16.715,6.15
				c-16.021-1.872-39.818-12.627-56.968-20.066c-26.146-11.332-38.029-0.684-46.349-7.896c-8.318-7.215,9.508-23.252-5.941-97.725
				c-5.241-25.254,27.964-79.398,27.964-79.398s2.87,15.675,34.636-3.179c1.123-0.666,13.626,17.85,25.67,40.673
				c13.275,25.184,25.991,55.602,22.254,71.276C1256.379,1189.013,1284.9,1232.807,1278.959,1249.295z"/>
			<path style="fill:#699DEE;" d="M1180.95,1050.359l-19.586,80.338c0,0-2.437,4.337-6.257,10.512
				c-8.967,14.498-25.563,39.129-36.188,41.63c-5.241,1.236-16.389-3.126-28.724-9.359c-23.323-11.782-50.901-30.251-50.901-30.251
				c-1.781-10.695,7.523-19.413,7.523-19.413s55.855,20.994,61.406,21.392c12.092,0.861,24.398-57.502,35.7-76.95
				C1152.096,1054.192,1180.95,1050.359,1180.95,1050.359z"/>
			<path style="fill:#FFFFFF;" d="M1183.561,1018.747c0,0-0.706,2.999-8.168,2.536c0,0-6.265-0.387-6.072-3.684
				C1169.32,1017.6,1175.395,1015.255,1183.561,1018.747z"/>
			<path style="fill:#3B76CA;" d="M1278.959,1249.295c-2.044,5.676-8.313,7.137-16.715,6.15
				c-11.088-4.831-58.988-23.389-58.453-35.962c0.797-18.616,9.211-19.211,3.269-42.188c-4.772-18.45,39.487-52.756,46.547-60.214
				c13.274,25.183,13.641,26.374,9.903,42.049C1256.379,1189.013,1284.9,1232.807,1278.959,1249.295z"/>
			<path style="fill:#3B76CA;" d="M1155.107,1141.209c-8.967,14.498-25.563,39.129-36.188,41.63
				c-5.241,1.236-16.389-3.126-28.724-9.359c9.002,2.323,17.749,2.258,26.246,1.438c9.21-0.892,11.884-12.182,26.442-29.116
				C1152.326,1134.82,1154.644,1137.584,1155.107,1141.209z"/>
			<g>
				<path style="fill:#E9F3FE;" d="M1193.549,1165.193l-0.375,6.685l-0.75,13.357l-0.396,7.162c-0.063,0.999-0.885,1.78-1.885,1.78
					h-16.073c-0.989,0-1.812-0.771-1.885-1.749l-0.521-7.193l-0.979-13.357l-0.478-6.653c-0.073-1.093,0.79-2.02,1.884-2.02h19.572
					C1192.747,1163.205,1193.611,1164.111,1193.549,1165.193z"/>
				<path style="fill:#AFCDFB;" d="M1193.95,1166.586h-24.266c-0.508,0-0.924-0.416-0.924-0.925l0.78-2.46
					c0.462-0.609,0.967-0.944,1.475-0.944h21.689c0.509,0,1.188,0.366,1.605,0.901l0.563,2.503
					C1194.874,1166.17,1194.458,1166.586,1193.95,1166.586z"/>
				<polygon style="fill:#AFCDFB;" points="1193.174,1171.878 1192.424,1185.235 1171.665,1185.235 1170.686,1171.878 				"/>
			</g>
			<path style="fill:#E49963;" d="M1199.482,1176.85c0,0-8.021-6.239-15.598-4.754c-7.575,1.485-11.289,6.685-10.992,9.062
				c0.297,2.376,4.308,9.062,10.102,9.656c5.793,0.594,22.282-3.565,22.282-3.565L1199.482,1176.85z"/>
			<path style="fill:#699DEE;" d="M1215.586,1047.181c0,0,30.892,1.903,41.585,16.817c15.054,20.996,41.198,106.712,34.068,126.32
				l-93.984-0.396c0,0-2.278-10.646,0.892-15.796c3.169-5.15,54.668-13.469,57.044-15.847c2.377-2.376-29.711-46.348-29.711-53.479
				S1215.586,1047.181,1215.586,1047.181z"/>
		</g>
		<path style="fill:#C65447;" d="M725.352,1222.766l74.296-6.275c0,0,121.253,0.531,132.546,16.033c0,0,18.322,11.477-6.148,71.547
			c-24.472,60.07-49.259,126.175-49.259,126.175s-5.491,0.753-12.132,0.216c-8.354-0.678-11.137-3.392-11.137-3.392
			s1.726-82.199,13.961-117.078c12.235-34.879,16.941-31.328-4.707-29.391c-21.646,1.938-82.515,17.118-124.464,9.086
			C706.63,1283.621,725.352,1222.766,725.352,1222.766z"/>
		<path style="fill:#163560;" d="M804.06,922.159c0,0-24.85-12.723-36.354,19.907c0,0,11.085-13.805,16.942-13.178
			C790.506,929.517,804.06,922.159,804.06,922.159z"/>
		<g>
			<path style="fill:#365DA4;" d="M847.6,1452.504c0.007,2.436,1.205,4.11,3.244,5.233c0.006,0.007,0.018,0.013,0.031,0.013
				c5.466,3.516,15.176-1.375,30.983,5.921c0.68,0.313,5.987-0.053,9.675-0.104c4.794-0.067,11.712,0.366,13.334,0.104
				c7.464-1.204,8.572-4.882,9.084-6.091c0.766-1.825-5.861-3.896-13.266-6.262c-2.077,0.803-11.979,4.242-23.695,2.021
				c-10.303-1.938-20.537-7.065-27.897-8.778c-0.088,0.275-0.169,0.552-0.244,0.828
				C848.221,1447.697,847.594,1450.063,847.6,1452.504z"/>
			<polygon style="fill:#365DA4;" points="850.065,1456.742 853.674,1463.487 861.518,1463.487 861.518,1458.547 			"/>
		</g>
		<path style="fill:#2B478B;" d="M927.065,1177.492c-0.119,0.689-0.313,1.354-0.597,1.977c-3.138,6.902-68.396,15.688-76.554,11.295
			c-3.646-1.965-8.948-34.87-13.691-70.656c-5.867-44.238-10.888-92.882-10.888-92.882s27.089,8.547,30.227,22.979
			c3.138,14.432,3.765,103.536,11.922,107.929c8.158,4.393,42.67,0.627,54.592,2.51
			C922.076,1160.644,928.315,1170.514,927.065,1177.492z"/>
		<path style="fill:#163560;" d="M827.112,924.685c-5.071-4.074-12.433-3.566-17.173-3.285c1.222-1.261,3.621-1.719,3.621-1.719
			c-2.938-0.438-9.5,2.478-9.5,2.478c-40.886-15.755-45.766,58.393-10.626,66.865C807.055,992.308,879.088,966.435,827.112,924.685z
			"/>
		<path style="fill:#E49963;" d="M827.279,1034.411c0.136,0.062-13.137,6.953-23.121,4.223
			c-9.391-2.562-15.527-14.737-15.398-14.765c3.977-0.79,5.124-6.255,5.039-29.74l1.799,0.354l30.23,5.986
			c0,0-0.688,9.514-0.708,18.476C825.1,1026.471,825.557,1033.607,827.279,1034.411z"/>
		<path style="fill:#D68D5D;" d="M825.828,1000.47c0,0-0.688,9.514-0.708,18.476c-16.917-0.477-25.858-15.908-29.522-24.462
			L825.828,1000.47z"/>
		<path style="fill:#163560;" d="M792.476,991.192c0,0-8.864-14.008-10.993-25.985c-1.518-8.551,2.836-40.247,34.688-35.682
			c0,0,9.252,0.91,17.947,6.784c6.916,4.67,16.896,14.755,5.736,42.413l-2.898,9.344L792.476,991.192z"/>
		<path style="fill:#E49963;" d="M831.479,1008.956c0,0-40.025,0.659-40.053-24.272c-0.027-24.932-5.212-41.637,20.342-43.112
			c25.553-1.476,30.528,8.032,32.563,16.352C846.362,966.243,841.889,1008.142,831.479,1008.956z"/>
		<path style="fill:#163560;" d="M829.997,940.961c0,0-10.96,29.25-27.776,33.574c-16.818,4.325-24.113-0.182-24.113-0.182
			s12.899-10.247,15.577-28.136C793.685,946.218,821.729,927.04,829.997,940.961z"/>
		<path style="fill:#233862;" d="M841.268,1064.154c-0.7-2.84,5.291-4.977,6.759-2.445c2.75,4.741,3.294,10.716,4.392,15.478
			c3.138,13.597,0,32.212,0,32.212L841.268,1064.154z"/>
		<path style="fill:#163560;" d="M827.279,943.336c0,0,8.185,6.53,10.18,12.879c1.996,6.349,2.893,19.418,6.702,18.974
			c0,0,8.256-19.881-1.022-31.127C833.3,932.136,827.279,943.336,827.279,943.336z"/>
		<path style="fill:#FFFFFF;" d="M822.58,993.843c0,0,0.746,3.167,8.625,2.679c0,0,6.615-0.409,6.413-3.891
			C837.618,992.631,831.203,990.155,822.58,993.843z"/>
		<path style="fill:#233862;" d="M927.065,1177.492c-0.119,0.689-0.313,1.354-0.597,1.977c-3.138,6.902-68.396,15.688-76.554,11.295
			c-3.646-1.965-10.046-42.879-5.444-79.482c4.933,20.933,6.436,63.864,17.988,65.885
			C875.56,1179.463,909.947,1175.082,927.065,1177.492z"/>
		<path style="fill:#2B478B;" d="M854.865,1111.072c-16.22,78.198-2.647,90.202-11.074,97.889c-0.044,0.037-7.481,3.25-7.53,3.294
			c-8.785,7.618-9.005-1.612-36.614,10.354c-13.152,5.704-30.013,13.259-44.74,17.727c-5.547,1.676-10.787,2.925-15.417,3.464
			c-8.874,1.042-15.494-0.502-17.651-6.494c-6.275-17.413,23.844-63.659,16.314-95.216c-0.063-0.271-0.125-0.546-0.181-0.816
			c-0.547-2.761-0.648-5.93-0.364-9.405c1.405-17.607,12.525-43.197,24.045-65.047c12.72-24.102,25.922-43.654,27.108-42.951
			c33.546,19.91,36.576,3.357,36.576,3.357S860.4,1084.403,854.865,1111.072z"/>
		<path style="fill:#233862;" d="M838.928,1211.157C838.884,1211.194,838.979,1211.113,838.928,1211.157
			c-8.785,7.618-11.672-0.515-39.281,11.451c-13.152,5.704-30.013,13.259-44.74,17.727c-7.523,1.312-13.127,2.467-15.417,3.464
			c-8.874,1.042-15.494-0.502-17.651-6.494c-6.275-17.413,23.844-63.659,16.314-95.216c-0.063-0.271-0.125-0.546-0.181-0.816
			c-0.648-3.118-0.734-6.23-0.364-9.405c1.587-13.378,11.427-27.893,22.57-49.033c7.454,7.875,63.44-1.254,50.2,76.555
			C806.317,1183.24,835.445,1192.646,838.928,1211.157z"/>
		<path style="fill:#E49963;" d="M836.209,1215.131c0,0,12.34-2.928,17.988-0.628c5.646,2.302,16.941,8.158,15.895,11.296
			c-1.046,3.137-14.432,4.811-20.079,1.673c-5.648-3.138-9.831,0.837-16.734-1.464
			C826.378,1223.707,836.209,1215.131,836.209,1215.131z"/>
		<path style="fill:#2B478B;" d="M788.761,1023.869c0,0-45.519,0.608-53.677,22.57c-8.157,21.963-5.648,99.145,6.275,122.361
			c11.922,23.218,79.69,54.592,87.221,55.848c7.531,1.255,12.237-10.354,11.923-11.609c-0.313-1.255-71.22-58.67-70.907-64.631
			C769.909,1142.446,788.761,1023.869,788.761,1023.869z"/>
		<g>
			<path style="fill:#E9F3FE;" d="M955.381,1155.138l-0.375,6.684l-0.75,13.356l-0.395,7.164c-0.063,0.999-0.886,1.779-1.885,1.779
				h-16.075c-0.989,0-1.811-0.771-1.884-1.748l-0.521-7.195l-0.978-13.356l-0.479-6.652c-0.072-1.093,0.792-2.02,1.885-2.02h19.573
				C954.579,1153.149,955.443,1154.055,955.381,1155.138z"/>
			<path style="fill:#AFCDFB;" d="M955.782,1156.529h-24.265c-0.509,0-0.926-0.416-0.926-0.925l0.781-2.459
				c0.462-0.609,0.967-0.944,1.476-0.944h21.689c0.508,0,1.188,0.365,1.605,0.901l0.564,2.502
				C956.706,1156.113,956.291,1156.529,955.782,1156.529z"/>
			<polygon style="fill:#AFCDFB;" points="955.006,1161.821 954.256,1175.178 933.497,1175.178 932.519,1161.821 			"/>
		</g>
	</g>
	<g id="man_8_">
		<g>
			<path style="fill:#233862;" d="M1633.186,1409.172c0,0-11.514,10.672-9.267,18.254s12.638,12.637,14.041,21.904
				c1.404,9.267,7.021,14.322,12.076,14.322c5.055,0,24.099,0,24.099,0s3.721-6.521-5.266-8.487s-12.375-12.855-11.813-22.965
				c0.562-10.11-0.843-23.589-0.843-23.589l-19.096-4.494L1633.186,1409.172z"/>
			<path style="fill:#233862;" d="M1841.928,1463.644h-63.925c-0.599-0.114-1.04-0.245-1.319-0.385
				c-4.26-2.13-2.932-18.438-2.408-23.501c0.099-0.942,0.164-1.49,0.164-1.49s22.469-17.973,25.557-4.211
				c0.099,0.426,0.205,0.844,0.336,1.262c3.874,12.877,21.322,18.726,31.396,20.363
				C1839.42,1456.927,1841.411,1461.399,1841.928,1463.644z"/>
			<path style="fill:#2B478B;" d="M1829.057,1095.21c0,0-3.412,42.57-7.422,93.742c-5.451,69.513-12.005,154.897-12.653,171.073
				c-1.121,28.087-5.62,73.016-5.62,73.016s-10.666,10.675-32.014,6.176c0,0-19.023-64.137-24.457-131.998
				c-0.084-1.112-0.169-2.232-0.253-3.354c-5.055-69.082-12.915-214.553-12.915-214.553L1829.057,1095.21z"/>
			<path style="fill:#233862;" d="M1829.057,1095.21c0,0-3.412,42.57-7.422,93.742l-74.744,118.267
				c-0.084-1.112-0.169-2.232-0.253-3.354c-5.055-69.082-12.915-214.553-12.915-214.553L1829.057,1095.21z"/>
			<path style="fill:#2B478B;" d="M1813.475,1100.266c0,0-61.5,154.173-101.938,226.625c-40.438,72.453-53.076,92.672-53.076,92.672
				s-23.168-9.268-25.274-15.586c0,0,15.465-139.873,42.546-173.971c15.302-19.266,33.277-77.086,34.119-97.305
				c0.843-20.22,5.477-60.237,5.477-60.237L1813.475,1100.266z"/>
		</g>
		<path style="fill:#AB7041;" d="M1875.67,1057.703l3.516,7.006c0,0,17.875,2.499,12.955,21.133c0,0-2.651,7.668-7.58,5.242
			c-4.93-2.426-2.501-2.222-9.566-5.485c-7.065-3.265-11.152-9.538-9.574-15.292l-1.131-6.1L1875.67,1057.703z"/>
		<path style="fill:#9C5F33;" d="M1781.933,862.286c2.734-16.145,2.819-25.715,2.819-25.715l-31.204-25.147
			c1.159,34.578-20.999,51.206-20.999,51.206s41.582,20.468,65.617,12.887C1798.166,875.517,1792.248,867.953,1781.933,862.286z"/>
		<path style="fill:#AB7041;" d="M1792.102,836c0,0-39.697,6.596-43.423-18.19c-3.727-24.784-11.36-40.625,13.827-45.883
			c25.188-5.259,31.546,3.457,34.802,11.427C1800.564,791.324,1802.331,833.646,1792.102,836z"/>
		<path style="fill:#233862;" d="M1748.94,819.521c0,0,0.801-33.199,36.971-38.527c24.774-3.65,9.771-24.352,6.939-27.631
			c0,0-18.938,3.614-38.322,7.868C1713.844,770.161,1744.641,814.584,1748.94,819.521z"/>
		<path style="fill:#4A75CB;" d="M1871.505,1067.443c5.306-5.445,9.247-12.534,9.247-12.534s-45.104-56.036-48.77-61.849
			c-3.667-5.81-31.059-99.019-31.059-99.019l-69.27-14.031c0,0,57.819,119.285,67.397,133.827
			c15.829,24.029,63.182,59.796,63.182,59.796S1867.337,1071.72,1871.505,1067.443z"/>
		<path style="fill:#739AF0;" d="M1831.709,1098.756c-0.724,0.602-1.563,0.963-2.526,0.963c-9.024-0.123-35.342,4.89-57.61,2.604
			c-18.772-1.803-35.388-7.363-53.231-15.362c-2.369-1.062-7.823-3.973-7.7-6.621c0.08-2.899,0.368-7.106,0.729-12.403
			c1.263-18.417,3.464-50.096,1.318-86.643c-0.387-6.806-0.589-13.556-0.613-20.201c-0.184-49.532,9.47-93.637,29.206-108.383
			c1.686-1.207,12.202,4.39,21.712,9.079c8.785,4.335,17.571,4.813,25.872,3.133l8.302,7.339
			c10.109,9.387,21.183,22.144,25.995,41.519c4.096,16.485,6.499,46.215,7.823,77.023c0.601,13.96,1.085,28.043,1.208,41.402v0.478
			c0.116,1.324,0.116,2.771,0.116,4.096C1832.794,1071.075,1832.31,1098.271,1831.709,1098.756z"/>
		<path style="fill:#4A75CB;" d="M1711.37,1067.936c1.263-18.417,3.464-50.096,1.318-86.643c-0.387-6.806-0.589-13.556-0.613-20.201
			c8.222-19.944,14.941-34.407,14.941-34.407h20.723C1747.739,926.685,1762.932,1030.457,1711.37,1067.936z"/>
		<path style="fill:#233862;" d="M1697.859,1111.215l-22.206-2.212l0.606-6.086c0.294-2.981-1.893-5.66-4.883-5.954l-4.75-0.476
			l-18.742-1.868l-5.447-0.54c-2.99-0.304-5.66,1.892-5.955,4.874l-0.605,6.086l-22.215-2.221c-3.408-0.335-6.438,2.147-6.783,5.555
			l-4.595,46.125c-0.345,3.398,2.146,6.438,5.554,6.773l84.197,8.396c3.408,0.336,6.438-2.146,6.783-5.554l4.595-46.116
			C1703.757,1114.59,1701.268,1111.551,1697.859,1111.215z M1670.279,1108.463l-29.038-2.891l0.606-6.087
			c0.009-0.024,0.024-0.041,0.057-0.041l6.095,0.606l13.426,1.335c0.008,0.008,0.008,0.008,0.008,0l9.412,0.942
			c0.024,0.008,0.049,0.032,0.041,0.057L1670.279,1108.463z"/>
		<g>
			<path style="fill:#AB7041;" d="M1671.054,1074.388l-3.935,6.779c0,0,7.707,16.321-10.575,22.418c0,0-7.866,1.985-8.539-3.468
				c-0.673-5.452,0.487-3.309-0.654-11.008c-1.142-7.698,1.865-14.556,7.544-16.388l4.482-4.29L1671.054,1074.388z"/>
			<path style="fill:#739AF0;" d="M1660.624,1076.24c7.462,1.455,15.552,0.866,15.552,0.866s22.154-68.437,25.006-74.688
				c2.851-6.252,65.804-80.245,65.804-80.245l-26.226-65.631c0,0-68.09,113.736-75.004,129.718
				c-11.425,26.409-15.391,85.619-15.391,85.619S1654.764,1075.099,1660.624,1076.24z"/>
		</g>
	</g>
	<path style="fill:#A8D29F;" d="M2410.91,1467.391c0,0-13.908-31.389-77.49-32.507c-63.583-1.118-73.132,33.25-119.685,18.912
		c-46.554-14.337-86.69,8.694-86.69,8.694L2410.91,1467.391z"/>
	<g>
		<path style="fill:#C0783D;" d="M2084.486,1396.994l-7.361-1.437c0,0,17.596-69.587,15.183-75.333
			c-1.953-4.769-22.235-8.216-32.176-16.547c-2.126-1.781-3.734-3.734-4.653-5.976c-5.286-12.928,3.332-22.523,3.332-22.523
			s18.042,4.137,34.417,11.147c11.664,4.999,22.466,11.491,25.453,19.018C2125.862,1323.558,2084.486,1396.994,2084.486,1396.994z"
			/>
		<path style="fill:#415DA5;" d="M2104.516,1407.722c-0.113-0.724-0.6-1.375-1.31-1.765c-1.75-0.965-5.334-2.348-8.018-5.932
			c-1.511-2.013-7.748-7.97-7.748-7.97l-0.036-0.018c-0.161-0.039-0.977-0.028-4.933,1.59c-2.044,0.834-4.169-3.002-4.169-3.002
			s-0.652,0.259-1.254,0.9c-0.482,0.505-0.932,1.253-1,2.302c-0.101,1.477-1.629,3.873-2.766,5.468
			c-0.688,0.967-1.232,1.637-1.232,1.637s-0.428,0.833,3.05,2.154l4.161,1.075c1.443,0.167,2.564,0.076,4.037,0.28
			c2.236,0.31,3.032,1.354,3.184,1.587c0.021,0.03,0.029,0.047,0.029,0.047l17.676,4.569
			C2104.777,1410.198,2104.686,1408.787,2104.516,1407.722z"/>
		<g id="BPbxa9_1_">
			<path style="fill:#739CF3;" d="M2165.284,1307.132l-7.44-7.7l0.654-1.342l-1.18,0.798l-0.011-0.011l-0.019,0.03l-84.274,56.978
				l-18.788-58.766l-6.36,2.032l19.384,60.632l-73.861,49.938l89.027,7.742l0.578-6.653l-70.257-6.109l57.171-36.603l15.677,49.033
				l6.36-2.033l-1.795-5.613l4.266,2.752L2165.284,1307.132z M2075.729,1364.372l67.786-43.398l-54.004,86.509L2075.729,1364.372z"
				/>
			<g>
				<path style="fill:#415DA5;" d="M2204.271,1404.268l-38.152-81.646l5.112-2.046c3.321-1.328,7.091,0.293,8.411,3.617
					l30.813,77.551L2204.271,1404.268z"/>
			</g>
			<g>
				<path style="fill:#415DA5;" d="M2166.119,1322.622c-5.521-14.327-14.734-36.83-14.589-36.61l5.558-3.702
					c0.272,0.408,0.452,0.678,14.93,38.246L2166.119,1322.622z"/>
			</g>
			<path style="fill:#415DA5;" d="M2134.096,1293.833c-2.186-3.036-1.496-7.269,1.541-9.453c3.036-2.187,7.269-1.495,9.454,1.54
				c2.185,3.037,1.495,7.27-1.542,9.455C2140.513,1297.56,2136.279,1296.869,2134.096,1293.833z"/>
			<path style="fill:#415DA5;" d="M2159.737,1276.099c-2.186-3.036-1.495-7.269,1.541-9.454s7.27-1.494,9.454,1.541
				c2.186,3.037,1.495,7.27-1.542,9.455C2166.154,1279.825,2161.922,1279.135,2159.737,1276.099z"/>
			<g>
				<polygon style="fill:#415DA5;" points="2166.345,1278.501 2140.473,1294.965 2136.885,1287.898 2162.757,1271.435 				"/>
			</g>
			<path style="fill:#415DA5;" d="M2123.764,1433.181h-14.47c-1.7,0-3.092-1.392-3.092-3.092l0,0c0-1.7,1.392-3.092,3.092-3.092
				h14.47c1.7,0,3.091,1.392,3.091,3.092l0,0C2126.854,1431.789,2125.464,1433.181,2123.764,1433.181z"/>
			<g>
				
					<rect x="2101.256" y="1405.452" transform="matrix(0.4147 -0.91 0.91 0.4147 -62.9106 2745.3079)" style="fill:#415DA5;" width="2.597" height="32.209"/>
			</g>
			<g>
				<path style="fill:#415DA5;" d="M2014.008,1407.21c0-0.362-0.02-0.721-0.054-1.074l46.738-7.84l-0.246-1.464l-46.745,7.842
					c-0.57-2.395-1.917-4.483-3.771-5.98l28.368-40.524l-1.216-0.851l-27.218,38.88l14.679-44.032l-1.408-0.47l-15.235,45.707
					c-1.25-0.617-2.632-1.002-4.095-1.101v-48.824h-1.483v48.824c-0.848,0.058-1.672,0.2-2.455,0.439l-15.15-42.218l-1.396,0.501
					l14.417,40.178l-28.988-33.371l-1.12,0.974l30.216,34.782c-1.58,0.859-2.921,2.098-3.909,3.59l-1.711-0.294l-42.25-21.419
					l-0.672,1.324l37.954,19.24l-42.315-7.277l-0.251,1.462l47.062,8.094l1.234,0.626c-0.559,1.314-0.867,2.759-0.867,4.276
					c0,0.293,0.021,0.581,0.043,0.868l-46.713,6.932l0.218,1.468l46.708-6.931c0.096,0.44,0.225,0.869,0.371,1.287l-42.658,18.325
					l0.586,1.364l42.656-18.324c0.008,0.015,0.014,0.029,0.021,0.044l-33.48,33.771l1.054,1.046l33.226-33.515
					c0.675,0.949,1.498,1.781,2.436,2.473l-24.57,38.654l1.252,0.796l24.563-38.643c0.216,0.117,0.44,0.218,0.664,0.321
					c-6.137,16.156-17.378,45.766-17.653,46.593l1.407,0.47c0.244-0.732,10.144-26.816,17.631-46.527
					c1.008,0.306,2.075,0.473,3.184,0.473c0.185,0,0.363-0.019,0.544-0.027l-3.88,46.898l1.479,0.122l3.905-47.191
					c0.471-0.089,0.93-0.208,1.378-0.356c7.72,18.988,17.859,43.956,18.131,44.754l1.407-0.47
					c-0.275-0.829-11.793-29.174-18.166-44.848c0.137-0.067,0.277-0.127,0.412-0.198l26.068,41.226l1.255-0.793l-26.076-41.237
					c1.038-0.762,1.942-1.694,2.657-2.768l38.693,26.831l0.846-1.219l-38.809-26.911
					C2013.606,1410.527,2014.008,1408.917,2014.008,1407.21z"/>
				<g>
					<path style="fill:#2C3A64;" d="M2003.063,1471.394c-35.391,0-64.184-28.792-64.184-64.184
						c0-35.391,28.793-64.184,64.184-64.184c35.392,0,64.184,28.793,64.184,64.184c0,11.346-3.001,22.496-8.679,32.249
						c-5.552,9.537-13.517,17.534-23.032,23.125C2025.729,1468.348,2014.499,1471.394,2003.063,1471.394z M2003.063,1351.931
						c-30.481,0-55.279,24.798-55.279,55.279s24.798,55.28,55.279,55.28c9.852,0,19.521-2.622,27.962-7.582
						c8.199-4.819,15.063-11.711,19.848-19.93c4.887-8.394,7.47-17.996,7.47-27.769
						C2058.343,1376.729,2033.545,1351.931,2003.063,1351.931z"/>
				</g>
			</g>
			<g>
				<path style="fill:#415DA5;" d="M2220.533,1407.21c0-0.362-0.02-0.721-0.055-1.074l46.738-7.84l-0.246-1.464l-46.745,7.842
					c-0.568-2.395-1.916-4.483-3.771-5.98l28.368-40.524l-1.216-0.851l-27.216,38.88l14.677-44.032l-1.407-0.47l-15.236,45.707
					c-1.249-0.617-2.631-1.002-4.095-1.101v-48.824h-1.483v48.824c-0.848,0.058-1.67,0.2-2.454,0.439l-15.15-42.218l-1.396,0.501
					l14.418,40.178l-28.989-33.371l-1.12,0.974l30.215,34.782c-1.579,0.859-2.92,2.098-3.908,3.59l-1.712-0.294l-42.249-21.419
					l-0.671,1.324l37.953,19.24l-42.315-7.277l-0.251,1.462l47.061,8.094l1.235,0.626c-0.558,1.314-0.868,2.759-0.868,4.276
					c0,0.293,0.022,0.581,0.045,0.868l-46.714,6.932l0.218,1.468l46.708-6.931c0.096,0.44,0.224,0.869,0.371,1.287l-42.658,18.325
					l0.586,1.364l42.656-18.324c0.007,0.015,0.014,0.029,0.021,0.044l-33.48,33.771l1.054,1.046l33.225-33.515
					c0.675,0.949,1.499,1.781,2.437,2.473l-24.57,38.654l1.251,0.796l24.564-38.643c0.216,0.117,0.44,0.218,0.664,0.321
					c-6.136,16.156-17.378,45.766-17.654,46.593l1.408,0.47c0.243-0.732,10.143-26.816,17.63-46.527
					c1.008,0.306,2.076,0.473,3.185,0.473c0.184,0,0.362-0.019,0.545-0.027l-3.882,46.898l1.479,0.122l3.905-47.191
					c0.471-0.089,0.93-0.208,1.377-0.356c7.722,18.988,17.859,43.956,18.132,44.754l1.407-0.47
					c-0.276-0.829-11.793-29.174-18.167-44.848c0.138-0.067,0.279-0.127,0.413-0.198l26.069,41.226l1.254-0.793l-26.077-41.237
					c1.039-0.762,1.943-1.694,2.657-2.768l38.694,26.831l0.846-1.219l-38.809-26.911
					C2220.131,1410.526,2220.533,1408.917,2220.533,1407.21z"/>
				<g>
					<path style="fill:#2C3A64;" d="M2209.589,1471.394c-35.392,0-64.185-28.792-64.185-64.184
						c0-35.391,28.793-64.184,64.185-64.184c35.391,0,64.183,28.793,64.183,64.184c0,11.346-3,22.496-8.678,32.249
						c-5.553,9.537-13.518,17.534-23.033,23.125C2232.253,1468.348,2221.025,1471.394,2209.589,1471.394z M2209.589,1351.931
						c-30.481,0-55.279,24.798-55.279,55.279s24.798,55.28,55.279,55.28c9.851,0,19.52-2.622,27.961-7.582
						c8.201-4.819,15.064-11.711,19.849-19.93c4.887-8.394,7.47-17.996,7.47-27.769
						C2264.868,1376.729,2240.07,1351.931,2209.589,1351.931z"/>
				</g>
			</g>
			<g>
				<path style="fill:#D57912;" d="M2055.369,1341.354c-0.941,0.331-1.98,0.224-2.834-0.292l0,0
					c-30.031-18.144-71.579-11.325-83.598-8.803l-0.021,0.005c-0.661,0.139-1.284-0.367-1.284-1.043v-2.348
					c0-1.796,1.313-3.32,3.088-3.584c6.502-0.968,21.691-3.047,30.178-3.083c0.229-0.001,0.459-0.002,0.688-0.002
					c19.009,0,35.426,3.402,48.916,10.126c2.754,1.373,5.946,1.566,8.851,0.546l3.701-1.301c2.114-0.742,4.431,0.369,5.174,2.483
					l0,0c0.479,1.365-0.238,2.861-1.604,3.341L2055.369,1341.354z"/>
			</g>
			<path style="fill:#415DA5;" d="M2027.457,1295.631c0,0-1.205-5.473,2.226-5.844c3.433-0.371,15.953,2.319,19.292,1.948
				c3.34-0.371,20.777-3.246,23.838-0.278s1.762,5.564-4.359,6.122c-6.122,0.556-14.284,1.576-16.603,3.524
				C2049.531,1303.051,2032.744,1308.802,2027.457,1295.631z"/>
			<path style="fill:#2C3A64;" d="M2072.07,1416.114c0-9.221,7.475-16.695,16.695-16.695s16.694,7.475,16.694,16.695
				c0,9.22-7.474,16.695-16.694,16.695S2072.07,1425.334,2072.07,1416.114z"/>
		</g>
		<path style="fill:#C0783D;" d="M2155.399,1268.531c-0.021-0.006-0.045-0.003-0.065-0.008c-5.526-3.016-35.16-19.333-36.463-23.24
			c-0.805-2.413-4.539-12.582-8.619-21.603c-1.034-2.241-2.406-2.013-3.441-4.023c-2.24-4.31-10.66-0.749-12.27-1.496
			c-5.285-2.414-11.121-4.479-11.121,0.808c0,0,1.494,3.85,3.793,9.193c0.919,2.125,1.953,4.481,3.045,6.952
			c4.596,10.055,10.572,21.546,14.709,23.614c6.706,3.303,32.098,14.049,41.994,15.855c-0.002,0.004-0.016,0.02-0.016,0.02
			s4.769,4.696,5.826,5.584c1.059,0.889,3.439,1.883,5.729,1.072c2.29-0.81,2.229-4.6,2.354-5.562
			C2160.981,1274.736,2160.56,1270.021,2155.399,1268.531z"/>
		<path style="fill:#CE8E55;" d="M2080.387,1210.271l18.451,6.809c2.355-2.29,4.72-5.932,6.617-9.259
			c2.354-4.135,3.986-7.787,3.986-7.787l-12.89-9.026l-5.726-4.011C2090.564,1195.221,2080.387,1210.271,2080.387,1210.271z"/>
		<path style="fill:#C0783D;" d="M2090.506,1191.21c0,0,4.672,12.806,14.949,16.61c2.354-4.135,3.986-7.787,3.986-7.787
			l-12.89-9.026L2090.506,1191.21z"/>
		<path style="fill:#CE8E55;" d="M2115.28,1199.755c0,0-22.814,3.577-24.824-10.665c-2.009-14.242-6.306-23.372,8.175-26.259
			c14.482-2.886,18.085,2.148,19.912,6.739C2120.369,1174.161,2121.163,1198.457,2115.28,1199.755z"/>
		<path style="fill:#2C3A64;" d="M2080.106,1160.237c0,0,1.036,0.21,1.868,1.08c0.008-0.011,0.012-0.017,0.012-0.017
			c0.06-3.071,3.074-6.177,3.074-6.177c-1.448,1.819-0.978,5.189-0.978,5.189c4.297-7.348,25.214-1.568,27.175-1.08
			c1.96,0.488,3.346-2.454,3.346-2.454c3.096,2.684,6.507,8.5,3.939,12.791s-13.123,11.35-15.519,10.15
			c-2.397-1.201-2.402,1.279-2.276,4.766c0.125,3.484-5.914,9.344-10.17,10.195c-3.429,0.686-3.697-1.662-4.634-3.16
			c-0.231-0.371-0.509-0.714-0.833-1.008c-4.67-4.215-7.242-12.64-6.197-20.94c0.416-3.297,1.779-6.067,2.543-7.407
			C2081.151,1161.642,2080.549,1160.654,2080.106,1160.237z"/>
		<path style="fill:#AA3E39;" d="M2093.228,1286.326c-0.229,1.034-2.758,9.537-9.308,11.721c-4.253,1.437-14.595,4.941-23.788,5.631
			c-2.126-1.781-3.734-3.734-4.653-5.976c-5.286-12.928,3.332-22.523,3.332-22.523S2076.853,1279.315,2093.228,1286.326z"/>
		<path style="fill:#CE8E55;" d="M2042.583,1257.58c0,0-19.659,20.052-2.685,43.988c16.974,23.938,44.611,43.254,46.133,51.792
			c2.944,16.521,20.744,50.559,29.123,67.437l6.747-2.587c0,0-13.239-80.083-18.026-89.657s-29.595-54.402-29.595-54.402
			L2042.583,1257.58z"/>
		<path style="fill:#DD8136;" d="M2110.464,1222.606c-1.781,0.575-6.091,2.184-7.239,4.137c-1.207,1.954-13.847-3.505-15.341-8.618
			c3.62-3.965,9.825-7.354,13.445-6.205C2103.455,1212.552,2106.901,1217.091,2110.464,1222.606z"/>
		<path style="fill:#B84C42;" d="M2037.687,1262.889c0,0,23.997,17.098,40.037,16.141c0,0,10.533,17.955,12.868,23.88
			c0,0-27.292,13.646-41.477,11.132c0,0-18.494-17.955-17.417-30.523S2037.687,1262.889,2037.687,1262.889z"/>
		<path style="fill:#F49540;" d="M2103.52,1230.729l-5.753,8.194l-0.46,1.035l-11.951,27.291l-4.417,13.154
			c-0.148,0.441-0.522,0.764-0.98,0.843c-4.347,0.751-12.55,0.126-15.746-1.012c-15.53-5.306-24.412-14.457-26.865-17.26
			c-0.439-0.503-0.563-1.21-0.319-1.833c10.735-27.538,26.302-45.586,29.311-48.936c5.285-5.746,19.133-10.457,19.133-10.457
			c3.792,3.906,17.352,10.744,17.352,10.744C2105.811,1214.85,2103.52,1230.729,2103.52,1230.729z"/>
		<path style="fill:#DD8136;" d="M2097.307,1239.959l-11.951,27.291c-9.078-18.328-3.332-44.931-3.332-44.931
			s14.594,12.64,15.111,13.617C2097.191,1236.108,2097.307,1237.603,2097.307,1239.959z"/>
		<path style="fill:#CE8E55;" d="M2151.359,1272.572c-0.02-0.005-0.041-0.002-0.061-0.007c-5.514-3.008-35.165-19.334-36.468-23.242
			c-0.805-2.412-4.539-12.583-8.618-21.603c-1.035-2.241-2.069-4.425-3.103-6.436c-2.241-4.31-4.367-7.584-5.976-8.331
			c-5.286-2.413-17.754,4.769-17.754,10.055c0,0,1.493,3.849,3.792,9.192c0.919,2.126,1.953,4.482,3.045,6.953
			c4.597,10.055,10.571,21.546,14.709,23.614c6.706,3.303,32.099,14.05,41.994,15.855c-0.002,0.003-0.015,0.02-0.015,0.02
			s4.768,4.696,5.826,5.585c1.058,0.887,3.438,1.883,5.729,1.071c2.29-0.81,2.796-3.907,2.922-4.868
			C2157.508,1279.47,2158.464,1274.348,2151.359,1272.572z"/>
		<path style="fill:#F49540;" d="M2106.213,1227.721c-4.827,2.183-13.503,6.435-19.995,11.434c-1.092-2.471-2.126-4.827-3.046-6.953
			c-2.298-5.344-3.791-9.192-3.791-9.192c0-5.286,12.468-12.468,17.754-10.055c1.608,0.747,3.734,4.021,5.976,8.331
			C2104.144,1223.296,2105.178,1225.479,2106.213,1227.721z"/>
		<g>
			<path style="fill:#739CF3;" d="M2112.125,1427.422h4.298c1.439-0.201,2.502-0.568,3.979-0.74c2.242-0.26,3.275,0.553,3.479,0.74
				c0.027,0.024,0.04,0.037,0.04,0.037h18.257c0.459-0.579,0.019-1.923-0.414-2.911c-0.291-0.672-0.925-1.182-1.709-1.382
				c-1.936-0.496-5.752-0.938-9.248-3.734c-1.966-1.572-9.496-5.778-9.496-5.778l-0.039-0.008c-0.165,0.002-0.953,0.216-4.377,2.773
				c-1.771,1.318-4.788-1.864-4.788-1.864s-0.566,0.415-0.989,1.187c-0.34,0.609-0.588,1.447-0.393,2.479
				c0.273,1.454-0.605,4.157-1.308,5.985c-0.426,1.108-0.784,1.894-0.784,1.894S2108.428,1427.013,2112.125,1427.422z"/>
			<path style="fill:#415DA5;" d="M2111.117,1415.741c1.026,0.64,3.192,1.899,4.628,2.064c1.939,0.225,5.565-4.152,5.565-4.152
				l-0.039-0.008c-0.165,0.002-0.953,0.216-4.377,2.773c-1.771,1.318-4.788-1.864-4.788-1.864S2111.54,1414.97,2111.117,1415.741z"
				/>
			<path style="fill:#415DA5;" d="M2112.125,1427.422h4.298c1.439-0.201,2.502-0.568,3.979-0.74c2.242-0.26,3.275,0.553,3.479,0.74
				c0.027,0.024,0.04,0.037,0.04,0.037h18.257c0.459-0.579,0.019-1.923-0.414-2.911c-0.555-0.437-0.711,1.893-1.017,2.265
				c-0.307,0.37-14.894,0.135-15.735-0.407c-0.842-0.541-3.369-1.489-6.893-0.744c-3.066,0.647-7.584-1.014-8.702-1.455
				c-0.426,1.108-0.784,1.894-0.784,1.894S2108.428,1427.013,2112.125,1427.422z"/>
		</g>
	</g>
	<path style="fill:#82B378;" d="M720.971,1362.325c-23.652-12.468-64.502,27.01-84.895,49.308
		c-3.785-1.419-7.754-2.695-11.922-3.791c5.864-14.658,18.301-43.676,3.315-40.021c-13.374,3.262-10.717,26.035-8.081,38.873
		c-6.211-1.379-12.82-2.367-19.854-2.848c-11.055-0.756-21.288-0.618-30.915,0.142c-9.338-27.488-31.848-88.864-42.814-76.467
		c-9.942,11.239,14.124,53.99,29.033,78.009c-42.669,6.147-74.194,23.152-116.395,23.219c-3.467-17.252-11.892-47.099-28.386-44.495
		c-15.976,2.523,4.707,28.507,18.958,44.268c-2.005-0.058-3.977-0.07-5.914-0.03c-18.158-17.235-49.875-44.285-63.533-37.298
		c-12.684,6.489,22.886,25.614,49.813,38.407c-45.418,6.497-68.13,38.731-68.13,38.731l357.989-3.103
		c0,0-15.234-30.45-51.602-48.574C683.422,1402.24,744.367,1374.658,720.971,1362.325z"/>
	<path style="fill:#2E3552;" d="M3011.996,1471.142H190.557c-1.762,0-3.204-1.441-3.204-3.204v-1.093
		c0-1.763,1.442-3.204,3.204-3.204h2821.439c1.762,0,3.204,1.441,3.204,3.204v1.093
		C3015.2,1469.7,3013.758,1471.142,3011.996,1471.142z"/>
</g>
</svg>
