<?xml version="1.0" encoding="utf-8"?>
<!-- Generator: Adobe Illustrator 27.5.0, SVG Export Plug-In . SVG Version: 6.00 Build 0)  -->
<svg version="1.1" xmlns="http://www.w3.org/2000/svg" xmlns:xlink="http://www.w3.org/1999/xlink" x="0px" y="0px"
	 viewBox="0 0 750 500" style="enable-background:new 0 0 750 500;" xml:space="preserve">
<g id="Background_Simple">
	<g>
		<path style="fill:#92E3A9;" d="M681.778,420.281c36.791-29.496,57.977-74.277,58.629-121.428
			c0.411-29.721-1.724-67.06-11.707-99.003C695.768,94.468,602.732,37.31,534.669,25.12
			C466.605,12.929,396.51,35.279,343.685,70.834c-52.825,35.556-47.746,29.46-138.159,16.254
			c-90.413-13.206-164.571,25.397-188.952,96.508c-24.381,71.111,49.768,111.409,57.9,148.657
			c8.132,37.248-6.091,103.28,135.116,119.534c141.206,16.254,183.873-62.984,253.968-40.635
			C519.962,429.136,603.995,482.641,681.778,420.281z"/>
		<path style="opacity:0.7;fill:#FFFFFF;" d="M681.778,420.281c36.791-29.496,57.977-74.277,58.629-121.428
			c0.411-29.721-1.724-67.06-11.707-99.003C695.768,94.468,602.732,37.31,534.669,25.12
			C466.605,12.929,396.51,35.279,343.685,70.834c-52.825,35.556-47.746,29.46-138.159,16.254
			c-90.413-13.206-164.571,25.397-188.952,96.508c-24.381,71.111,49.768,111.409,57.9,148.657
			c8.132,37.248-6.091,103.28,135.116,119.534c141.206,16.254,183.873-62.984,253.968-40.635
			C519.962,429.136,603.995,482.641,681.778,420.281z"/>
	</g>
</g>
<g id="Clouds">
	<path style="fill:#FFFFFF;stroke:#858585;stroke-miterlimit:10;" d="M439.19,43.272c0,0-21.549-33.221-38.609-31.426
		c-17.059,1.796-16.162,14.366-22.447,24.243c-6.285,9.877-16.162-4.489-26.039-0.898c-9.876,3.591-6.285,9.877-12.57,12.57
		c-6.285,2.694-20.651-11.673-26.038-7.183c-5.387,4.489-7.183,11.672-10.775,13.468c-3.592,1.796-10.775-4.489-14.366,0
		c-3.592,4.489-3.592,4.489-3.592,4.489h175.984c0,0,2.694-9.877-4.489-14.366C449.067,39.68,447.271,45.067,439.19,43.272z"/>
	<path style="fill:#FFFFFF;stroke:#858585;stroke-miterlimit:10;" d="M729.327,67.586c0,0-10.734-16.549-19.232-15.654
		s-8.051,7.156-11.181,12.076c-3.131,4.92-8.051-2.236-12.971-0.447c-4.92,1.789-3.131,4.92-6.262,6.262
		c-3.131,1.342-10.287-5.814-12.971-3.578c-2.684,2.236-3.578,5.814-5.367,6.709c-1.789,0.895-5.367-2.236-7.156,0
		c-1.789,2.236-1.789,2.236-1.789,2.236h87.663c0,0,1.342-4.92-2.236-7.156C734.246,65.797,733.352,68.48,729.327,67.586z"/>
	<path style="fill:#FFFFFF;stroke:#858585;stroke-miterlimit:10;" d="M123.574,58.721c0,0-10.734-16.549-19.232-15.654
		c-8.498,0.895-8.051,7.156-11.181,12.076c-3.131,4.92-8.051-2.236-12.971-0.447c-4.92,1.789-3.131,4.92-6.262,6.262
		c-3.131,1.342-10.287-5.814-12.97-3.578c-2.684,2.236-3.578,5.814-5.367,6.709c-1.789,0.895-5.367-2.236-7.156,0
		c-1.789,2.236-1.789,2.236-1.789,2.236h87.663c0,0,1.342-4.92-2.236-7.156C128.494,56.932,127.6,59.616,123.574,58.721z"/>
</g>
<g id="Buildings_2">
	<g>
		<line style="fill:none;stroke:#858585;stroke-miterlimit:10;" x1="723.925" y1="166.152" x2="739.322" y2="166.152"/>
		<polyline style="fill:none;stroke:#858585;stroke-miterlimit:10;" points="681.209,265.631 681.209,273.513 704.849,273.513 
			704.849,166.152 717.092,166.152 		"/>
		<line style="fill:none;stroke:#858585;stroke-miterlimit:10;" x1="681.209" y1="137.626" x2="681.209" y2="259.709"/>
		<polyline style="fill:none;stroke:#858585;stroke-miterlimit:10;" points="235.021,191.835 235.021,267.176 296.089,267.176 
			296.089,154.333 330.563,154.333 330.563,193.731 349.277,193.731 349.277,117.889 387.69,117.889 387.69,137.588 407.39,137.588 
			407.39,99.175 681.209,99.175 681.209,130.793 		"/>
		<line style="fill:none;stroke:#858585;stroke-miterlimit:10;" x1="235.021" y1="51.531" x2="235.021" y2="185.913"/>
		<polyline style="fill:none;stroke:#858585;stroke-miterlimit:10;" points="118.796,118.038 118.796,214.313 162.134,214.313 
			162.134,29.242 235.021,29.242 235.021,45.153 		"/>
		<polyline style="fill:none;stroke:#858585;stroke-miterlimit:10;" points="59.698,218.256 59.698,97.205 118.796,97.205 
			118.796,112.572 		"/>
		<polyline style="fill:none;stroke:#858585;stroke-miterlimit:10;" points="15.375,317.836 59.698,317.836 59.698,224.633 		"/>
		<line style="fill:none;stroke:#858585;stroke-miterlimit:10;" x1="168.044" y1="45.002" x2="196.608" y2="45.002"/>
		<line style="fill:none;stroke:#858585;stroke-miterlimit:10;" x1="180.474" y1="60.761" x2="196.608" y2="60.761"/>
		<line style="fill:none;stroke:#858585;stroke-miterlimit:10;" x1="168.044" y1="60.761" x2="175.463" y2="60.761"/>
		<line style="fill:none;stroke:#858585;stroke-miterlimit:10;" x1="168.044" y1="76.521" x2="196.608" y2="76.521"/>
		<line style="fill:none;stroke:#858585;stroke-miterlimit:10;" x1="168.044" y1="92.28" x2="196.608" y2="92.28"/>
		<line style="fill:none;stroke:#858585;stroke-miterlimit:10;" x1="168.044" y1="108.039" x2="196.608" y2="108.039"/>
		<line style="fill:none;stroke:#858585;stroke-miterlimit:10;" x1="168.044" y1="123.799" x2="196.608" y2="123.799"/>
		<line style="fill:none;stroke:#858585;stroke-miterlimit:10;" x1="185.484" y1="139.558" x2="196.608" y2="139.558"/>
		<line style="fill:none;stroke:#858585;stroke-miterlimit:10;" x1="168.044" y1="139.558" x2="179.563" y2="139.558"/>
		<line style="fill:none;stroke:#858585;stroke-miterlimit:10;" x1="168.044" y1="155.318" x2="196.608" y2="155.318"/>
		<line style="fill:none;stroke:#858585;stroke-miterlimit:10;" x1="168.044" y1="171.077" x2="196.608" y2="171.077"/>
		<line style="fill:none;stroke:#858585;stroke-miterlimit:10;" x1="168.044" y1="186.837" x2="196.608" y2="186.837"/>
		<line style="fill:none;stroke:#858585;stroke-miterlimit:10;" x1="204.487" y1="76.585" x2="204.487" y2="200.626"/>
		<line style="fill:none;stroke:#858585;stroke-miterlimit:10;" x1="204.487" y1="35.152" x2="204.487" y2="71.118"/>
		<g>
			<rect x="66.593" y="108.039" style="fill:none;stroke:#858585;stroke-miterlimit:10;" width="8.865" height="8.865"/>
			<rect x="66.593" y="125.769" style="fill:none;stroke:#858585;stroke-miterlimit:10;" width="8.865" height="8.865"/>
			<rect x="66.593" y="143.498" style="fill:none;stroke:#858585;stroke-miterlimit:10;" width="8.865" height="8.865"/>
			<rect x="66.593" y="161.227" style="fill:none;stroke:#858585;stroke-miterlimit:10;" width="8.865" height="8.865"/>
			<rect x="66.593" y="178.957" style="fill:none;stroke:#858585;stroke-miterlimit:10;" width="8.865" height="8.865"/>
			<rect x="66.593" y="196.686" style="fill:none;stroke:#858585;stroke-miterlimit:10;" width="8.865" height="8.865"/>
			<rect x="66.593" y="214.415" style="fill:none;stroke:#858585;stroke-miterlimit:10;" width="8.865" height="8.865"/>
			<rect x="66.593" y="232.145" style="fill:none;stroke:#858585;stroke-miterlimit:10;" width="8.865" height="8.865"/>
		</g>
		<g>
			<rect x="84.322" y="108.039" style="fill:none;stroke:#858585;stroke-miterlimit:10;" width="8.865" height="8.865"/>
			<rect x="84.322" y="125.769" style="fill:none;stroke:#858585;stroke-miterlimit:10;" width="8.865" height="8.865"/>
			<rect x="84.322" y="143.498" style="fill:none;stroke:#858585;stroke-miterlimit:10;" width="8.865" height="8.865"/>
			<rect x="84.322" y="161.227" style="fill:none;stroke:#858585;stroke-miterlimit:10;" width="8.865" height="8.865"/>
			<rect x="84.322" y="178.957" style="fill:none;stroke:#858585;stroke-miterlimit:10;" width="8.865" height="8.865"/>
			<rect x="84.322" y="196.686" style="fill:none;stroke:#858585;stroke-miterlimit:10;" width="8.865" height="8.865"/>
			<rect x="84.322" y="214.415" style="fill:none;stroke:#858585;stroke-miterlimit:10;" width="8.865" height="8.865"/>
			<rect x="84.322" y="232.145" style="fill:none;stroke:#858585;stroke-miterlimit:10;" width="8.865" height="8.865"/>
		</g>
		<g>
			<rect x="215.322" y="39.092" style="fill:none;stroke:#858585;stroke-miterlimit:10;" width="8.865" height="8.865"/>
			<rect x="215.322" y="56.821" style="fill:none;stroke:#858585;stroke-miterlimit:10;" width="8.865" height="8.865"/>
			<rect x="215.322" y="74.551" style="fill:none;stroke:#858585;stroke-miterlimit:10;" width="8.865" height="8.865"/>
			<rect x="215.322" y="92.28" style="fill:none;stroke:#858585;stroke-miterlimit:10;" width="8.865" height="8.865"/>
			<rect x="215.322" y="110.009" style="fill:none;stroke:#858585;stroke-miterlimit:10;" width="8.865" height="8.865"/>
			<rect x="215.322" y="127.739" style="fill:none;stroke:#858585;stroke-miterlimit:10;" width="8.865" height="8.865"/>
			<rect x="215.322" y="145.468" style="fill:none;stroke:#858585;stroke-miterlimit:10;" width="8.865" height="8.865"/>
			<rect x="215.322" y="163.197" style="fill:none;stroke:#858585;stroke-miterlimit:10;" width="8.865" height="8.865"/>
		</g>
		<g>
			<rect x="215.322" y="182.404" style="fill:none;stroke:#858585;stroke-miterlimit:10;" width="8.865" height="8.865"/>
			<rect x="215.322" y="200.133" style="fill:none;stroke:#858585;stroke-miterlimit:10;" width="8.865" height="8.865"/>
			<rect x="215.322" y="217.863" style="fill:none;stroke:#858585;stroke-miterlimit:10;" width="8.865" height="8.865"/>
			<rect x="215.322" y="235.592" style="fill:none;stroke:#858585;stroke-miterlimit:10;" width="8.865" height="8.865"/>
			<rect x="215.322" y="253.322" style="fill:none;stroke:#858585;stroke-miterlimit:10;" width="8.865" height="8.865"/>
			<rect x="215.322" y="271.051" style="fill:none;stroke:#858585;stroke-miterlimit:10;" width="8.865" height="8.865"/>
			<rect x="215.322" y="288.78" style="fill:none;stroke:#858585;stroke-miterlimit:10;" width="8.865" height="8.865"/>
			<rect x="215.322" y="306.509" style="fill:none;stroke:#858585;stroke-miterlimit:10;" width="8.865" height="8.865"/>
		</g>
		<g>
			<rect x="102.051" y="108.039" style="fill:none;stroke:#858585;stroke-miterlimit:10;" width="8.865" height="8.865"/>
			<rect x="102.051" y="125.769" style="fill:none;stroke:#858585;stroke-miterlimit:10;" width="8.865" height="8.865"/>
			<rect x="102.051" y="143.498" style="fill:none;stroke:#858585;stroke-miterlimit:10;" width="8.865" height="8.865"/>
			<rect x="102.051" y="161.227" style="fill:none;stroke:#858585;stroke-miterlimit:10;" width="8.865" height="8.865"/>
			<rect x="102.051" y="178.957" style="fill:none;stroke:#858585;stroke-miterlimit:10;" width="8.865" height="8.865"/>
			<rect x="102.051" y="196.686" style="fill:none;stroke:#858585;stroke-miterlimit:10;" width="8.865" height="8.865"/>
			<rect x="102.051" y="214.415" style="fill:none;stroke:#858585;stroke-miterlimit:10;" width="8.865" height="8.865"/>
			<rect x="102.051" y="232.145" style="fill:none;stroke:#858585;stroke-miterlimit:10;" width="8.865" height="8.865"/>
		</g>
		<g>
			<rect x="714.698" y="176.987" style="fill:none;stroke:#858585;stroke-miterlimit:10;" width="8.865" height="8.865"/>
			<rect x="714.698" y="194.716" style="fill:none;stroke:#858585;stroke-miterlimit:10;" width="8.865" height="8.865"/>
			<rect x="714.698" y="212.445" style="fill:none;stroke:#858585;stroke-miterlimit:10;" width="8.865" height="8.865"/>
			<rect x="714.698" y="230.175" style="fill:none;stroke:#858585;stroke-miterlimit:10;" width="8.865" height="8.865"/>
			<rect x="714.698" y="247.904" style="fill:none;stroke:#858585;stroke-miterlimit:10;" width="8.865" height="8.865"/>
			<rect x="714.698" y="265.634" style="fill:none;stroke:#858585;stroke-miterlimit:10;" width="8.865" height="8.865"/>
			<rect x="714.698" y="283.363" style="fill:none;stroke:#858585;stroke-miterlimit:10;" width="8.865" height="8.865"/>
			<rect x="714.698" y="301.092" style="fill:none;stroke:#858585;stroke-miterlimit:10;" width="8.865" height="8.865"/>
		</g>
		<g>
			<rect x="662.003" y="112.472" style="fill:none;stroke:#858585;stroke-miterlimit:10;" width="8.865" height="8.865"/>
			<rect x="662.003" y="130.201" style="fill:none;stroke:#858585;stroke-miterlimit:10;" width="8.865" height="8.865"/>
			<rect x="662.003" y="147.93" style="fill:none;stroke:#858585;stroke-miterlimit:10;" width="8.865" height="8.865"/>
			<rect x="662.003" y="165.66" style="fill:none;stroke:#858585;stroke-miterlimit:10;" width="8.865" height="8.865"/>
			<rect x="662.003" y="183.389" style="fill:none;stroke:#858585;stroke-miterlimit:10;" width="8.865" height="8.865"/>
			<rect x="662.003" y="201.118" style="fill:none;stroke:#858585;stroke-miterlimit:10;" width="8.865" height="8.865"/>
			<rect x="662.003" y="218.848" style="fill:none;stroke:#858585;stroke-miterlimit:10;" width="8.865" height="8.865"/>
			<rect x="662.003" y="236.577" style="fill:none;stroke:#858585;stroke-miterlimit:10;" width="8.865" height="8.865"/>
		</g>
	</g>
</g>
<g id="Buidings_1">
	<g>
		<g>
			<rect x="276.547" y="98.705" style="fill:#A1A1A1;stroke:#858585;stroke-miterlimit:10;" width="189.948" height="25.608"/>
			<rect x="364.174" y="98.705" style="fill:#C9C9C9;stroke:#858585;stroke-miterlimit:10;" width="102.321" height="25.608"/>
			<g>
				<rect x="350.139" y="98.6" style="fill:#DEDEDE;stroke:#858585;stroke-miterlimit:10;" width="14.036" height="25.732"/>
				<rect x="364.117" y="98.6" style="fill:#FFFFFF;stroke:#858585;stroke-miterlimit:10;" width="14.036" height="25.732"/>
			</g>
			<g>
				<rect x="276.547" y="98.6" style="fill:#DEDEDE;stroke:#858585;stroke-miterlimit:10;" width="14.036" height="25.732"/>
			</g>
			<g>
				<rect x="452.46" y="98.6" style="fill:#FFFFFF;stroke:#858585;stroke-miterlimit:10;" width="14.036" height="25.732"/>
			</g>
			<rect x="272.412" y="81.445" style="fill:#DEDEDE;stroke:#858585;stroke-miterlimit:10;" width="92.542" height="22.613"/>
			<rect x="364.174" y="81.445" style="fill:#FFFFFF;stroke:#858585;stroke-miterlimit:10;" width="106.826" height="22.613"/>
		</g>
		<rect x="276.547" y="143.892" style="fill:#A1A1A1;stroke:#858585;stroke-miterlimit:10;" width="189.948" height="25.608"/>
		<rect x="364.174" y="143.892" style="fill:#C9C9C9;stroke:#858585;stroke-miterlimit:10;" width="102.321" height="25.608"/>
		<rect x="276.547" y="189.078" style="fill:#A1A1A1;stroke:#858585;stroke-miterlimit:10;" width="189.948" height="25.608"/>
		<rect x="364.174" y="189.078" style="fill:#C9C9C9;stroke:#858585;stroke-miterlimit:10;" width="102.321" height="25.608"/>
		<rect x="276.547" y="229.399" style="fill:#A1A1A1;stroke:#858585;stroke-miterlimit:10;" width="189.948" height="25.608"/>
		<rect x="364.174" y="229.399" style="fill:#C9C9C9;stroke:#858585;stroke-miterlimit:10;" width="102.321" height="25.608"/>
		<rect x="276.547" y="269.719" style="fill:#A1A1A1;stroke:#858585;stroke-miterlimit:10;" width="189.948" height="25.608"/>
		<rect x="364.174" y="269.719" style="fill:#C9C9C9;stroke:#858585;stroke-miterlimit:10;" width="102.321" height="25.608"/>
		<rect x="276.547" y="315.601" style="fill:#A1A1A1;stroke:#858585;stroke-miterlimit:10;" width="189.948" height="25.608"/>
		<rect x="364.174" y="315.601" style="fill:#C9C9C9;stroke:#858585;stroke-miterlimit:10;" width="102.321" height="25.608"/>
		<rect x="276.547" y="357.312" style="fill:#A1A1A1;stroke:#858585;stroke-miterlimit:10;" width="189.948" height="25.608"/>
		<rect x="364.174" y="357.312" style="fill:#C9C9C9;stroke:#858585;stroke-miterlimit:10;" width="102.321" height="25.608"/>
		<g>
			<g>
				<rect x="350.139" y="141.338" style="fill:#DEDEDE;stroke:#858585;stroke-miterlimit:10;" width="14.036" height="25.732"/>
				<rect x="364.117" y="141.338" style="fill:#FFFFFF;stroke:#858585;stroke-miterlimit:10;" width="14.036" height="25.732"/>
			</g>
			<g>
				<rect x="276.547" y="141.338" style="fill:#DEDEDE;stroke:#858585;stroke-miterlimit:10;" width="14.036" height="25.732"/>
			</g>
			<g>
				<rect x="452.46" y="141.338" style="fill:#FFFFFF;stroke:#858585;stroke-miterlimit:10;" width="14.036" height="25.732"/>
			</g>
			<rect x="272.412" y="124.183" style="fill:#DEDEDE;stroke:#858585;stroke-miterlimit:10;" width="92.542" height="22.613"/>
			<rect x="364.174" y="124.183" style="fill:#FFFFFF;stroke:#858585;stroke-miterlimit:10;" width="106.826" height="22.613"/>
		</g>
		<g>
			<g>
				<rect x="350.139" y="184.076" style="fill:#DEDEDE;stroke:#858585;stroke-miterlimit:10;" width="14.036" height="25.732"/>
				<rect x="364.117" y="184.076" style="fill:#FFFFFF;stroke:#858585;stroke-miterlimit:10;" width="14.036" height="25.732"/>
			</g>
			<g>
				<rect x="276.547" y="184.076" style="fill:#DEDEDE;stroke:#858585;stroke-miterlimit:10;" width="14.036" height="25.732"/>
			</g>
			<g>
				<rect x="452.46" y="184.076" style="fill:#FFFFFF;stroke:#858585;stroke-miterlimit:10;" width="14.036" height="25.732"/>
			</g>
			<rect x="272.412" y="166.921" style="fill:#DEDEDE;stroke:#858585;stroke-miterlimit:10;" width="92.542" height="22.613"/>
			<rect x="364.174" y="166.921" style="fill:#FFFFFF;stroke:#858585;stroke-miterlimit:10;" width="106.826" height="22.613"/>
		</g>
		<g>
			<g>
				<rect x="350.139" y="226.814" style="fill:#DEDEDE;stroke:#858585;stroke-miterlimit:10;" width="14.036" height="25.732"/>
				<rect x="364.117" y="226.814" style="fill:#FFFFFF;stroke:#858585;stroke-miterlimit:10;" width="14.036" height="25.732"/>
			</g>
			<g>
				<rect x="276.547" y="226.814" style="fill:#DEDEDE;stroke:#858585;stroke-miterlimit:10;" width="14.036" height="25.732"/>
			</g>
			<g>
				<rect x="452.46" y="226.814" style="fill:#FFFFFF;stroke:#858585;stroke-miterlimit:10;" width="14.036" height="25.732"/>
			</g>
			<rect x="272.412" y="209.659" style="fill:#DEDEDE;stroke:#858585;stroke-miterlimit:10;" width="92.542" height="22.613"/>
			<rect x="364.174" y="209.659" style="fill:#FFFFFF;stroke:#858585;stroke-miterlimit:10;" width="106.826" height="22.613"/>
		</g>
		<g>
			<g>
				<rect x="350.139" y="269.552" style="fill:#DEDEDE;stroke:#858585;stroke-miterlimit:10;" width="14.036" height="25.732"/>
				<rect x="364.117" y="269.552" style="fill:#FFFFFF;stroke:#858585;stroke-miterlimit:10;" width="14.036" height="25.732"/>
			</g>
			<g>
				<rect x="276.547" y="269.552" style="fill:#DEDEDE;stroke:#858585;stroke-miterlimit:10;" width="14.036" height="25.732"/>
			</g>
			<g>
				<rect x="452.46" y="269.552" style="fill:#FFFFFF;stroke:#858585;stroke-miterlimit:10;" width="14.036" height="25.732"/>
			</g>
			<rect x="272.412" y="252.397" style="fill:#DEDEDE;stroke:#858585;stroke-miterlimit:10;" width="92.542" height="22.613"/>
			<rect x="364.174" y="252.397" style="fill:#FFFFFF;stroke:#858585;stroke-miterlimit:10;" width="106.826" height="22.613"/>
		</g>
		<g>
			<g>
				<rect x="350.139" y="312.29" style="fill:#DEDEDE;stroke:#858585;stroke-miterlimit:10;" width="14.036" height="25.732"/>
				<rect x="364.117" y="312.29" style="fill:#FFFFFF;stroke:#858585;stroke-miterlimit:10;" width="14.036" height="25.732"/>
			</g>
			<g>
				<rect x="276.547" y="312.29" style="fill:#DEDEDE;stroke:#858585;stroke-miterlimit:10;" width="14.036" height="25.732"/>
			</g>
			<g>
				<rect x="452.46" y="312.29" style="fill:#FFFFFF;stroke:#858585;stroke-miterlimit:10;" width="14.036" height="25.732"/>
			</g>
			<rect x="272.412" y="295.135" style="fill:#DEDEDE;stroke:#858585;stroke-miterlimit:10;" width="92.542" height="22.613"/>
			<rect x="364.174" y="295.135" style="fill:#FFFFFF;stroke:#858585;stroke-miterlimit:10;" width="106.826" height="22.613"/>
		</g>
		<g>
			<g>
				<rect x="350.139" y="355.028" style="fill:#DEDEDE;stroke:#858585;stroke-miterlimit:10;" width="14.036" height="25.732"/>
				<rect x="364.117" y="355.028" style="fill:#FFFFFF;stroke:#858585;stroke-miterlimit:10;" width="14.036" height="25.732"/>
			</g>
			<g>
				<rect x="276.547" y="355.028" style="fill:#DEDEDE;stroke:#858585;stroke-miterlimit:10;" width="14.036" height="25.732"/>
			</g>
			<g>
				<rect x="452.46" y="355.028" style="fill:#FFFFFF;stroke:#858585;stroke-miterlimit:10;" width="14.036" height="25.732"/>
			</g>
			<rect x="272.412" y="337.874" style="fill:#DEDEDE;stroke:#858585;stroke-miterlimit:10;" width="92.542" height="22.613"/>
			<rect x="364.174" y="337.874" style="fill:#FFFFFF;stroke:#858585;stroke-miterlimit:10;" width="106.826" height="22.613"/>
		</g>
		<g>
			<rect x="276.547" y="397.871" style="fill:#C9C9C9;stroke:#858585;stroke-miterlimit:10;" width="189.948" height="25.608"/>
			<rect x="276.547" y="397.871" style="fill:#A1A1A1;stroke:#858585;stroke-miterlimit:10;" width="87.627" height="25.608"/>
			<g>
				<rect x="350.139" y="397.766" style="fill:#DEDEDE;stroke:#858585;stroke-miterlimit:10;" width="14.036" height="25.732"/>
				<rect x="364.117" y="397.766" style="fill:#FFFFFF;stroke:#858585;stroke-miterlimit:10;" width="14.036" height="25.732"/>
			</g>
			<g>
				<rect x="276.547" y="397.766" style="fill:#DEDEDE;stroke:#858585;stroke-miterlimit:10;" width="14.036" height="25.732"/>
			</g>
			<g>
				<rect x="452.46" y="397.766" style="fill:#FFFFFF;stroke:#858585;stroke-miterlimit:10;" width="14.036" height="25.732"/>
			</g>
			<rect x="272.412" y="380.612" style="fill:#DEDEDE;stroke:#858585;stroke-miterlimit:10;" width="92.542" height="22.613"/>
			<rect x="364.174" y="380.612" style="fill:#FFFFFF;stroke:#858585;stroke-miterlimit:10;" width="106.826" height="22.613"/>
		</g>
		<g>
			<rect x="276.547" y="440.939" style="fill:#C9C9C9;stroke:#858585;stroke-miterlimit:10;" width="189.948" height="25.608"/>
			<rect x="276.547" y="440.939" style="fill:#A1A1A1;stroke:#858585;stroke-miterlimit:10;" width="87.627" height="25.608"/>
			<g>
				<rect x="350.139" y="440.834" style="fill:#DEDEDE;stroke:#858585;stroke-miterlimit:10;" width="14.036" height="25.732"/>
				<rect x="364.117" y="440.834" style="fill:#FFFFFF;stroke:#858585;stroke-miterlimit:10;" width="14.036" height="25.732"/>
			</g>
			<g>
				<rect x="276.547" y="440.834" style="fill:#DEDEDE;stroke:#858585;stroke-miterlimit:10;" width="14.036" height="25.732"/>
			</g>
			<g>
				<rect x="452.46" y="440.834" style="fill:#FFFFFF;stroke:#858585;stroke-miterlimit:10;" width="14.036" height="25.732"/>
			</g>
			<rect x="272.412" y="423.68" style="fill:#DEDEDE;stroke:#858585;stroke-miterlimit:10;" width="92.542" height="22.613"/>
			<rect x="364.174" y="423.68" style="fill:#FFFFFF;stroke:#858585;stroke-miterlimit:10;" width="106.826" height="22.613"/>
		</g>
	</g>
	<g>
		<g>
			<rect x="429.701" y="36.482" style="fill:#A1A1A1;stroke:#858585;stroke-miterlimit:10;" width="222.077" height="29.94"/>
			<rect x="532.15" y="36.482" style="fill:#C9C9C9;stroke:#858585;stroke-miterlimit:10;" width="119.628" height="29.94"/>
			<g>
				<rect x="515.741" y="36.36" style="fill:#DEDEDE;stroke:#858585;stroke-miterlimit:10;" width="16.41" height="30.084"/>
				<rect x="532.083" y="36.36" style="fill:#FFFFFF;stroke:#858585;stroke-miterlimit:10;" width="16.41" height="30.084"/>
			</g>
			<g>
				<rect x="429.701" y="36.36" style="fill:#DEDEDE;stroke:#858585;stroke-miterlimit:10;" width="16.41" height="30.084"/>
			</g>
			<g>
				<rect x="635.368" y="36.36" style="fill:#FFFFFF;stroke:#858585;stroke-miterlimit:10;" width="16.41" height="30.084"/>
			</g>
			<rect x="424.866" y="16.303" style="fill:#DEDEDE;stroke:#858585;stroke-miterlimit:10;" width="108.196" height="26.438"/>
			<rect x="532.15" y="16.303" style="fill:#FFFFFF;stroke:#858585;stroke-miterlimit:10;" width="124.896" height="26.438"/>
		</g>
		<rect x="429.701" y="89.312" style="fill:#A1A1A1;stroke:#858585;stroke-miterlimit:10;" width="222.077" height="29.94"/>
		<rect x="532.15" y="89.312" style="fill:#C9C9C9;stroke:#858585;stroke-miterlimit:10;" width="119.628" height="29.94"/>
		<rect x="429.701" y="142.142" style="fill:#A1A1A1;stroke:#858585;stroke-miterlimit:10;" width="222.077" height="29.939"/>
		<rect x="532.15" y="142.142" style="fill:#C9C9C9;stroke:#858585;stroke-miterlimit:10;" width="119.628" height="29.939"/>
		<rect x="429.701" y="189.283" style="fill:#A1A1A1;stroke:#858585;stroke-miterlimit:10;" width="222.077" height="29.94"/>
		<rect x="532.15" y="189.283" style="fill:#C9C9C9;stroke:#858585;stroke-miterlimit:10;" width="119.628" height="29.94"/>
		<rect x="429.701" y="236.423" style="fill:#A1A1A1;stroke:#858585;stroke-miterlimit:10;" width="222.077" height="29.94"/>
		<rect x="532.15" y="236.423" style="fill:#C9C9C9;stroke:#858585;stroke-miterlimit:10;" width="119.628" height="29.94"/>
		<rect x="429.701" y="290.066" style="fill:#A1A1A1;stroke:#858585;stroke-miterlimit:10;" width="222.077" height="29.939"/>
		<rect x="532.15" y="290.066" style="fill:#C9C9C9;stroke:#858585;stroke-miterlimit:10;" width="119.628" height="29.939"/>
		<rect x="429.701" y="338.832" style="fill:#A1A1A1;stroke:#858585;stroke-miterlimit:10;" width="222.077" height="29.94"/>
		<rect x="532.15" y="338.832" style="fill:#C9C9C9;stroke:#858585;stroke-miterlimit:10;" width="119.628" height="29.94"/>
		<g>
			<g>
				<rect x="515.741" y="86.326" style="fill:#DEDEDE;stroke:#858585;stroke-miterlimit:10;" width="16.41" height="30.084"/>
				<rect x="532.083" y="86.326" style="fill:#FFFFFF;stroke:#858585;stroke-miterlimit:10;" width="16.41" height="30.084"/>
			</g>
			<g>
				<rect x="429.701" y="86.326" style="fill:#DEDEDE;stroke:#858585;stroke-miterlimit:10;" width="16.41" height="30.084"/>
			</g>
			<g>
				<rect x="635.368" y="86.326" style="fill:#FFFFFF;stroke:#858585;stroke-miterlimit:10;" width="16.41" height="30.084"/>
			</g>
			<rect x="424.866" y="66.27" style="fill:#DEDEDE;stroke:#858585;stroke-miterlimit:10;" width="108.196" height="26.438"/>
			<rect x="532.15" y="66.27" style="fill:#FFFFFF;stroke:#858585;stroke-miterlimit:10;" width="124.896" height="26.438"/>
		</g>
		<g>
			<g>
				<rect x="515.741" y="136.294" style="fill:#DEDEDE;stroke:#858585;stroke-miterlimit:10;" width="16.41" height="30.084"/>
				<rect x="532.083" y="136.294" style="fill:#FFFFFF;stroke:#858585;stroke-miterlimit:10;" width="16.41" height="30.084"/>
			</g>
			<g>
				<rect x="429.701" y="136.294" style="fill:#DEDEDE;stroke:#858585;stroke-miterlimit:10;" width="16.41" height="30.084"/>
			</g>
			<g>
				<rect x="635.368" y="136.294" style="fill:#FFFFFF;stroke:#858585;stroke-miterlimit:10;" width="16.41" height="30.084"/>
			</g>
			<rect x="424.866" y="116.237" style="fill:#DEDEDE;stroke:#858585;stroke-miterlimit:10;" width="108.196" height="26.438"/>
			<rect x="532.15" y="116.237" style="fill:#FFFFFF;stroke:#858585;stroke-miterlimit:10;" width="124.896" height="26.438"/>
		</g>
		<g>
			<g>
				<rect x="515.741" y="186.261" style="fill:#DEDEDE;stroke:#858585;stroke-miterlimit:10;" width="16.41" height="30.084"/>
				<rect x="532.083" y="186.261" style="fill:#FFFFFF;stroke:#858585;stroke-miterlimit:10;" width="16.41" height="30.084"/>
			</g>
			<g>
				<rect x="429.701" y="186.261" style="fill:#DEDEDE;stroke:#858585;stroke-miterlimit:10;" width="16.41" height="30.084"/>
			</g>
			<g>
				<rect x="635.368" y="186.261" style="fill:#FFFFFF;stroke:#858585;stroke-miterlimit:10;" width="16.41" height="30.084"/>
			</g>
			<rect x="424.866" y="166.204" style="fill:#DEDEDE;stroke:#858585;stroke-miterlimit:10;" width="108.196" height="26.438"/>
			<rect x="532.15" y="166.204" style="fill:#FFFFFF;stroke:#858585;stroke-miterlimit:10;" width="124.896" height="26.438"/>
		</g>
		<g>
			<g>
				<rect x="515.741" y="236.228" style="fill:#DEDEDE;stroke:#858585;stroke-miterlimit:10;" width="16.41" height="30.084"/>
				<rect x="532.083" y="236.228" style="fill:#FFFFFF;stroke:#858585;stroke-miterlimit:10;" width="16.41" height="30.084"/>
			</g>
			<g>
				<rect x="429.701" y="236.228" style="fill:#DEDEDE;stroke:#858585;stroke-miterlimit:10;" width="16.41" height="30.084"/>
			</g>
			<g>
				<rect x="635.368" y="236.228" style="fill:#FFFFFF;stroke:#858585;stroke-miterlimit:10;" width="16.41" height="30.084"/>
			</g>
			<rect x="424.866" y="216.171" style="fill:#DEDEDE;stroke:#858585;stroke-miterlimit:10;" width="108.196" height="26.438"/>
			<rect x="532.15" y="216.171" style="fill:#FFFFFF;stroke:#858585;stroke-miterlimit:10;" width="124.896" height="26.438"/>
		</g>
		<g>
			<g>
				<rect x="515.741" y="286.195" style="fill:#DEDEDE;stroke:#858585;stroke-miterlimit:10;" width="16.41" height="30.084"/>
				<rect x="532.083" y="286.195" style="fill:#FFFFFF;stroke:#858585;stroke-miterlimit:10;" width="16.41" height="30.084"/>
			</g>
			<g>
				<rect x="429.701" y="286.195" style="fill:#DEDEDE;stroke:#858585;stroke-miterlimit:10;" width="16.41" height="30.084"/>
			</g>
			<g>
				<rect x="635.368" y="286.195" style="fill:#FFFFFF;stroke:#858585;stroke-miterlimit:10;" width="16.41" height="30.084"/>
			</g>
			<rect x="424.866" y="266.138" style="fill:#DEDEDE;stroke:#858585;stroke-miterlimit:10;" width="108.196" height="26.438"/>
			<rect x="532.15" y="266.138" style="fill:#FFFFFF;stroke:#858585;stroke-miterlimit:10;" width="124.896" height="26.438"/>
		</g>
		<g>
			<g>
				<rect x="515.741" y="336.162" style="fill:#DEDEDE;stroke:#858585;stroke-miterlimit:10;" width="16.41" height="30.084"/>
				<rect x="532.083" y="336.162" style="fill:#FFFFFF;stroke:#858585;stroke-miterlimit:10;" width="16.41" height="30.084"/>
			</g>
			<g>
				<rect x="429.701" y="336.162" style="fill:#DEDEDE;stroke:#858585;stroke-miterlimit:10;" width="16.41" height="30.084"/>
			</g>
			<g>
				<rect x="635.368" y="336.162" style="fill:#FFFFFF;stroke:#858585;stroke-miterlimit:10;" width="16.41" height="30.084"/>
			</g>
			<rect x="424.866" y="316.105" style="fill:#DEDEDE;stroke:#858585;stroke-miterlimit:10;" width="108.196" height="26.438"/>
			<rect x="532.15" y="316.105" style="fill:#FFFFFF;stroke:#858585;stroke-miterlimit:10;" width="124.896" height="26.438"/>
		</g>
		<g>
			<rect x="429.701" y="386.251" style="fill:#C9C9C9;stroke:#858585;stroke-miterlimit:10;" width="222.077" height="29.939"/>
			<rect x="429.701" y="386.251" style="fill:#A1A1A1;stroke:#858585;stroke-miterlimit:10;" width="102.449" height="29.939"/>
			<g>
				<rect x="515.741" y="386.129" style="fill:#DEDEDE;stroke:#858585;stroke-miterlimit:10;" width="16.41" height="30.084"/>
				<rect x="532.083" y="386.129" style="fill:#FFFFFF;stroke:#858585;stroke-miterlimit:10;" width="16.41" height="30.084"/>
			</g>
			<g>
				<rect x="429.701" y="386.129" style="fill:#DEDEDE;stroke:#858585;stroke-miterlimit:10;" width="16.41" height="30.084"/>
			</g>
			<g>
				<rect x="635.368" y="386.129" style="fill:#FFFFFF;stroke:#858585;stroke-miterlimit:10;" width="16.41" height="30.084"/>
			</g>
			<rect x="424.866" y="366.073" style="fill:#DEDEDE;stroke:#858585;stroke-miterlimit:10;" width="108.196" height="26.438"/>
			<rect x="532.15" y="366.073" style="fill:#FFFFFF;stroke:#858585;stroke-miterlimit:10;" width="124.896" height="26.438"/>
		</g>
		<g>
			<rect x="429.701" y="436.604" style="fill:#C9C9C9;stroke:#858585;stroke-miterlimit:10;" width="222.077" height="29.939"/>
			<rect x="429.701" y="436.604" style="fill:#A1A1A1;stroke:#858585;stroke-miterlimit:10;" width="102.449" height="29.939"/>
			<g>
				<rect x="515.741" y="436.482" style="fill:#DEDEDE;stroke:#858585;stroke-miterlimit:10;" width="16.41" height="30.084"/>
				<rect x="532.083" y="436.482" style="fill:#FFFFFF;stroke:#858585;stroke-miterlimit:10;" width="16.41" height="30.084"/>
			</g>
			<g>
				<rect x="429.701" y="436.482" style="fill:#DEDEDE;stroke:#858585;stroke-miterlimit:10;" width="16.41" height="30.084"/>
			</g>
			<g>
				<rect x="635.368" y="436.482" style="fill:#FFFFFF;stroke:#858585;stroke-miterlimit:10;" width="16.41" height="30.084"/>
			</g>
			<rect x="424.866" y="416.425" style="fill:#DEDEDE;stroke:#858585;stroke-miterlimit:10;" width="108.196" height="26.438"/>
			<rect x="532.15" y="416.425" style="fill:#FFFFFF;stroke:#858585;stroke-miterlimit:10;" width="124.896" height="26.438"/>
		</g>
	</g>
</g>
<g id="Trees">
	<g>
		<path style="fill:#92E3A9;" d="M155.997,309.978c13.689,69.409-29.317,40.5-65.481,40.5c-36.164,0-81.99,23.539-65.481-40.5
			c9.433-36.591,29.317-59.468,65.481-59.468C126.68,250.511,150.225,280.708,155.997,309.978z"/>
		<path style="opacity:0.58;fill:#FFFFFF;" d="M155.997,309.978c13.689,69.409-29.317,40.5-65.481,40.5
			c-36.164,0-81.99,23.539-65.481-40.5c9.433-36.591,29.317-59.468,65.481-59.468C126.68,250.511,150.225,280.708,155.997,309.978z"
			/>
		<polygon style="fill:#A1A1A1;" points="73.017,337.853 87.913,349.221 86.387,466.198 95.388,466.198 93.659,330.579 
			114.961,307.148 93.401,325.572 92.617,290.684 90.265,314.596 84.721,310.574 72.625,293.428 80.4,309.013 55.377,298.916 
			80.879,313.327 89.272,319.143 88.305,344.517 		"/>
		<g>
			<path style="fill:#FFFFFF;" d="M79.826,276.747c0,0-0.966,4.472,1.041,8.182s4.751,6.175,4.751,6.175
				S87.611,284.046,79.826,276.747z"/>
			<path style="fill:#FFFFFF;" d="M42.337,316.249c0,0,3.449,3.007,7.667,3.042c4.218,0.036,7.702-1.176,7.702-1.176
				S52.489,312.96,42.337,316.249z"/>
			<path style="fill:#FFFFFF;" d="M37.085,334.783c0,0,4.186,1.848,8.224,0.63c4.039-1.218,7.006-3.409,7.006-3.409
				S45.803,328.629,37.085,334.783z"/>
			<path style="fill:#FFFFFF;" d="M62.083,336.713c0,0,4.575-0.061,7.741-2.849c3.166-2.788,4.953-6.015,4.953-6.015
				S67.451,327.49,62.083,336.713z"/>
			<path style="fill:#FFFFFF;" d="M51.536,281.372c0,0,1.038,4.456,4.438,6.953c3.4,2.497,6.934,3.553,6.934,3.553
				S61.694,284.644,51.536,281.372z"/>
			<path style="fill:#FFFFFF;" d="M126.125,278.069c0,0-4.53,0.642-7.316,3.809c-2.786,3.167-4.149,6.595-4.149,6.595
				S121.972,287.899,126.125,278.069z"/>
			<path style="fill:#FFFFFF;" d="M141.822,301.609c0,0-4.473-0.962-8.182,1.048c-3.708,2.01-6.171,4.757-6.171,4.757
				S134.53,309.4,141.822,301.609z"/>
			<path style="fill:#FFFFFF;" d="M140.287,328.349c0,0-3.225-3.245-7.43-3.582c-4.205-0.337-7.767,0.623-7.767,0.623
				S129.926,330.905,140.287,328.349z"/>
			<path style="fill:#FFFFFF;" d="M122.768,342.697c0,0-1.857-4.182-5.666-5.995c-3.809-1.813-7.479-2.186-7.479-2.186
				S112.177,341.392,122.768,342.697z"/>
			<path style="fill:#FFFFFF;" d="M113.548,299.309c0,0-4.53,0.642-7.316,3.809c-2.786,3.167-4.149,6.595-4.149,6.595
				S109.396,309.139,113.548,299.309z"/>
			<path style="fill:#FFFFFF;" d="M39.327,293.41c0,0,2.016,4.107,5.892,5.772c3.876,1.665,7.557,1.897,7.557,1.897
				S49.961,294.306,39.327,293.41z"/>
			<path style="fill:#FFFFFF;" d="M103.923,271.765c0,0-3.667,2.736-4.593,6.851c-0.926,4.115-0.478,7.777-0.478,7.777
				S104.993,282.383,103.923,271.765z"/>
			<path style="fill:#FFFFFF;" d="M90.09,258.822c0,0-2.082,4.074-1.095,8.175c0.987,4.101,3.006,7.188,3.006,7.188
				S95.74,267.875,90.09,258.822z"/>
			<path style="fill:#FFFFFF;" d="M60.149,263.173c0,0,0,4.575,2.745,7.778c2.745,3.203,5.948,5.033,5.948,5.033
				S69.3,268.663,60.149,263.173z"/>
		</g>
	</g>
	<g>
		<path style="fill:#92E3A9;" d="M739.034,337.192c11.304,57.318-24.21,33.444-54.074,33.444c-29.864,0-67.707,19.438-54.074-33.444
			c7.79-30.216,24.21-49.108,54.074-49.108C714.824,288.084,734.267,313.021,739.034,337.192z"/>
		<path style="opacity:0.58;fill:#FFFFFF;" d="M739.034,337.192c11.304,57.318-24.21,33.444-54.074,33.444
			c-29.864,0-67.707,19.438-54.074-33.444c7.79-30.216,24.21-49.108,54.074-49.108C714.824,288.084,734.267,313.021,739.034,337.192
			z"/>
		<polygon style="fill:#A1A1A1;" points="670.509,360.212 682.811,369.599 681.551,466.198 688.983,466.198 687.555,354.204 
			705.147,334.855 687.343,350.069 686.695,321.259 684.753,341.005 680.174,337.685 670.186,323.525 676.607,336.396 
			655.942,328.057 677.002,339.957 683.933,344.761 683.134,365.715 		"/>
		<g>
			<path style="fill:#FFFFFF;" d="M676.132,309.75c0,0-0.798,3.693,0.86,6.757c1.658,3.064,3.924,5.1,3.924,5.1
				S682.561,315.777,676.132,309.75z"/>
			<path style="fill:#FFFFFF;" d="M645.174,342.37c0,0,2.848,2.483,6.331,2.513c3.483,0.029,6.361-0.971,6.361-0.971
				S653.558,339.654,645.174,342.37z"/>
			<path style="fill:#FFFFFF;" d="M640.837,357.676c0,0,3.456,1.526,6.792,0.52c3.335-1.006,5.786-2.815,5.786-2.815
				S648.036,352.594,640.837,357.676z"/>
			<path style="fill:#FFFFFF;" d="M661.48,359.27c0,0,3.778-0.05,6.392-2.352c2.614-2.302,4.09-4.967,4.09-4.967
				S665.913,351.653,661.48,359.27z"/>
			<path style="fill:#FFFFFF;" d="M652.771,313.569c0,0,0.857,3.68,3.665,5.742c2.808,2.062,5.726,2.934,5.726,2.934
				S661.159,316.271,652.771,313.569z"/>
			<path style="fill:#FFFFFF;" d="M714.366,310.842c0,0-3.741,0.53-6.042,3.146c-2.301,2.616-3.426,5.446-3.426,5.446
				S710.937,318.96,714.366,310.842z"/>
			<path style="fill:#FFFFFF;" d="M727.328,330.281c0,0-3.694-0.795-6.756,0.866c-3.062,1.66-5.096,3.928-5.096,3.928
				S721.307,336.715,727.328,330.281z"/>
			<path style="fill:#FFFFFF;" d="M726.061,352.363c0,0-2.663-2.68-6.136-2.958c-3.472-0.278-6.414,0.514-6.414,0.514
				S717.505,354.473,726.061,352.363z"/>
			<path style="fill:#FFFFFF;" d="M711.594,364.211c0,0-1.533-3.453-4.679-4.95c-3.145-1.497-6.176-1.805-6.176-1.805
				S702.847,363.134,711.594,364.211z"/>
			<path style="fill:#FFFFFF;" d="M703.98,328.382c0,0-3.741,0.53-6.042,3.146s-3.426,5.446-3.426,5.446
				S700.551,336.5,703.98,328.382z"/>
			<path style="fill:#FFFFFF;" d="M642.688,323.51c0,0,1.665,3.392,4.866,4.767c3.201,1.375,6.241,1.566,6.241,1.566
				S651.47,324.251,642.688,323.51z"/>
			<path style="fill:#FFFFFF;" d="M696.031,305.636c0,0-3.029,2.259-3.793,5.658c-0.765,3.398-0.395,6.422-0.395,6.422
				S696.915,314.404,696.031,305.636z"/>
			<path style="fill:#FFFFFF;" d="M684.609,294.947c0,0-1.719,3.365-0.904,6.751c0.815,3.387,2.482,5.936,2.482,5.936
				S689.274,302.423,684.609,294.947z"/>
			<path style="fill:#FFFFFF;" d="M659.883,298.541c0,0,0,3.778,2.267,6.423c2.267,2.645,4.912,4.156,4.912,4.156
				S667.44,303.075,659.883,298.541z"/>
		</g>
	</g>
	<g>
		<path style="fill:#92E3A9;" d="M250.488,275.988c16.667,84.511-35.696,49.312-79.729,49.312s-99.829,28.661-79.729-49.312
			c11.485-44.552,35.696-72.407,79.729-72.407S243.46,240.349,250.488,275.988z"/>
		<path style="opacity:0.3;fill:#FFFFFF;" d="M250.488,275.988c16.667,84.511-35.696,49.312-79.729,49.312
			s-99.829,28.661-79.729-49.312c11.485-44.552,35.696-72.407,79.729-72.407S243.46,240.349,250.488,275.988z"/>
		<polygon style="fill:#A1A1A1;" points="149.453,309.928 167.59,323.77 165.732,466.198 176.691,466.198 174.586,301.07 
			200.524,272.541 174.272,294.974 173.318,252.495 170.454,281.61 163.703,276.714 148.976,255.836 158.443,274.813 
			127.975,262.518 159.026,280.065 169.245,287.147 168.068,318.042 		"/>
		<g>
			<path style="fill:#FFFFFF;" d="M157.743,235.526c0,0-1.176,5.445,1.268,9.963c2.444,4.518,5.785,7.519,5.785,7.519
				S167.222,244.413,157.743,235.526z"/>
			<path style="fill:#FFFFFF;" d="M112.098,283.622c0,0,4.199,3.661,9.335,3.704c5.136,0.043,9.378-1.432,9.378-1.432
				S124.459,279.618,112.098,283.622z"/>
			<path style="fill:#FFFFFF;" d="M105.702,306.189c0,0,5.096,2.25,10.014,0.767c4.917-1.483,8.531-4.15,8.531-4.15
				S116.318,298.697,105.702,306.189z"/>
			<path style="fill:#FFFFFF;" d="M136.14,308.539c0,0,5.57-0.074,9.425-3.468c3.855-3.394,6.031-7.323,6.031-7.323
				S142.676,297.309,136.14,308.539z"/>
			<path style="fill:#FFFFFF;" d="M123.298,241.157c0,0,1.264,5.426,5.403,8.466c4.14,3.04,8.443,4.326,8.443,4.326
				S135.666,245.141,123.298,241.157z"/>
			<path style="fill:#FFFFFF;" d="M214.116,237.135c0,0-5.516,0.782-8.908,4.638c-3.392,3.857-5.052,8.03-5.052,8.03
				S209.06,249.105,214.116,237.135z"/>
			<path style="fill:#FFFFFF;" d="M233.229,265.797c0,0-5.446-1.171-9.962,1.276c-4.515,2.448-7.514,5.792-7.514,5.792
				S224.35,275.284,233.229,265.797z"/>
			<path style="fill:#FFFFFF;" d="M231.359,298.355c0,0-3.927-3.952-9.047-4.361c-5.12-0.41-9.457,0.758-9.457,0.758
				S218.744,301.467,231.359,298.355z"/>
			<path style="fill:#FFFFFF;" d="M210.029,315.825c0,0-2.261-5.091-6.898-7.299c-4.637-2.208-9.106-2.662-9.106-2.662
				S197.133,314.237,210.029,315.825z"/>
			<path style="fill:#FFFFFF;" d="M198.803,262.997c0,0-5.516,0.782-8.908,4.638c-3.392,3.857-5.051,8.03-5.051,8.03
				S193.747,274.966,198.803,262.997z"/>
			<path style="fill:#FFFFFF;" d="M108.433,255.815c0,0,2.455,5.001,7.174,7.029c4.719,2.028,9.201,2.309,9.201,2.309
				S121.38,256.906,108.433,255.815z"/>
			<path style="fill:#FFFFFF;" d="M187.083,229.46c0,0-4.465,3.331-5.593,8.342c-1.127,5.011-0.582,9.469-0.582,9.469
				S188.387,242.388,187.083,229.46z"/>
			<path style="fill:#FFFFFF;" d="M170.241,213.7c0,0-2.535,4.961-1.333,9.954c1.202,4.993,3.66,8.752,3.66,8.752
				S177.12,224.723,170.241,213.7z"/>
			<path style="fill:#FFFFFF;" d="M133.785,218.998c0,0,0,5.571,3.343,9.47c3.342,3.9,7.242,6.128,7.242,6.128
				S144.927,225.683,133.785,218.998z"/>
		</g>
	</g>
</g>
<g id="Floor">
	<line style="fill:none;stroke:#263238;stroke-miterlimit:10;" x1="14.544" y1="466.566" x2="737.638" y2="466.566"/>
</g>
<g id="Bus">
	<g>
		<rect x="306.424" y="391.536" style="fill:#263238;stroke:#263238;stroke-miterlimit:10;" width="268.096" height="43.97"/>
		<g>
			<path style="fill:#FFFFFF;stroke:#263238;stroke-miterlimit:10;" d="M123.418,290.508c-2.28,0-4.135,1.855-4.135,4.136v10.034
				h3.253v-10.034c0-0.486,0.395-0.882,0.881-0.882c0,0,2.162,0,2.218,0c0.477,0.001,1.054,1.783,1.216,2.114
				c1.199,2.456,3.335,4.158,6.163,4.158h21.889v-9.525H123.418z M151.652,296.779h-18.636c-1.145,0-2.208-0.569-2.843-1.522
				l-0.998-1.496h22.476V296.779z"/>
			<path style="fill:#FFFFFF;stroke:#263238;stroke-miterlimit:10;" d="M129.679,333.29h-11.426c-1.51,0-2.734-1.224-2.734-2.734
				v-27.154c0-1.51,1.224-2.734,2.734-2.734h11.426c1.51,0,2.734,1.224,2.734,2.734v27.154
				C132.413,332.066,131.189,333.29,129.679,333.29z"/>
		</g>
		<path style="fill:#92E3A9;stroke:#263238;stroke-miterlimit:10;" d="M323.782,261.229h-75.26c-1.571,0-3.117,0.394-4.497,1.147
			l-21.628,11.797h80.359L323.782,261.229z"/>
		<path style="fill:#92E3A9;stroke:#263238;stroke-miterlimit:10;" d="M298.982,274.173l16.707-11.283
			c1.609-1.087,3.45-1.66,5.326-1.66h147.869c1.901,0,3.766,0.589,5.389,1.704l17.162,11.779L298.982,274.173z"/>
		<g>
			<path style="fill:#263238;stroke:#263238;stroke-miterlimit:10;" d="M372.74,436.893c0-11.212-6.299-20.949-15.549-25.877v-3.428
				h-13.755c-16.184,0-29.305,13.12-29.305,29.305c0,16.184,13.12,29.305,29.305,29.305h13.755v-3.428
				C366.441,457.843,372.74,448.105,372.74,436.893z"/>
			
				<ellipse transform="matrix(0.9873 -0.1587 0.1587 0.9873 -64.8209 62.2372)" style="fill:#263238;stroke:#263238;stroke-miterlimit:10;" cx="357.191" cy="436.893" rx="29.304" ry="29.305"/>
			
				<ellipse transform="matrix(0.387 -0.9221 0.9221 0.387 -183.8892 597.1855)" style="fill:#FFFFFF;stroke:#263238;stroke-miterlimit:10;" cx="357.191" cy="436.893" rx="18.261" ry="18.261"/>
		</g>
		<path style="fill:#263238;stroke:#263238;stroke-miterlimit:10;" d="M255.249,407.589h-13.755
			c-16.184,0-29.304,13.12-29.304,29.305c0,16.184,13.12,29.305,29.304,29.305h13.755c16.185,0,29.305-13.12,29.305-29.305
			C284.553,420.709,271.433,407.589,255.249,407.589z"/>
		<g>
			<path style="fill:#263238;stroke:#263238;stroke-miterlimit:10;" d="M537.976,436.893c0-11.212-6.299-20.949-15.549-25.877
				v-3.428h-13.755c-16.185,0-29.305,13.12-29.305,29.305c0,16.184,13.12,29.305,29.305,29.305h13.755v-3.428
				C531.677,457.843,537.976,448.105,537.976,436.893z"/>
			
				<ellipse transform="matrix(0.9689 -0.2476 0.2476 0.9689 -91.9046 142.9505)" style="fill:#263238;stroke:#263238;stroke-miterlimit:10;" cx="522.427" cy="436.893" rx="29.305" ry="29.305"/>
			
				<ellipse transform="matrix(0.9685 -0.2488 0.2488 0.9685 -92.2834 143.7434)" style="fill:#FFFFFF;stroke:#263238;stroke-miterlimit:10;" cx="522.427" cy="436.893" rx="18.261" ry="18.261"/>
		</g>
		<path style="fill:#92E3A9;stroke:#263238;stroke-miterlimit:10;" d="M619.368,272.267H272.773V435.97h52.721v-8.646
			c0-17.505,14.191-31.697,31.697-31.697h0c17.506,0,31.697,14.191,31.697,31.697v8.646h101.669v-8.646
			c0-17.505,14.191-31.697,31.697-31.697l0,0c17.506,0,31.697,14.191,31.697,31.697v8.646h35.551l27.154-7.637
			c4.354-1.225,7.363-5.196,7.363-9.719V276.917C624.018,274.349,621.936,272.267,619.368,272.267z"/>
		<path style="fill:#92E3A9;stroke:#263238;stroke-miterlimit:10;" d="M272.773,272.267H163.045c-4.851,0-8.784,3.933-8.784,8.784
			v138.158c0,3.419,1.358,6.698,3.776,9.116l3.292,3.292c2.634,2.634,6.206,4.114,9.931,4.114h110.296V281.051
			C281.557,276.2,277.624,272.267,272.773,272.267z"/>
		<path style="fill:#263238;stroke:#263238;stroke-miterlimit:10;" d="M158.729,281.993v104.202l20.053,4.243
			c1.927,0.408,3.891,0.613,5.861,0.613h51.027c3.2,0,6.376-0.542,9.394-1.604l29.191-10.268v-97.187
			c0-3.609-2.831-6.534-6.323-6.534h-102.88C161.56,275.459,158.729,278.384,158.729,281.993z"/>
		<path style="fill:none;stroke:#263238;stroke-miterlimit:10;" d="M162.559,424.242h106.59c0,0,1.635,2.553,7.021,7.021"/>
		<line style="fill:none;stroke:#263238;stroke-miterlimit:10;" x1="186.813" y1="418.497" x2="233.407" y2="418.497"/>
		<g>
			<path style="fill:#263238;stroke:#263238;stroke-miterlimit:10;" d="M271.064,401.902l-30.16,10.886c0,0,3.992,6.348,5.906,6.986
				c1.915,0.638,22.339,0,22.339,0S276.809,415.306,271.064,401.902z"/>
			<path style="fill:#FFFFFF;stroke:#263238;stroke-miterlimit:10;" d="M259.245,409.793l10.106-2.246c0,0,0,6.737-1.497,7.486
				s-9.781,2.142-9.781,2.142L259.245,409.793z"/>
			<path style="fill:#FFFFFF;stroke:#263238;stroke-miterlimit:10;" d="M260.742,414.098c0,2.584-2.095,4.679-4.679,4.679
				c-2.584,0-4.679-2.095-4.679-4.679c0-2.584,2.095-4.679,4.679-4.679C258.647,409.419,260.742,411.514,260.742,414.098z"/>
			<path style="fill:#FFFFFF;stroke:#263238;stroke-miterlimit:10;" d="M251.531,415.241c0,1.953-1.583,3.536-3.536,3.536
				c-1.953,0-3.536-1.583-3.536-3.536c0-1.953,1.583-3.536,3.536-3.536C249.948,411.705,251.531,413.288,251.531,415.241z"/>
		</g>
		<g>
			<path style="fill:#263238;stroke:#263238;stroke-miterlimit:10;" d="M159.078,401.902l23.22,10.886c0,0-3.073,6.348-4.547,6.986
				c-1.474,0.638-17.199,0-17.199,0S154.656,415.306,159.078,401.902z"/>
			<path style="fill:#FFFFFF;stroke:#263238;stroke-miterlimit:10;" d="M168.178,409.793l-7.78-2.246c0,0,0,6.737,1.153,7.486
				c1.153,0.749,7.53,2.142,7.53,2.142L168.178,409.793z"/>
			<path style="fill:#FFFFFF;stroke:#263238;stroke-miterlimit:10;" d="M167.025,414.098c0,2.584,1.613,4.679,3.602,4.679
				s3.602-2.095,3.602-4.679c0-2.584-1.613-4.679-3.602-4.679S167.025,411.514,167.025,414.098z"/>
			<ellipse style="fill:#FFFFFF;stroke:#263238;stroke-miterlimit:10;" cx="176.839" cy="415.241" rx="2.722" ry="3.536"/>
		</g>
		<rect x="184.984" y="284.887" style="fill:#CCCCCC;stroke:#263238;stroke-miterlimit:10;" width="63.018" height="11.448"/>
		<g>
			<rect x="162.072" y="303.11" style="fill:#CCCCCC;stroke:#263238;stroke-miterlimit:10;" width="108.824" height="73.53"/>
			<polygon style="fill:#FFFFFF;stroke:#263238;stroke-miterlimit:10;" points="162.072,363.212 222.174,303.11 195.476,303.11 
				162.072,336.514 			"/>
		</g>
		<path style="fill:#263238;stroke:#263238;stroke-miterlimit:10;" d="M227.773,370.268h12.731c0,0-22.059-5.392-47.059,0h33.715
			l6.482,8.333h3.449l-9.06-8.206L227.773,370.268z"/>
		<rect x="198.109" y="428.521" style="fill:#FFFFFF;stroke:#263238;stroke-miterlimit:10;" width="23.324" height="7.177"/>
		<path style="fill:#263238;stroke:#263238;stroke-miterlimit:10;" d="M284.827,288.577v105.304h28.454
			c4.487,0,10.547-6.594,10.547-6.594l12.542-12.995h280.974v-85.715H284.827z"/>
		<g>
			<path style="fill:#FFFFFF;stroke:#263238;stroke-miterlimit:10;" d="M252.258,290.508c-2.28,0-4.135,1.855-4.135,4.136v10.034
				h3.253v-10.034c0-0.486,0.395-0.882,0.881-0.882c0,0,2.162,0,2.218,0c0.477,0.001,1.054,1.783,1.216,2.114
				c1.199,2.456,3.335,4.158,6.163,4.158h21.889v-9.525H252.258z M280.491,296.779h-18.636c-1.145,0-2.208-0.569-2.842-1.522
				l-0.998-1.496h22.476V296.779z"/>
			<path style="fill:#FFFFFF;stroke:#263238;stroke-miterlimit:10;" d="M258.518,333.29h-11.426c-1.51,0-2.734-1.224-2.734-2.734
				v-27.154c0-1.51,1.224-2.734,2.734-2.734h11.426c1.51,0,2.734,1.224,2.734,2.734v27.154
				C261.252,332.066,260.028,333.29,258.518,333.29z"/>
		</g>
		<rect x="288.357" y="300.989" style="fill:#FFFFFF;stroke:#263238;stroke-miterlimit:10;" width="38.26" height="52.3"/>
		<rect x="334.869" y="300.989" style="fill:#FFFFFF;stroke:#263238;stroke-miterlimit:10;" width="38.26" height="69.051"/>
		<rect x="381.381" y="300.989" style="fill:#FFFFFF;stroke:#263238;stroke-miterlimit:10;" width="38.26" height="69.051"/>
		<rect x="427.892" y="300.989" style="fill:#FFFFFF;stroke:#263238;stroke-miterlimit:10;" width="38.26" height="69.051"/>
		<rect x="474.404" y="300.989" style="fill:#FFFFFF;stroke:#263238;stroke-miterlimit:10;" width="38.259" height="58.791"/>
		<rect x="520.915" y="300.989" style="fill:#FFFFFF;stroke:#263238;stroke-miterlimit:10;" width="38.259" height="58.791"/>
		<g>
			<rect x="567.427" y="300.989" style="fill:#FFFFFF;stroke:#263238;stroke-miterlimit:10;" width="17.708" height="38.516"/>
			<rect x="587.978" y="300.989" style="fill:#FFFFFF;stroke:#263238;stroke-miterlimit:10;" width="17.708" height="38.516"/>
		</g>
		<rect x="288.357" y="359.683" style="fill:#FFFFFF;stroke:#263238;stroke-miterlimit:10;" width="38.26" height="15.574"/>
		<g>
			<line style="fill:none;stroke:#263238;stroke-miterlimit:10;" x1="593.452" y1="395.811" x2="608.108" y2="395.811"/>
			<line style="fill:none;stroke:#263238;stroke-miterlimit:10;" x1="593.452" y1="400.086" x2="608.108" y2="400.086"/>
			<line style="fill:none;stroke:#263238;stroke-miterlimit:10;" x1="593.452" y1="404.361" x2="608.108" y2="404.361"/>
			<line style="fill:none;stroke:#263238;stroke-miterlimit:10;" x1="593.452" y1="408.636" x2="608.108" y2="408.636"/>
			<line style="fill:none;stroke:#263238;stroke-miterlimit:10;" x1="593.452" y1="412.911" x2="608.108" y2="412.911"/>
			<line style="fill:none;stroke:#263238;stroke-miterlimit:10;" x1="593.452" y1="417.185" x2="608.108" y2="417.185"/>
			<line style="fill:none;stroke:#263238;stroke-miterlimit:10;" x1="593.452" y1="421.46" x2="608.108" y2="421.46"/>
			<line style="fill:none;stroke:#263238;stroke-miterlimit:10;" x1="593.452" y1="425.735" x2="608.108" y2="425.735"/>
		</g>
		<ellipse style="fill:#FFFFFF;stroke:#263238;stroke-miterlimit:10;" cx="208.123" cy="404.556" rx="11.104" ry="4.759"/>
		<rect x="325.192" y="396.625" style="fill:#FFFFFF;stroke:#263238;stroke-miterlimit:10;" width="8.883" height="4.442"/>
	</g>
</g>
</svg>
